<?xml version="1.0" encoding="utf-8"?>
<!-- Generator: Adobe Illustrator 25.2.0, SVG Export Plug-In . SVG Version: 6.00 Build 0)  -->
<svg version="1.1" xmlns="http://www.w3.org/2000/svg" xmlns:xlink="http://www.w3.org/1999/xlink" x="0px" y="0px"
	 viewBox="0 0 1366 768" style="enable-background:new 0 0 1366 768;" xml:space="preserve">
<style type="text/css">
	.st0{fill:#998675;}
	.st1{stroke:#000000;stroke-width:2;stroke-miterlimit:10;}
	.st2{fill:#FFFFFF;stroke:#000000;stroke-width:4;stroke-miterlimit:10;}
	.st3{fill:none;stroke:#000000;stroke-width:4;stroke-miterlimit:10;}
	.st4{fill:#29ABE2;stroke:#000000;stroke-width:4;stroke-miterlimit:10;}
	.st5{fill:none;}
	.st6{fill:#FFFFFF;}
	.st7{font-family:'Poppins-Bold';}
	.st8{font-size:27px;}
	.st9{letter-spacing:3.1;}
	.st10{fill:none;stroke:#FFFFFF;stroke-width:4;stroke-miterlimit:10;}
	.st11{fill:#29ABE2;stroke:#FFFFFF;stroke-width:4;stroke-miterlimit:10;}
	.st12{fill:#FFFFFF;stroke:#FFFFFF;stroke-width:2;stroke-miterlimit:10;}
	.st13{stroke:#000000;stroke-width:0.5472;stroke-miterlimit:10;}
	.st14{fill:none;stroke:#FFFFFF;stroke-width:1.0944;stroke-miterlimit:10;}
	.st15{fill:#FFFFFF;stroke:#000000;stroke-width:1.0944;stroke-miterlimit:10;}
	.st16{fill:none;stroke:#000000;stroke-width:1.0944;stroke-miterlimit:10;}
	.st17{fill:#29ABE2;stroke:#FFFFFF;stroke-width:1.0944;stroke-miterlimit:10;}
	.st18{font-size:7.3871px;}
	.st19{fill:#FFFFFF;stroke:#FFFFFF;stroke-width:0.5472;stroke-miterlimit:10;}
	.st20{stroke:#000000;stroke-width:0.6232;stroke-miterlimit:10;}
	.st21{fill:#FFFFFF;stroke:#000000;stroke-width:1.2463;stroke-miterlimit:10;}
	.st22{fill:none;stroke:#000000;stroke-width:1.2463;stroke-miterlimit:10;}
	.st23{fill:#29ABE2;stroke:#000000;stroke-width:1.2463;stroke-miterlimit:10;}
	.st24{font-size:8.4126px;}
	.st25{letter-spacing:1;}
</style>
<g id="Layer_2">
	<rect x="32" y="372" width="531" height="327"/>
	<rect x="395" y="54" class="st0" width="493" height="295"/>
</g>
<g id="Layer_1">
	<path class="st1" d="M109.7,161.5"/>
	<path class="st2" d="M318.1,255.3c-16.8,40.4-57.8,67.5-103.9,64.6c-41.4-2.6-75.7-28.8-90.7-64.7"/>
	<path class="st2" d="M124.2,172.7c17.2-39.5,57.8-66,103.3-63.1c41.2,2.6,75.3,28.5,90.4,64.1"/>
	<path class="st2" d="M123.6,255.2"/>
	<path class="st3" d="M331.7,255.3c-17.4,48.1-64.9,81-118.5,77.6c-48.3-3-87.9-34.7-103.5-77.4"/>
	<path class="st3" d="M110.9,171.3c18.4-46.1,64.9-77.4,117.1-74.1c47.5,3,86.7,33.7,102.8,75.5"/>
	<path class="st3" d="M110.9,171.3"/>
	<path class="st3" d="M106.6,184.2"/>
	<path class="st3" d="M102.8,207.6"/>
	<path class="st3" d="M109.7,255.5"/>
	<path class="st3" d="M330.9,172.7h5.9c23.2,0,42,18.8,42,42v0c0,23.2-18.8,42-42,42h-232c-23.2,0-42-18.8-42-42v0
		c0-23.2,18.8-42,42-42h5.6"/>
	<line class="st3" x1="124.2" y1="172.7" x2="330.9" y2="172.7"/>
	<line class="st3" x1="110.4" y1="172.7" x2="124.2" y2="172.7"/>
	<path class="st4" d="M104.4,243.5c-15.6,0-28.2-12.6-28.2-28.2v0c0-15.6,12.6-28.2,28.2-28.2h232.2c15.6,0,28.2,12.6,28.2,28.2v0
		c0,15.6-12.6,28.2-28.2,28.2H104.4"/>
	<polyline class="st5" points="76,245.8 76,203.3 364,203.3 364,245.8 76,245.8 	"/>
	<text transform="matrix(0.9692 0 0 1 90.99 223.3289)" class="st6 st7 st8 st9">BIODEGRADABLE</text>
	<polygon class="st1" points="220.5,152.5 222.5,156.4 226.8,157 223.7,160.1 224.4,164.4 220.5,162.4 216.6,164.4 217.4,160.1 
		214.2,157 218.6,156.4 	"/>
	<polygon class="st1" points="220.8,265.3 222.7,269.3 227.1,269.9 223.9,273 224.7,277.3 220.8,275.2 216.9,277.3 217.7,273 
		214.5,269.9 218.9,269.3 	"/>
	<g>
		<g>
			<path d="M158.1,149.2c0.6,0.1,1.1,0.3,1.4,0.8c0.5,0.6,0.7,1.3,0.5,2.1c-0.2,0.8-0.7,1.5-1.6,2.3c-1.5,1.4-2.3,2.1-3.7,3.6
				c-2.8-2.8-4.2-4.2-6.9-6.9c1.6-1.6,2.4-2.3,4-3.8c0.9-0.8,1.8-1.3,2.6-1.4c0.8-0.1,1.5,0.2,2,0.8c0.4,0.4,0.5,0.9,0.5,1.5
				c0,0.5-0.2,1-0.6,1.5C157,149.2,157.5,149.1,158.1,149.2z M152.7,151.8c0.5-0.5,0.8-0.8,1.4-1.3c0.3-0.3,0.6-0.6,0.6-0.9
				c0.1-0.3,0-0.6-0.2-0.8c-0.2-0.3-0.5-0.4-0.8-0.3c-0.3,0-0.6,0.2-1,0.5c-0.6,0.5-0.8,0.8-1.4,1.3
				C151.8,150.9,152.1,151.2,152.7,151.8z M157.5,152.3c0.1-0.3,0-0.6-0.2-0.8c-0.2-0.3-0.5-0.4-0.8-0.3c-0.3,0-0.7,0.2-1,0.5
				c-0.6,0.5-0.9,0.8-1.5,1.4c0.6,0.6,0.9,0.9,1.5,1.6c0.6-0.6,0.9-0.8,1.5-1.4C157.2,153,157.4,152.7,157.5,152.3z"/>
			<path d="M160.4,140.2c2.3,3.2,3.4,4.8,5.7,8c-0.9,0.6-1.3,0.9-2.1,1.6c-2.4-3.1-3.6-4.7-6-7.8C159,141.3,159.5,140.9,160.4,140.2
				z"/>
			<path d="M171,144.3c-0.9,0.1-1.8-0.1-2.7-0.4c-0.8-0.4-1.5-0.9-2.1-1.7c-0.5-0.8-0.8-1.7-0.8-2.6c0-0.9,0.3-1.8,0.9-2.7
				s1.3-1.6,2.3-2.1c1-0.6,1.9-0.9,3-0.9c1-0.1,1.9,0.1,2.7,0.6c0.8,0.4,1.4,1.1,1.9,2c0.4,0.9,0.6,1.7,0.5,2.7
				c-0.1,0.9-0.4,1.7-0.9,2.5c-0.5,0.8-1.2,1.4-2.1,1.9C172.8,143.9,172,144.2,171,144.3z M174,139.8c0.2-0.7,0.1-1.4-0.3-2.2
				c-0.4-0.8-1-1.2-1.7-1.4c-0.7-0.2-1.5,0-2.3,0.4c-0.8,0.5-1.3,1.1-1.5,1.8c-0.2,0.7-0.1,1.5,0.4,2.2c0.5,0.7,1.1,1.2,1.8,1.3
				c0.7,0.2,1.5,0,2.2-0.4C173.4,141.1,173.8,140.5,174,139.8z"/>
			<path d="M184.5,128c1,0.1,1.8,0.4,2.6,0.9c0.7,0.5,1.2,1.3,1.5,2.2c0.3,0.9,0.4,1.8,0.2,2.6c-0.2,0.9-0.6,1.6-1.2,2.3
				c-0.6,0.7-1.5,1.2-2.5,1.6c-1.5,0.6-2.2,0.9-3.6,1.6c-1.7-3.6-2.5-5.3-4.1-8.9c1.6-0.7,2.4-1.1,4-1.8
				C182.5,128.1,183.5,127.9,184.5,128z M186,134.2c0.3-0.7,0.4-1.4,0-2.3c-0.3-0.8-0.8-1.4-1.6-1.7c-0.7-0.3-1.6-0.2-2.5,0.2
				c-0.5,0.2-0.7,0.3-1.2,0.5c0.9,2.1,1.4,3.1,2.3,5.2c0.5-0.2,0.7-0.3,1.1-0.5C185,135.4,185.7,134.9,186,134.2z"/>
			<path d="M193.7,126.3c0.2,0.8,0.3,1.1,0.5,1.9c1.4-0.4,2.1-0.6,3.5-0.9c0.2,0.7,0.3,1.1,0.4,1.8c-1.4,0.3-2.1,0.5-3.4,0.9
				c0.2,0.8,0.3,1.2,0.6,2.1c1.5-0.4,2.3-0.6,3.8-1c0.2,0.7,0.3,1.1,0.4,1.9c-2.5,0.6-3.7,0.9-6.2,1.7c-1.2-3.8-1.7-5.6-2.9-9.4
				c2.7-0.8,4.1-1.2,6.8-1.8c0.2,0.7,0.3,1.1,0.4,1.9C196.1,125.7,195.3,125.9,193.7,126.3z"/>
			<path d="M209,124.5c-0.2-0.3-0.6-0.5-0.9-0.6c-0.4-0.1-0.8-0.2-1.4-0.1c-0.9,0.1-1.5,0.5-2,1.1s-0.6,1.3-0.4,2.1
				c0.2,0.9,0.5,1.5,1.1,2c0.6,0.4,1.4,0.6,2.3,0.4c0.6-0.1,1.1-0.3,1.5-0.7c0.4-0.3,0.7-0.8,0.8-1.4c-1.3,0.1-2,0.2-3.3,0.4
				c-0.1-0.7-0.2-1-0.3-1.7c2.3-0.3,3.5-0.5,5.8-0.7c0.1,0.9,0.1,1.3,0.2,2.2c-0.1,0.6-0.4,1.2-0.8,1.7c-0.4,0.6-0.9,1-1.6,1.4
				c-0.7,0.4-1.4,0.6-2.3,0.8c-1,0.1-1.9,0.1-2.8-0.2c-0.9-0.3-1.6-0.7-2.2-1.4c-0.6-0.7-1-1.5-1.2-2.4c-0.2-1-0.1-1.8,0.2-2.7
				c0.3-0.8,0.9-1.5,1.7-2.1c0.8-0.6,1.8-0.9,2.9-1.1c1.4-0.2,2.5,0,3.5,0.4c1,0.5,1.7,1.2,2.1,2.2
				C210.8,124.3,210.2,124.4,209,124.5z"/>
			<path d="M221.4,130.6c-0.9-1.5-1.3-2.2-2.2-3.7c-0.3,0-0.4,0-0.6,0c0,1.5,0.1,2.2,0.1,3.7c-1,0-1.5,0-2.5,0.1
				c-0.2-3.9-0.3-5.9-0.5-9.8c1.9-0.1,2.8-0.1,4.7-0.1c0.9,0,1.7,0.1,2.3,0.4c0.6,0.3,1.1,0.7,1.4,1.1c0.3,0.5,0.4,1,0.4,1.6
				c0,0.7-0.2,1.2-0.7,1.7c-0.4,0.5-1,0.8-1.8,1.1c1,1.6,1.4,2.4,2.3,3.9C223.1,130.6,222.5,130.6,221.4,130.6z M218.5,125.2
				c0.7,0,1,0,1.7,0c0.5,0,0.9-0.1,1.1-0.3c0.2-0.2,0.4-0.5,0.4-0.9c0-0.4-0.1-0.7-0.4-0.9c-0.2-0.2-0.6-0.3-1.1-0.3
				c-0.7,0-1,0-1.7,0C218.4,123.7,218.5,124.2,218.5,125.2z"/>
			<path d="M234.2,129.8c-1.6-0.2-2.3-0.3-3.9-0.5c-0.3,0.7-0.5,1-0.8,1.7c-1.1-0.1-1.6-0.1-2.6-0.2c1.7-3.8,2.7-5.7,4.8-9.4
				c1.3,0.1,1.9,0.2,3.2,0.4c1.1,4.1,1.6,6.2,2.4,10.3c-1.1-0.2-1.6-0.3-2.6-0.4C234.5,130.8,234.4,130.5,234.2,129.8z M233.8,127.8
				c-0.3-1.5-0.5-2.2-0.9-3.7c-0.7,1.4-1.1,2-1.7,3.4C232.3,127.6,232.8,127.7,233.8,127.8z"/>
			<path d="M249.4,125.4c0.8,0.6,1.2,1.4,1.5,2.2c0.2,0.9,0.2,1.7-0.1,2.7c-0.3,0.9-0.8,1.7-1.4,2.2c-0.7,0.6-1.4,0.9-2.4,1.1
				c-0.9,0.2-1.9,0.1-2.9-0.2c-1.5-0.4-2.3-0.6-3.8-0.9c0.8-3.8,1.2-5.8,2-9.6c1.7,0.4,2.5,0.5,4.2,1
				C247.7,124.2,248.6,124.7,249.4,125.4z M246.8,131.3c0.7-0.3,1.1-0.9,1.4-1.8c0.3-0.9,0.2-1.6-0.2-2.3c-0.4-0.6-1.1-1.1-2.1-1.3
				c-0.5-0.1-0.8-0.2-1.3-0.3c-0.5,2.2-0.8,3.3-1.3,5.5c0.5,0.1,0.7,0.2,1.2,0.3C245.3,131.6,246.1,131.6,246.8,131.3z"/>
			<path d="M259.2,136.9c-1.5-0.6-2.2-1-3.7-1.5c-0.5,0.6-0.7,0.8-1.2,1.4c-1-0.4-1.5-0.6-2.5-0.9c2.7-3.2,4.2-4.8,7.2-7.8
				c1.2,0.5,1.8,0.7,3,1.3c0,4.3-0.1,6.4-0.4,10.6c-1-0.5-1.5-0.7-2.5-1.1C259.2,138,259.2,137.6,259.2,136.9z M259.4,134.9
				c0.1-1.5,0.1-2.3,0.1-3.8c-1.1,1.1-1.6,1.7-2.6,2.8C257.9,134.3,258.4,134.5,259.4,134.9z"/>
			<path d="M273.5,141.7c0.1,0.6,0,1.1-0.3,1.6c-0.4,0.7-1.1,1.1-1.9,1.1c-0.8,0.1-1.7-0.2-2.6-0.8c-1.7-1-2.6-1.5-4.3-2.4
				c1.8-3.5,2.7-5.2,4.6-8.7c1.9,1,2.8,1.5,4.6,2.6c1,0.6,1.7,1.3,2,2.1c0.3,0.7,0.3,1.5-0.2,2.1c-0.3,0.5-0.7,0.8-1.2,0.9
				c-0.5,0.1-1,0.1-1.6-0.1C273.1,140.6,273.4,141.1,273.5,141.7z M269.5,137.4c0.6,0.4,0.9,0.5,1.6,0.9c0.4,0.2,0.7,0.3,1,0.3
				c0.3,0,0.5-0.2,0.7-0.5s0.2-0.6,0.1-0.8c-0.1-0.3-0.4-0.5-0.8-0.8c-0.6-0.4-1-0.6-1.6-0.9C270.1,136.3,269.9,136.7,269.5,137.4z
				 M270.3,142.1c0.3,0,0.5-0.2,0.7-0.5s0.2-0.6,0.1-0.9c-0.1-0.3-0.4-0.6-0.8-0.8c-0.7-0.4-1-0.6-1.7-1c-0.4,0.8-0.6,1.1-1.1,1.9
				c0.7,0.4,1,0.6,1.7,1C269.7,142,270,142.1,270.3,142.1z"/>
			<path d="M277.8,147.6c1.1,0.8,1.7,1.3,2.8,2.2c-0.5,0.6-0.7,0.9-1.2,1.4c-1.9-1.5-2.9-2.3-4.9-3.7c2.3-3.2,3.4-4.8,5.6-8
				c0.9,0.7,1.4,1,2.4,1.7C280.7,143.8,279.7,145,277.8,147.6z"/>
			<path d="M289.4,149.3c-0.5,0.6-0.8,0.9-1.3,1.5c1.1,1,1.7,1.6,2.8,2.7c-0.5,0.5-0.8,0.8-1.3,1.3c-1.1-1.1-1.6-1.6-2.7-2.6
				c-0.6,0.6-0.9,1-1.5,1.6c1.2,1.1,1.8,1.7,3,2.9c-0.5,0.5-0.8,0.8-1.4,1.4c-1.9-1.9-2.9-2.9-5-4.6c2.6-3,3.9-4.5,6.4-7.4
				c2.2,1.9,3.3,3,5.5,5.1c-0.5,0.5-0.8,0.8-1.4,1.4C291.3,151.1,290.7,150.5,289.4,149.3z"/>
		</g>
	</g>
	<g>
		<g>
			<path d="M157.3,281.3c0,0.6-0.1,1.1-0.5,1.6c-0.5,0.6-1.2,0.9-2,0.8c-0.8-0.1-1.8-0.6-2.7-1.4c-1.7-1.5-2.5-2.3-4.1-3.9
				c2.8-2.8,4.2-4.2,6.9-6.9c1.4,1.4,2.1,2.1,3.6,3.4c0.8,0.7,1.3,1.5,1.5,2.3c0.2,0.8,0,1.4-0.5,2c-0.4,0.4-0.8,0.7-1.3,0.8
				c-0.5,0.1-1,0-1.6-0.3C157,280.1,157.3,280.7,157.3,281.3z M154.1,276.2c0.5,0.5,0.8,0.8,1.3,1.3c0.3,0.3,0.7,0.5,1,0.5
				c0.3,0,0.6-0.1,0.8-0.3c0.2-0.3,0.3-0.5,0.2-0.8c-0.1-0.3-0.3-0.6-0.6-0.9c-0.5-0.5-0.8-0.7-1.3-1.2
				C154.9,275.3,154.6,275.6,154.1,276.2z M154,281c0.3,0,0.6-0.1,0.8-0.3c0.2-0.3,0.3-0.6,0.2-0.9c-0.1-0.3-0.3-0.6-0.6-1
				c-0.6-0.6-0.9-0.8-1.5-1.4c-0.6,0.6-0.9,0.9-1.5,1.6c0.6,0.6,0.9,0.9,1.6,1.5C153.3,280.8,153.7,281,154,281z"/>
			<path d="M166.2,281.1c-2.3,3.2-3.4,4.8-5.7,8c-0.9-0.7-1.4-1-2.3-1.7c2.4-3.1,3.6-4.7,6-7.8C165,280.2,165.4,280.5,166.2,281.1z"
				/>
			<path d="M166.5,292.4c-0.6-0.9-0.8-1.8-0.9-2.7c0-0.9,0.2-1.8,0.8-2.6c0.5-0.8,1.2-1.4,2.1-1.7c0.8-0.4,1.7-0.5,2.7-0.4
				c0.9,0.1,1.8,0.4,2.7,0.9c0.9,0.5,1.6,1.1,2.1,1.9c0.5,0.8,0.8,1.6,0.9,2.5c0.1,0.9-0.1,1.8-0.5,2.6c-0.4,0.9-1.1,1.5-1.9,2
				c-0.8,0.4-1.7,0.6-2.7,0.6c-1-0.1-2-0.4-2.9-0.9C167.8,294,167,293.3,166.5,292.4z M172.1,293.1c0.7-0.2,1.3-0.7,1.7-1.4
				c0.4-0.8,0.5-1.5,0.3-2.2c-0.2-0.7-0.7-1.3-1.4-1.7c-0.8-0.4-1.5-0.6-2.2-0.4c-0.7,0.2-1.3,0.6-1.8,1.3c-0.5,0.7-0.6,1.5-0.4,2.2
				c0.2,0.7,0.7,1.3,1.5,1.8C170.6,293.2,171.4,293.3,172.1,293.1z"/>
			<path d="M187.6,293.3c0.6,0.7,1,1.4,1.2,2.3c0.2,0.9,0.1,1.7-0.2,2.7c-0.3,0.9-0.8,1.6-1.5,2.2c-0.7,0.5-1.6,0.8-2.6,0.9
				c-1,0.1-2.1-0.1-3.2-0.6c-1.6-0.7-2.4-1-4-1.8c1.7-3.6,2.5-5.3,4.1-8.9c1.4,0.7,2.2,1,3.6,1.6C186.2,292.1,187,292.7,187.6,293.3
				z M184.6,299c0.7-0.3,1.2-0.8,1.6-1.7c0.3-0.8,0.3-1.6,0-2.3c-0.3-0.7-1-1.2-1.9-1.6c-0.5-0.2-0.7-0.3-1.1-0.5
				c-0.9,2.1-1.4,3.1-2.3,5.2c0.5,0.2,0.7,0.3,1.2,0.5C183,299.2,183.9,299.2,184.6,299z"/>
			<path d="M195.4,297.2c-0.2,0.8-0.3,1.1-0.5,1.9c1.4,0.4,2,0.6,3.4,0.9c-0.2,0.7-0.3,1.1-0.4,1.8c-1.4-0.3-2.1-0.5-3.5-0.9
				c-0.2,0.8-0.3,1.2-0.6,2.1c1.6,0.4,2.4,0.7,4,1c-0.2,0.7-0.3,1.1-0.4,1.9c-2.7-0.6-4.1-1-6.8-1.8c1.2-3.8,1.7-5.6,2.9-9.4
				c2.4,0.7,3.7,1.1,6.2,1.7c-0.2,0.7-0.3,1.1-0.4,1.9C197.7,297.8,196.9,297.7,195.4,297.2z"/>
			<path d="M209.6,301.2c-0.2-0.3-0.4-0.6-0.7-0.8c-0.3-0.2-0.7-0.4-1.2-0.4c-0.8-0.1-1.5,0-2.1,0.5c-0.6,0.4-1,1-1.1,1.9
				c-0.2,0.9,0,1.6,0.5,2.2c0.5,0.6,1.2,1,2.2,1.1c0.7,0.1,1.2,0,1.7-0.2c0.5-0.2,0.9-0.6,1.1-1.2c-1.4-0.2-2-0.2-3.4-0.4
				c0.1-0.7,0.2-1,0.3-1.7c2.3,0.3,3.4,0.5,5.7,0.7c-0.1,0.9-0.1,1.3-0.2,2.2c-0.3,0.6-0.6,1.1-1.2,1.6c-0.5,0.5-1.2,0.8-2,1
				c-0.8,0.2-1.7,0.3-2.6,0.1c-1.1-0.2-2.1-0.5-2.9-1.1c-0.8-0.6-1.4-1.3-1.7-2.1c-0.3-0.8-0.4-1.7-0.2-2.7s0.6-1.8,1.2-2.4
				c0.6-0.7,1.3-1.1,2.2-1.4c0.9-0.3,1.8-0.4,2.8-0.2c1.2,0.2,2.2,0.6,3,1.2c0.8,0.7,1.3,1.5,1.5,2.5
				C211.3,301.4,210.7,301.4,209.6,301.2z"/>
			<path d="M221.5,308.6c-1-1.5-1.4-2.2-2.3-3.7c-0.3,0-0.4,0-0.6,0c0,1.5-0.1,2.2-0.1,3.7c-1.1,0-1.7,0-2.8-0.1
				c0.2-3.9,0.3-5.9,0.5-9.8c1.7,0.1,2.5,0.1,4.2,0.1c0.8,0,1.5,0.1,2.1,0.4c0.6,0.3,1,0.6,1.3,1.1c0.3,0.5,0.5,1,0.5,1.6
				c0,0.7-0.2,1.2-0.6,1.8c-0.4,0.5-1,0.9-1.8,1.1c1,1.5,1.6,2.3,2.7,3.8C223.4,308.6,222.8,308.6,221.5,308.6z M218.6,303.2
				c0.7,0,1,0,1.6,0c0.5,0,0.8-0.1,1.1-0.3c0.2-0.2,0.4-0.5,0.4-0.9c0-0.4-0.1-0.7-0.4-0.9c-0.2-0.2-0.6-0.3-1.1-0.3
				c-0.6,0-1,0-1.6,0C218.6,301.7,218.6,302.2,218.6,303.2z"/>
			<path d="M235.2,305.9c-1.7,0.2-2.5,0.3-4.2,0.5c-0.2,0.7-0.3,1.1-0.5,1.8c-1.2,0.1-1.7,0.2-2.9,0.2c1.4-4,2-6,3.1-10.1
				c1.2-0.1,1.7-0.2,2.9-0.3c2,3.7,3.1,5.5,5.4,9.1c-1.2,0.2-1.7,0.3-2.9,0.5C235.8,306.8,235.6,306.5,235.2,305.9z M234.3,304.1
				c-0.7-1.4-1.1-2-1.8-3.4c-0.3,1.5-0.5,2.2-0.9,3.7C232.7,304.3,233.2,304.3,234.3,304.1z"/>
			<path d="M247.1,295.7c0.9,0.2,1.7,0.5,2.4,1.1c0.7,0.6,1.1,1.3,1.4,2.2c0.3,0.9,0.3,1.8,0.1,2.7c-0.2,0.9-0.7,1.6-1.5,2.3
				c-0.8,0.6-1.7,1.1-2.9,1.4c-1.7,0.4-2.5,0.6-4.2,1c-0.8-3.8-1.2-5.8-2-9.6c1.5-0.3,2.3-0.5,3.8-0.9
				C245.2,295.6,246.2,295.6,247.1,295.7z M248.1,302.1c0.4-0.6,0.5-1.4,0.2-2.2c-0.3-0.9-0.7-1.5-1.4-1.8c-0.7-0.3-1.5-0.4-2.4-0.1
				c-0.5,0.1-0.7,0.2-1.2,0.3c0.5,2.2,0.8,3.3,1.3,5.5c0.5-0.1,0.8-0.2,1.3-0.3C246.9,303.2,247.6,302.7,248.1,302.1z"/>
			<path d="M261.9,298.3c-1.6,0.7-2.3,1-3.9,1.6c0,0.7,0,1.1,0,1.9c-1.1,0.4-1.7,0.6-2.8,1c0.3-4.3,0.3-6.4,0.3-10.6
				c1.1-0.4,1.6-0.7,2.7-1.1c3,3,4.5,4.4,7.7,7.2c-1.1,0.5-1.6,0.8-2.7,1.3C262.7,299.1,262.5,298.8,261.9,298.3z M260.5,296.9
				c-1.1-1.1-1.6-1.7-2.7-2.8c0.1,1.5,0.1,2.3,0.1,3.8C259,297.5,259.5,297.3,260.5,296.9z"/>
			<path d="M274.4,288.8c0.6,0.2,1,0.5,1.3,0.9c0.4,0.7,0.5,1.4,0.2,2.2c-0.3,0.8-1,1.5-2.1,2.1c-1.9,1.1-2.8,1.7-4.8,2.7
				c-1.8-3.5-2.7-5.2-4.6-8.7c1.7-0.9,2.5-1.4,4.2-2.3c0.9-0.6,1.8-0.8,2.5-0.8c0.8,0.1,1.4,0.4,1.8,1.1c0.3,0.5,0.4,1,0.3,1.5
				c-0.1,0.5-0.3,1-0.7,1.4C273.2,288.7,273.8,288.7,274.4,288.8z M268.7,290.3c0.6-0.3,0.9-0.5,1.5-0.9c0.4-0.2,0.6-0.5,0.7-0.7
				c0.1-0.3,0.1-0.5-0.1-0.8c-0.2-0.3-0.4-0.4-0.7-0.5c-0.3,0-0.6,0.1-1,0.3c-0.6,0.4-0.9,0.5-1.5,0.9
				C268.1,289.2,268.3,289.6,268.7,290.3z M273.2,291.9c0.1-0.3,0.1-0.6-0.1-0.9c-0.2-0.3-0.4-0.5-0.8-0.5c-0.3,0-0.7,0.1-1.1,0.3
				c-0.7,0.4-1,0.6-1.7,1c0.4,0.8,0.6,1.1,1.1,1.9c0.7-0.4,1.1-0.6,1.8-1C272.8,292.4,273.1,292.2,273.2,291.9z"/>
			<path d="M281.6,286.7c1.2-0.9,1.8-1.4,3-2.3c0.5,0.6,0.7,0.9,1.2,1.4c-2.1,1.7-3.2,2.5-5.4,4.1c-2.3-3.2-3.4-4.8-5.6-8
				c0.9-0.6,1.3-0.9,2.1-1.5C278.8,282.8,279.7,284.1,281.6,286.7z"/>
			<path d="M285.4,275.6c0.5,0.6,0.8,0.9,1.3,1.5c1.1-1,1.7-1.5,2.7-2.6c0.5,0.5,0.8,0.8,1.3,1.3c-1.1,1.1-1.7,1.6-2.8,2.7
				c0.6,0.6,0.9,1,1.5,1.6c1.3-1.2,1.9-1.8,3.2-3.1c0.5,0.5,0.8,0.8,1.4,1.4c-2.1,2.1-3.2,3.2-5.5,5.1c-2.6-3-3.9-4.5-6.4-7.4
				c2-1.8,3-2.7,5-4.6c0.5,0.5,0.8,0.8,1.4,1.4C287.3,273.9,286.7,274.5,285.4,275.6z"/>
		</g>
	</g>
	<path class="st1" d="M458.5,154.1"/>
	<path class="st2" d="M667,247.9c-16.8,40.4-57.8,67.5-103.9,64.6c-41.4-2.6-75.7-28.8-90.7-64.7"/>
	<path class="st2" d="M473,165.3c17.2-39.5,57.8-66,103.3-63.1c41.2,2.6,75.3,28.5,90.4,64.1"/>
	<path class="st2" d="M472.4,247.9"/>
	<path class="st3" d="M680.5,247.9c-17.4,48.1-64.9,81-118.5,77.6c-48.3-3-87.9-34.7-103.5-77.4"/>
	<path class="st3" d="M459.8,163.9c18.4-46.1,64.9-77.4,117.1-74.1c47.5,3,86.7,33.7,102.8,75.5"/>
	<path class="st3" d="M459.8,163.9"/>
	<path class="st3" d="M455.5,176.8"/>
	<path class="st3" d="M451.6,200.3"/>
	<path class="st3" d="M458.5,248.1"/>
	<path class="st3" d="M679.7,165.3h5.9c23.2,0,42,18.8,42,42v0c0,23.2-18.8,42-42,42h-232c-23.2,0-42-18.8-42-42v0
		c0-23.2,18.8-42,42-42h5.6"/>
	<line class="st3" x1="473" y1="165.3" x2="679.7" y2="165.3"/>
	<line class="st3" x1="459.2" y1="165.3" x2="473" y2="165.3"/>
	<path class="st4" d="M453.2,236.1c-15.6,0-28.2-12.6-28.2-28.2v0c0-15.6,12.6-28.2,28.2-28.2h232.2c15.6,0,28.2,12.6,28.2,28.2v0
		c0,15.6-12.6,28.2-28.2,28.2H453.2"/>
	<polyline class="st5" points="424.8,238.4 424.8,196 712.8,196 712.8,238.4 424.8,238.4 	"/>
	<text transform="matrix(0.9692 0 0 1 439.8112 215.9726)" class="st6 st7 st8 st9">BIODEGRADABLE</text>
	<polygon class="st1" points="569.3,145.1 571.3,149.1 575.6,149.7 572.5,152.7 573.2,157.1 569.3,155 565.5,157.1 566.2,152.7 
		563.1,149.7 567.4,149.1 	"/>
	<polygon class="st1" points="569.6,258 571.6,261.9 575.9,262.5 572.8,265.6 573.5,269.9 569.6,267.9 565.7,269.9 566.5,265.6 
		563.3,262.5 567.7,261.9 	"/>
	<g>
		<g>
			<path d="M507,141.8c0.6,0.1,1.1,0.3,1.4,0.8c0.5,0.6,0.7,1.3,0.5,2.1c-0.2,0.8-0.7,1.5-1.6,2.3c-1.5,1.4-2.3,2.1-3.7,3.6
				c-2.8-2.8-4.2-4.2-6.9-6.9c1.6-1.6,2.4-2.3,4-3.8c0.9-0.8,1.8-1.3,2.6-1.4c0.8-0.1,1.5,0.2,2,0.8c0.4,0.4,0.5,0.9,0.5,1.5
				c0,0.5-0.2,1-0.6,1.5C505.8,141.9,506.4,141.7,507,141.8z M501.5,144.4c0.5-0.5,0.8-0.8,1.4-1.3c0.3-0.3,0.6-0.6,0.6-0.9
				c0.1-0.3,0-0.6-0.2-0.8c-0.2-0.3-0.5-0.4-0.8-0.3c-0.3,0-0.6,0.2-1,0.5c-0.6,0.5-0.8,0.8-1.4,1.3
				C500.7,143.5,501,143.8,501.5,144.4z M506.3,145c0.1-0.3,0-0.6-0.2-0.8c-0.2-0.3-0.5-0.4-0.8-0.3c-0.3,0-0.7,0.2-1,0.5
				c-0.6,0.5-0.9,0.8-1.5,1.4c0.6,0.6,0.9,0.9,1.5,1.6c0.6-0.6,0.9-0.8,1.5-1.4C506,145.6,506.2,145.3,506.3,145z"/>
			<path d="M509.2,132.9c2.3,3.2,3.4,4.8,5.7,8c-0.9,0.6-1.3,0.9-2.1,1.6c-2.4-3.1-3.6-4.7-6-7.8
				C507.8,133.9,508.3,133.6,509.2,132.9z"/>
			<path d="M519.8,136.9c-0.9,0.1-1.8-0.1-2.7-0.4c-0.8-0.4-1.5-0.9-2.1-1.7c-0.5-0.8-0.8-1.7-0.8-2.6c0-0.9,0.3-1.8,0.9-2.7
				c0.6-0.9,1.3-1.6,2.3-2.1c1-0.6,1.9-0.9,3-0.9s1.9,0.1,2.7,0.6c0.8,0.4,1.4,1.1,1.9,2c0.4,0.9,0.6,1.7,0.5,2.7
				c-0.1,0.9-0.4,1.7-0.9,2.5c-0.5,0.8-1.2,1.4-2.1,1.9C521.7,136.6,520.8,136.8,519.8,136.9z M522.9,132.4c0.2-0.7,0.1-1.4-0.3-2.2
				c-0.4-0.8-1-1.2-1.7-1.4c-0.7-0.2-1.5,0-2.3,0.4c-0.8,0.5-1.3,1.1-1.5,1.8c-0.2,0.7-0.1,1.5,0.4,2.2c0.5,0.7,1.1,1.2,1.8,1.3
				c0.7,0.2,1.5,0,2.2-0.4C522.2,133.7,522.7,133.2,522.9,132.4z"/>
			<path d="M533.3,120.6c1,0.1,1.8,0.4,2.6,0.9c0.7,0.5,1.2,1.3,1.5,2.2c0.3,0.9,0.4,1.8,0.2,2.6c-0.2,0.9-0.6,1.6-1.2,2.3
				c-0.6,0.7-1.5,1.2-2.5,1.6c-1.5,0.6-2.2,0.9-3.6,1.6c-1.7-3.6-2.5-5.3-4.1-8.9c1.6-0.7,2.4-1.1,4-1.8
				C531.3,120.8,532.3,120.6,533.3,120.6z M534.8,126.9c0.3-0.7,0.4-1.4,0-2.3c-0.3-0.8-0.8-1.4-1.6-1.7c-0.7-0.3-1.6-0.2-2.5,0.2
				c-0.5,0.2-0.7,0.3-1.2,0.5c0.9,2.1,1.4,3.1,2.3,5.2c0.5-0.2,0.7-0.3,1.1-0.5C533.9,128.1,534.5,127.6,534.8,126.9z"/>
			<path d="M542.5,119c0.2,0.8,0.3,1.1,0.5,1.9c1.4-0.4,2.1-0.6,3.5-0.9c0.2,0.7,0.3,1.1,0.4,1.8c-1.4,0.3-2.1,0.5-3.4,0.9
				c0.2,0.8,0.3,1.2,0.6,2.1c1.5-0.4,2.3-0.6,3.8-1c0.2,0.7,0.3,1.1,0.4,1.9c-2.5,0.6-3.7,0.9-6.2,1.7c-1.2-3.8-1.7-5.6-2.9-9.4
				c2.7-0.8,4.1-1.2,6.8-1.8c0.2,0.7,0.3,1.1,0.4,1.9C545,118.3,544.2,118.5,542.5,119z"/>
			<path d="M557.9,117.2c-0.2-0.3-0.6-0.5-0.9-0.6c-0.4-0.1-0.8-0.2-1.4-0.1c-0.9,0.1-1.5,0.5-2,1.1c-0.4,0.6-0.6,1.3-0.4,2.1
				c0.2,0.9,0.5,1.5,1.1,2c0.6,0.4,1.4,0.6,2.3,0.4c0.6-0.1,1.1-0.3,1.5-0.7c0.4-0.3,0.7-0.8,0.8-1.4c-1.3,0.1-2,0.2-3.3,0.4
				c-0.1-0.7-0.2-1-0.3-1.7c2.3-0.3,3.5-0.5,5.8-0.7c0.1,0.9,0.1,1.3,0.2,2.2c-0.1,0.6-0.4,1.2-0.8,1.7c-0.4,0.6-0.9,1-1.6,1.4
				c-0.7,0.4-1.4,0.6-2.3,0.8c-1,0.1-1.9,0.1-2.8-0.2c-0.9-0.3-1.6-0.7-2.2-1.4c-0.6-0.7-1-1.5-1.2-2.4c-0.2-1-0.1-1.8,0.2-2.7
				c0.3-0.8,0.9-1.5,1.7-2.1c0.8-0.6,1.8-0.9,2.9-1.1c1.4-0.2,2.5,0,3.5,0.4c1,0.5,1.7,1.2,2.1,2.2C559.6,117,559.1,117,557.9,117.2
				z"/>
			<path d="M570.2,123.2c-0.9-1.5-1.3-2.2-2.2-3.7c-0.3,0-0.4,0-0.6,0c0,1.5,0.1,2.2,0.1,3.7c-1,0-1.5,0-2.5,0.1
				c-0.2-3.9-0.3-5.9-0.5-9.8c1.9-0.1,2.8-0.1,4.7-0.1c0.9,0,1.7,0.1,2.3,0.4c0.6,0.3,1.1,0.7,1.4,1.1c0.3,0.5,0.4,1,0.4,1.6
				c0,0.7-0.2,1.2-0.7,1.7c-0.4,0.5-1,0.8-1.8,1.1c1,1.6,1.4,2.4,2.3,3.9C571.9,123.2,571.3,123.2,570.2,123.2z M567.3,117.8
				c0.7,0,1,0,1.7,0c0.5,0,0.9-0.1,1.1-0.3c0.2-0.2,0.4-0.5,0.4-0.9c0-0.4-0.1-0.7-0.4-0.9c-0.2-0.2-0.6-0.3-1.1-0.3
				c-0.7,0-1,0-1.7,0C567.3,116.4,567.3,116.9,567.3,117.8z"/>
			<path d="M583.1,122.4c-1.6-0.2-2.3-0.3-3.9-0.5c-0.3,0.7-0.5,1-0.8,1.7c-1.1-0.1-1.6-0.1-2.6-0.2c1.7-3.8,2.7-5.7,4.8-9.4
				c1.3,0.1,1.9,0.2,3.2,0.4c1.1,4.1,1.6,6.2,2.4,10.3c-1.1-0.2-1.6-0.3-2.6-0.4C583.3,123.5,583.2,123.1,583.1,122.4z M582.7,120.5
				c-0.3-1.5-0.5-2.2-0.9-3.7c-0.7,1.4-1.1,2-1.7,3.4C581.1,120.3,581.6,120.3,582.7,120.5z"/>
			<path d="M598.2,118c0.8,0.6,1.2,1.4,1.5,2.2c0.2,0.9,0.2,1.7-0.1,2.7c-0.3,0.9-0.8,1.7-1.4,2.2c-0.7,0.6-1.4,0.9-2.4,1.1
				c-0.9,0.2-1.9,0.1-2.9-0.2c-1.5-0.4-2.3-0.6-3.8-0.9c0.8-3.8,1.2-5.8,2-9.6c1.7,0.4,2.5,0.5,4.2,1
				C596.5,116.9,597.4,117.4,598.2,118z M595.6,123.9c0.7-0.3,1.1-0.9,1.4-1.8c0.3-0.9,0.2-1.6-0.2-2.3c-0.4-0.6-1.1-1.1-2.1-1.3
				c-0.5-0.1-0.8-0.2-1.3-0.3c-0.5,2.2-0.8,3.3-1.3,5.5c0.5,0.1,0.7,0.2,1.2,0.3C594.2,124.3,595,124.3,595.6,123.9z"/>
			<path d="M608.1,129.5c-1.5-0.6-2.2-1-3.7-1.5c-0.5,0.6-0.7,0.8-1.2,1.4c-1-0.4-1.5-0.6-2.5-0.9c2.7-3.2,4.2-4.8,7.2-7.8
				c1.2,0.5,1.8,0.7,3,1.3c0,4.3-0.1,6.4-0.4,10.6c-1-0.5-1.5-0.7-2.5-1.1C608,130.6,608,130.2,608.1,129.5z M608.2,127.5
				c0.1-1.5,0.1-2.3,0.1-3.8c-1.1,1.1-1.6,1.7-2.6,2.8C606.7,126.9,607.2,127.1,608.2,127.5z"/>
			<path d="M622.3,134.4c0.1,0.6,0,1.1-0.3,1.6c-0.4,0.7-1.1,1.1-1.9,1.1c-0.8,0.1-1.7-0.2-2.6-0.8c-1.7-1-2.6-1.5-4.3-2.4
				c1.8-3.5,2.7-5.2,4.6-8.7c1.9,1,2.8,1.5,4.6,2.6c1,0.6,1.7,1.3,2,2.1c0.3,0.7,0.3,1.5-0.2,2.1c-0.3,0.5-0.7,0.8-1.2,0.9
				c-0.5,0.1-1,0.1-1.6-0.1C621.9,133.3,622.2,133.8,622.3,134.4z M618.3,130c0.6,0.4,0.9,0.5,1.6,0.9c0.4,0.2,0.7,0.3,1,0.3
				c0.3,0,0.5-0.2,0.7-0.5c0.2-0.3,0.2-0.6,0.1-0.8c-0.1-0.3-0.4-0.5-0.8-0.8c-0.6-0.4-1-0.6-1.6-0.9
				C618.9,129,618.7,129.3,618.3,130z M619.1,134.7c0.3,0,0.5-0.2,0.7-0.5c0.2-0.3,0.2-0.6,0.1-0.9c-0.1-0.3-0.4-0.6-0.8-0.8
				c-0.7-0.4-1-0.6-1.7-1c-0.4,0.8-0.6,1.1-1.1,1.9c0.7,0.4,1,0.6,1.7,1C618.5,134.7,618.8,134.8,619.1,134.7z"/>
			<path d="M626.7,140.2c1.1,0.8,1.7,1.3,2.8,2.2c-0.5,0.6-0.7,0.9-1.2,1.4c-1.9-1.5-2.9-2.3-4.9-3.7c2.3-3.2,3.4-4.8,5.6-8
				c0.9,0.7,1.4,1,2.4,1.7C629.5,136.4,628.6,137.7,626.7,140.2z"/>
			<path d="M638.2,141.9c-0.5,0.6-0.8,0.9-1.3,1.5c1.1,1,1.7,1.6,2.8,2.7c-0.5,0.5-0.8,0.8-1.3,1.3c-1.1-1.1-1.6-1.6-2.7-2.6
				c-0.6,0.6-0.9,1-1.5,1.6c1.2,1.1,1.8,1.7,3,2.9c-0.5,0.5-0.8,0.8-1.4,1.4c-1.9-1.9-2.9-2.9-5-4.6c2.6-3,3.9-4.5,6.4-7.4
				c2.2,1.9,3.3,3,5.5,5.1c-0.5,0.5-0.8,0.8-1.4,1.4C640.1,143.7,639.5,143.1,638.2,141.9z"/>
		</g>
	</g>
	<g>
		<g>
			<path d="M506.1,273.9c0,0.6-0.1,1.1-0.5,1.6c-0.5,0.6-1.2,0.9-2,0.8c-0.8-0.1-1.8-0.6-2.7-1.4c-1.7-1.5-2.5-2.3-4.1-3.9
				c2.8-2.8,4.2-4.2,6.9-6.9c1.4,1.4,2.1,2.1,3.6,3.4c0.8,0.7,1.3,1.5,1.5,2.3c0.2,0.8,0,1.4-0.5,2c-0.4,0.4-0.8,0.7-1.3,0.8
				c-0.5,0.1-1,0-1.6-0.3C505.9,272.8,506.1,273.3,506.1,273.9z M502.9,268.8c0.5,0.5,0.8,0.8,1.3,1.3c0.3,0.3,0.7,0.5,1,0.5
				c0.3,0,0.6-0.1,0.8-0.3c0.2-0.3,0.3-0.5,0.2-0.8c-0.1-0.3-0.3-0.6-0.6-0.9c-0.5-0.5-0.8-0.7-1.3-1.2
				C503.7,267.9,503.4,268.2,502.9,268.8z M502.8,273.7c0.3,0,0.6-0.1,0.8-0.3c0.2-0.3,0.3-0.6,0.2-0.9c-0.1-0.3-0.3-0.6-0.6-1
				c-0.6-0.6-0.9-0.8-1.5-1.4c-0.6,0.6-0.9,0.9-1.5,1.6c0.6,0.6,0.9,0.9,1.6,1.5C502.1,273.4,502.5,273.6,502.8,273.7z"/>
			<path d="M515.1,273.8c-2.3,3.2-3.4,4.8-5.7,8c-0.9-0.7-1.4-1-2.3-1.7c2.4-3.1,3.6-4.7,6-7.8C513.8,272.8,514.2,273.1,515.1,273.8
				z"/>
			<path d="M515.3,285.1c-0.6-0.9-0.8-1.8-0.9-2.7c0-0.9,0.2-1.8,0.8-2.6c0.5-0.8,1.2-1.4,2.1-1.7c0.8-0.4,1.7-0.5,2.7-0.4
				c0.9,0.1,1.8,0.4,2.7,0.9c0.9,0.5,1.6,1.1,2.1,1.9c0.5,0.8,0.8,1.6,0.9,2.5c0.1,0.9-0.1,1.8-0.5,2.6c-0.4,0.9-1.1,1.5-1.9,2
				c-0.8,0.4-1.7,0.6-2.7,0.6c-1-0.1-2-0.4-2.9-0.9C516.6,286.7,515.8,285.9,515.3,285.1z M521,285.7c0.7-0.2,1.3-0.7,1.7-1.4
				c0.4-0.8,0.5-1.5,0.3-2.2c-0.2-0.7-0.7-1.3-1.4-1.7c-0.8-0.4-1.5-0.6-2.2-0.4c-0.7,0.2-1.3,0.6-1.8,1.3c-0.5,0.7-0.6,1.5-0.4,2.2
				c0.2,0.7,0.7,1.3,1.5,1.8C519.5,285.8,520.2,285.9,521,285.7z"/>
			<path d="M536.5,286c0.6,0.7,1,1.4,1.2,2.3c0.2,0.9,0.1,1.7-0.2,2.7c-0.3,0.9-0.8,1.6-1.5,2.2c-0.7,0.5-1.6,0.8-2.6,0.9
				c-1,0.1-2.1-0.1-3.2-0.6c-1.6-0.7-2.4-1-4-1.8c1.7-3.6,2.5-5.3,4.1-8.9c1.4,0.7,2.2,1,3.6,1.6C535,284.8,535.8,285.3,536.5,286z
				 M533.4,291.6c0.7-0.3,1.2-0.8,1.6-1.7c0.3-0.8,0.3-1.6,0-2.3c-0.3-0.7-1-1.2-1.9-1.6c-0.5-0.2-0.7-0.3-1.1-0.5
				c-0.9,2.1-1.4,3.1-2.3,5.2c0.5,0.2,0.7,0.3,1.2,0.5C531.8,291.8,532.7,291.9,533.4,291.6z"/>
			<path d="M544.2,289.9c-0.2,0.8-0.3,1.1-0.5,1.9c1.4,0.4,2,0.6,3.4,0.9c-0.2,0.7-0.3,1.1-0.4,1.8c-1.4-0.3-2.1-0.5-3.5-0.9
				c-0.2,0.8-0.3,1.2-0.6,2.1c1.6,0.4,2.4,0.7,4,1c-0.2,0.7-0.3,1.1-0.4,1.9c-2.7-0.6-4.1-1-6.8-1.8c1.2-3.8,1.7-5.6,2.9-9.4
				c2.4,0.7,3.7,1.1,6.2,1.7c-0.2,0.7-0.3,1.1-0.4,1.9C546.5,290.5,545.8,290.3,544.2,289.9z"/>
			<path d="M558.4,293.9c-0.2-0.3-0.4-0.6-0.7-0.8c-0.3-0.2-0.7-0.4-1.2-0.4c-0.8-0.1-1.5,0-2.1,0.5c-0.6,0.4-1,1-1.1,1.9
				c-0.2,0.9,0,1.6,0.5,2.2c0.5,0.6,1.2,1,2.2,1.1c0.7,0.1,1.2,0,1.7-0.2c0.5-0.2,0.9-0.6,1.1-1.2c-1.4-0.2-2-0.2-3.4-0.4
				c0.1-0.7,0.2-1,0.3-1.7c2.3,0.3,3.4,0.5,5.7,0.7c-0.1,0.9-0.1,1.3-0.2,2.2c-0.3,0.6-0.6,1.1-1.2,1.6c-0.5,0.5-1.2,0.8-2,1
				c-0.8,0.2-1.7,0.3-2.6,0.1c-1.1-0.2-2.1-0.5-2.9-1.1c-0.8-0.6-1.4-1.3-1.7-2.1c-0.3-0.8-0.4-1.7-0.2-2.7c0.2-1,0.6-1.8,1.2-2.4
				c0.6-0.7,1.3-1.1,2.2-1.4c0.9-0.3,1.8-0.4,2.8-0.2c1.2,0.2,2.2,0.6,3,1.2c0.8,0.7,1.3,1.5,1.5,2.5
				C560.1,294.1,559.5,294,558.4,293.9z"/>
			<path d="M570.3,301.2c-1-1.5-1.4-2.2-2.3-3.7c-0.3,0-0.4,0-0.6,0c0,1.5-0.1,2.2-0.1,3.7c-1.1,0-1.7,0-2.8-0.1
				c0.2-3.9,0.3-5.9,0.5-9.8c1.7,0.1,2.5,0.1,4.2,0.1c0.8,0,1.5,0.1,2.1,0.4c0.6,0.3,1,0.6,1.3,1.1c0.3,0.5,0.5,1,0.5,1.6
				c0,0.7-0.2,1.2-0.6,1.8c-0.4,0.5-1,0.9-1.8,1.1c1,1.5,1.6,2.3,2.7,3.8C572.2,301.2,571.6,301.2,570.3,301.2z M567.4,295.8
				c0.7,0,1,0,1.6,0c0.5,0,0.8-0.1,1.1-0.3c0.2-0.2,0.4-0.5,0.4-0.9c0-0.4-0.1-0.7-0.4-0.9c-0.2-0.2-0.6-0.3-1.1-0.3
				c-0.6,0-1,0-1.6,0C567.5,294.4,567.4,294.8,567.4,295.8z"/>
			<path d="M584.1,298.5c-1.7,0.2-2.5,0.3-4.2,0.5c-0.2,0.7-0.3,1.1-0.5,1.8c-1.2,0.1-1.7,0.2-2.9,0.2c1.4-4,2-6,3.1-10.1
				c1.2-0.1,1.7-0.2,2.9-0.3c2,3.7,3.1,5.5,5.4,9.1c-1.2,0.2-1.7,0.3-2.9,0.5C584.6,299.5,584.4,299.2,584.1,298.5z M583.1,296.8
				c-0.7-1.4-1.1-2-1.8-3.4c-0.3,1.5-0.5,2.2-0.9,3.7C581.5,297,582,296.9,583.1,296.8z"/>
			<path d="M595.9,288.4c0.9,0.2,1.7,0.5,2.4,1.1c0.7,0.6,1.1,1.3,1.4,2.2c0.3,0.9,0.3,1.8,0.1,2.7c-0.2,0.9-0.7,1.6-1.5,2.3
				c-0.8,0.6-1.7,1.1-2.9,1.4c-1.7,0.4-2.5,0.6-4.2,1c-0.8-3.8-1.2-5.8-2-9.6c1.5-0.3,2.3-0.5,3.8-0.9
				C594,288.3,595,288.2,595.9,288.4z M596.9,294.7c0.4-0.6,0.5-1.4,0.2-2.2c-0.3-0.9-0.7-1.5-1.4-1.8c-0.7-0.3-1.5-0.4-2.4-0.1
				c-0.5,0.1-0.7,0.2-1.2,0.3c0.5,2.2,0.8,3.3,1.3,5.5c0.5-0.1,0.8-0.2,1.3-0.3C595.7,295.8,596.5,295.4,596.9,294.7z"/>
			<path d="M610.7,290.9c-1.6,0.7-2.3,1-3.9,1.6c0,0.7,0,1.1,0,1.9c-1.1,0.4-1.7,0.6-2.8,1c0.3-4.3,0.3-6.4,0.3-10.6
				c1.1-0.4,1.6-0.7,2.7-1.1c3,3,4.5,4.4,7.7,7.2c-1.1,0.5-1.6,0.8-2.7,1.3C611.5,291.7,611.3,291.4,610.7,290.9z M609.4,289.5
				c-1.1-1.1-1.6-1.7-2.7-2.8c0.1,1.5,0.1,2.3,0.1,3.8C607.8,290.2,608.3,290,609.4,289.5z"/>
			<path d="M623.2,281.5c0.6,0.2,1,0.5,1.3,0.9c0.4,0.7,0.5,1.4,0.2,2.2c-0.3,0.8-1,1.5-2.1,2.1c-1.9,1.1-2.8,1.7-4.8,2.7
				c-1.8-3.5-2.7-5.2-4.6-8.7c1.7-0.9,2.5-1.4,4.2-2.3c0.9-0.6,1.8-0.8,2.5-0.8c0.8,0.1,1.4,0.4,1.8,1.1c0.3,0.5,0.4,1,0.3,1.5
				c-0.1,0.5-0.3,1-0.7,1.4C622,281.4,622.6,281.3,623.2,281.5z M617.5,282.9c0.6-0.3,0.9-0.5,1.5-0.9c0.4-0.2,0.6-0.5,0.7-0.7
				c0.1-0.3,0.1-0.5-0.1-0.8c-0.2-0.3-0.4-0.4-0.7-0.5c-0.3,0-0.6,0.1-1,0.3c-0.6,0.4-0.9,0.5-1.5,0.9
				C616.9,281.9,617.1,282.2,617.5,282.9z M622,284.5c0.1-0.3,0.1-0.6-0.1-0.9c-0.2-0.3-0.4-0.5-0.8-0.5c-0.3,0-0.7,0.1-1.1,0.3
				c-0.7,0.4-1,0.6-1.7,1c0.4,0.8,0.6,1.1,1.1,1.9c0.7-0.4,1.1-0.6,1.8-1C621.6,285.1,621.9,284.8,622,284.5z"/>
			<path d="M630.4,279.3c1.2-0.9,1.8-1.4,3-2.3c0.5,0.6,0.7,0.9,1.2,1.4c-2.1,1.7-3.2,2.5-5.4,4.1c-2.3-3.2-3.4-4.8-5.6-8
				c0.9-0.6,1.3-0.9,2.1-1.5C627.6,275.5,628.5,276.7,630.4,279.3z"/>
			<path d="M634.3,268.3c0.5,0.6,0.8,0.9,1.3,1.5c1.1-1,1.7-1.5,2.7-2.6c0.5,0.5,0.8,0.8,1.3,1.3c-1.1,1.1-1.7,1.6-2.8,2.7
				c0.6,0.6,0.9,1,1.5,1.6c1.3-1.2,1.9-1.8,3.2-3.1c0.5,0.5,0.8,0.8,1.4,1.4c-2.1,2.1-3.2,3.2-5.5,5.1c-2.6-3-3.9-4.5-6.4-7.4
				c2-1.8,3-2.7,5-4.6c0.5,0.5,0.8,0.8,1.4,1.4C636.1,266.6,635.5,267.2,634.3,268.3z"/>
		</g>
	</g>
	<path class="st1" d="M115.5,457.1"/>
	<path class="st10" d="M324,550.9c-16.8,40.4-57.8,67.5-103.9,64.6c-41.4-2.6-75.7-28.8-90.7-64.7"/>
	<path class="st10" d="M130,468.3c17.2-39.5,57.8-66,103.3-63.1c41.2,2.6,75.3,28.5,90.4,64.1"/>
	<path class="st2" d="M129.4,550.9"/>
	<path class="st10" d="M337.5,550.9c-17.4,48.1-64.9,81-118.5,77.6c-48.3-3-87.9-34.7-103.5-77.4"/>
	<path class="st10" d="M116.8,466.9c18.4-46.1,64.9-77.4,117.1-74.1c47.5,3,86.7,33.7,102.8,75.5"/>
	<path class="st3" d="M116.8,466.9"/>
	<path class="st3" d="M112.5,479.8"/>
	<path class="st3" d="M108.6,503.3"/>
	<path class="st3" d="M115.5,551.1"/>
	<path class="st10" d="M336.7,468.3h5.9c23.2,0,42,18.8,42,42v0c0,23.2-18.8,42-42,42h-232c-23.2,0-42-18.8-42-42v0
		c0-23.2,18.8-42,42-42h5.6"/>
	<line class="st10" x1="130" y1="468.3" x2="336.7" y2="468.3"/>
	<line class="st10" x1="116.2" y1="468.3" x2="130" y2="468.3"/>
	<path class="st11" d="M110.2,539.1c-15.6,0-28.2-12.6-28.2-28.2v0c0-15.6,12.6-28.2,28.2-28.2h232.2c15.6,0,28.2,12.6,28.2,28.2v0
		c0,15.6-12.6,28.2-28.2,28.2H110.2"/>
	<polyline class="st5" points="81.8,541.4 81.8,499 369.8,499 369.8,541.4 81.8,541.4 	"/>
	<text transform="matrix(0.9692 0 0 1 96.8112 518.9727)" class="st6 st7 st8 st9">BIODEGRADABLE</text>
	<polygon class="st12" points="226.3,448.1 228.3,452.1 232.6,452.7 229.5,455.7 230.2,460.1 226.3,458 222.5,460.1 223.2,455.7 
		220.1,452.7 224.4,452.1 	"/>
	<polygon class="st12" points="226.6,561 228.6,564.9 232.9,565.5 229.8,568.6 230.5,572.9 226.6,570.9 222.7,572.9 223.5,568.6 
		220.3,565.5 224.7,564.9 	"/>
	<g>
		<g>
			<path class="st6" d="M164,448.1c0.6,0.1,1.1,0.4,1.4,0.9c0.5,0.7,0.7,1.5,0.5,2.4c-0.2,0.9-0.7,1.7-1.6,2.6
				c-1.5,1.5-2.3,2.3-3.7,4c-2.8-3.1-4.2-4.6-6.9-7.7c1.6-1.8,2.4-2.6,4-4.2c0.9-0.9,1.8-1.4,2.6-1.5c0.8-0.1,1.5,0.2,2,0.8
				c0.4,0.5,0.5,1,0.5,1.6c0,0.6-0.2,1.2-0.6,1.7C162.8,448.2,163.4,448,164,448.1z M158.5,451.1c0.5-0.6,0.8-0.9,1.4-1.4
				c0.3-0.4,0.6-0.7,0.6-1c0.1-0.3,0-0.6-0.2-0.9c-0.2-0.3-0.5-0.4-0.8-0.4c-0.3,0-0.6,0.2-1,0.6c-0.6,0.6-0.8,0.9-1.4,1.5
				C157.7,450.1,158,450.4,158.5,451.1z M163.3,451.7c0.1-0.3,0-0.7-0.2-0.9c-0.2-0.3-0.5-0.4-0.8-0.4c-0.3,0-0.7,0.2-1,0.6
				c-0.6,0.6-0.9,0.9-1.5,1.5c0.6,0.7,0.9,1.1,1.5,1.8c0.6-0.6,0.9-0.9,1.5-1.5C163,452.4,163.2,452,163.3,451.7z"/>
			<path class="st6" d="M166.2,438.2c2.3,3.6,3.4,5.3,5.7,8.9c-0.9,0.7-1.3,1-2.1,1.8c-2.4-3.5-3.6-5.2-6-8.7
				C164.8,439.3,165.3,438.9,166.2,438.2z"/>
			<path class="st6" d="M176.8,442.7c-0.9,0.1-1.8-0.1-2.7-0.5c-0.8-0.4-1.5-1-2.1-1.9c-0.5-0.9-0.8-1.9-0.8-2.9c0-1,0.3-2,0.9-3
				c0.6-1,1.3-1.8,2.3-2.4s1.9-1,3-1c1-0.1,1.9,0.1,2.7,0.6c0.8,0.5,1.4,1.2,1.9,2.2c0.4,1,0.6,1.9,0.5,3c-0.1,1-0.4,2-0.9,2.8
				c-0.5,0.9-1.2,1.6-2.1,2.1C178.7,442.3,177.8,442.6,176.8,442.7z M179.9,437.7c0.2-0.8,0.1-1.6-0.3-2.5c-0.4-0.8-1-1.4-1.7-1.6
				c-0.7-0.2-1.5-0.1-2.3,0.5c-0.8,0.5-1.3,1.2-1.5,2c-0.2,0.8-0.1,1.6,0.4,2.5c0.5,0.8,1.1,1.3,1.8,1.5c0.7,0.2,1.5,0,2.2-0.5
				C179.2,439.1,179.7,438.5,179.9,437.7z"/>
			<path class="st6" d="M190.3,424.5c1,0.1,1.8,0.4,2.6,1c0.7,0.6,1.2,1.4,1.5,2.4c0.3,1,0.4,2,0.2,3c-0.2,1-0.6,1.8-1.2,2.6
				c-0.6,0.8-1.5,1.4-2.5,1.8c-1.5,0.7-2.2,1-3.6,1.8c-1.7-4-2.5-6-4.1-9.9c1.6-0.8,2.4-1.2,4-2
				C188.3,424.6,189.3,424.4,190.3,424.5z M191.8,431.5c0.3-0.7,0.4-1.6,0-2.5c-0.3-0.9-0.8-1.6-1.6-1.9c-0.7-0.3-1.6-0.2-2.5,0.2
				c-0.5,0.2-0.7,0.3-1.2,0.6c0.9,2.3,1.4,3.5,2.3,5.8c0.5-0.2,0.7-0.3,1.1-0.5C190.9,432.8,191.5,432.2,191.8,431.5z"/>
			<path class="st6" d="M199.5,422.6c0.2,0.9,0.3,1.3,0.5,2.1c1.4-0.4,2.1-0.6,3.5-1c0.2,0.8,0.3,1.2,0.4,2c-1.4,0.4-2.1,0.6-3.4,1
				c0.2,0.9,0.3,1.4,0.6,2.3c1.5-0.5,2.3-0.7,3.8-1.1c0.2,0.8,0.3,1.2,0.4,2.1c-2.5,0.6-3.7,1-6.2,1.9c-1.2-4.2-1.7-6.3-2.9-10.5
				c2.7-0.9,4.1-1.3,6.8-2c0.2,0.8,0.3,1.2,0.4,2.1C202,421.9,201.2,422.1,199.5,422.6z"/>
			<path class="st6" d="M214.9,420.6c-0.2-0.3-0.6-0.6-0.9-0.7s-0.8-0.2-1.4-0.1c-0.9,0.1-1.5,0.5-2,1.2c-0.4,0.7-0.6,1.5-0.4,2.4
				c0.2,1,0.5,1.7,1.1,2.2c0.6,0.5,1.4,0.6,2.3,0.5c0.6-0.1,1.1-0.3,1.5-0.7c0.4-0.4,0.7-0.9,0.8-1.6c-1.3,0.2-2,0.3-3.3,0.5
				c-0.1-0.8-0.2-1.2-0.3-1.9c2.3-0.4,3.5-0.5,5.8-0.7c0.1,1,0.1,1.5,0.2,2.5c-0.1,0.7-0.4,1.3-0.8,1.9c-0.4,0.6-0.9,1.1-1.6,1.6
				c-0.7,0.4-1.4,0.7-2.3,0.9c-1,0.2-1.9,0.1-2.8-0.2c-0.9-0.3-1.6-0.8-2.2-1.6c-0.6-0.7-1-1.6-1.2-2.7c-0.2-1.1-0.1-2.1,0.2-3
				c0.3-0.9,0.9-1.7,1.7-2.4s1.8-1,2.9-1.2c1.4-0.2,2.5,0,3.5,0.5c1,0.5,1.7,1.3,2.1,2.4C216.6,420.4,216.1,420.5,214.9,420.6z"/>
			<path class="st6" d="M227.2,427.4c-0.9-1.7-1.3-2.5-2.2-4.1c-0.3,0-0.4,0-0.6,0c0,1.7,0.1,2.5,0.1,4.1c-1,0-1.5,0-2.5,0.1
				c-0.2-4.4-0.3-6.6-0.5-10.9c1.9-0.1,2.8-0.1,4.7-0.1c0.9,0,1.7,0.2,2.3,0.5c0.6,0.3,1.1,0.7,1.4,1.3c0.3,0.5,0.4,1.1,0.4,1.8
				c0,0.7-0.3,1.4-0.7,1.9c-0.4,0.6-1,0.9-1.8,1.2c1,1.7,1.4,2.6,2.3,4.4C228.9,427.4,228.3,427.4,227.2,427.4z M224.3,421.4
				c0.7,0,1,0,1.7,0c0.5,0,0.9-0.1,1.1-0.4s0.4-0.6,0.4-1c0-0.4-0.1-0.7-0.4-1c-0.2-0.2-0.6-0.4-1.1-0.4c-0.7,0-1,0-1.7,0
				C224.3,419.7,224.3,420.3,224.3,421.4z"/>
			<path class="st6" d="M240.1,426.5c-1.6-0.2-2.3-0.4-3.9-0.5c-0.3,0.7-0.5,1.1-0.8,1.9c-1.1-0.1-1.6-0.2-2.6-0.2
				c1.7-4.3,2.7-6.4,4.8-10.5c1.3,0.1,1.9,0.2,3.2,0.4c1.1,4.6,1.6,6.9,2.4,11.5c-1.1-0.2-1.6-0.3-2.6-0.5
				C240.3,427.7,240.2,427.3,240.1,426.5z M239.7,424.3c-0.3-1.7-0.5-2.5-0.9-4.2c-0.7,1.5-1.1,2.3-1.7,3.8
				C238.1,424.1,238.6,424.2,239.7,424.3z"/>
			<path class="st6" d="M255.2,421.6c0.8,0.7,1.3,1.6,1.5,2.5c0.2,1,0.2,1.9-0.1,3c-0.3,1-0.8,1.8-1.4,2.5c-0.7,0.6-1.4,1-2.4,1.2
				c-0.9,0.2-1.9,0.1-2.9-0.2c-1.5-0.4-2.3-0.6-3.8-1c0.8-4.3,1.2-6.4,2-10.7c1.7,0.4,2.5,0.6,4.2,1.1
				C253.5,420.3,254.4,420.8,255.2,421.6z M252.6,428.2c0.7-0.4,1.1-1,1.4-2c0.3-1,0.2-1.8-0.2-2.5c-0.4-0.7-1.1-1.2-2.1-1.5
				c-0.5-0.1-0.8-0.2-1.3-0.3c-0.5,2.5-0.8,3.7-1.3,6.2c0.5,0.1,0.7,0.2,1.2,0.3C251.2,428.6,252,428.5,252.6,428.2z"/>
			<path class="st6" d="M265.1,434.4c-1.5-0.7-2.2-1.1-3.7-1.7c-0.5,0.6-0.7,0.9-1.2,1.6c-1-0.4-1.5-0.6-2.5-1
				c2.7-3.6,4.2-5.3,7.2-8.7c1.2,0.5,1.8,0.8,3,1.4c0,4.8-0.1,7.1-0.4,11.8c-1-0.5-1.5-0.8-2.5-1.3C265,435.6,265,435.2,265.1,434.4
				z M265.2,432.2c0.1-1.7,0.1-2.6,0.1-4.3c-1.1,1.2-1.6,1.9-2.6,3.1C263.7,431.5,264.2,431.7,265.2,432.2z"/>
			<path class="st6" d="M279.3,439.8c0.1,0.7,0,1.2-0.3,1.8c-0.4,0.8-1.1,1.2-1.9,1.3s-1.7-0.2-2.6-0.8c-1.7-1.1-2.6-1.7-4.3-2.7
				c1.8-3.9,2.7-5.8,4.6-9.7c1.9,1.1,2.8,1.7,4.6,2.9c1,0.7,1.7,1.5,2,2.3c0.3,0.8,0.3,1.6-0.2,2.4c-0.3,0.5-0.7,0.9-1.2,1
				s-1,0.1-1.6-0.1C278.9,438.6,279.2,439.2,279.3,439.8z M275.3,435c0.6,0.4,0.9,0.6,1.6,1c0.4,0.3,0.7,0.4,1,0.3
				c0.3,0,0.5-0.2,0.7-0.5s0.2-0.6,0.1-0.9s-0.4-0.6-0.8-0.9c-0.6-0.4-1-0.6-1.6-1C275.9,433.8,275.7,434.2,275.3,435z M276.1,440.2
				c0.3,0,0.5-0.2,0.7-0.5c0.2-0.3,0.2-0.7,0.1-1c-0.1-0.3-0.4-0.6-0.8-0.9c-0.7-0.4-1-0.7-1.7-1.1c-0.4,0.8-0.6,1.3-1.1,2.1
				c0.7,0.4,1,0.6,1.7,1.1C275.5,440.1,275.8,440.3,276.1,440.2z"/>
			<path class="st6" d="M283.7,446.4c1.1,0.9,1.7,1.4,2.8,2.4c-0.5,0.6-0.7,1-1.2,1.6c-1.9-1.7-2.9-2.5-4.9-4.1
				c2.3-3.6,3.4-5.4,5.6-9c0.9,0.7,1.4,1.1,2.4,1.9C286.5,442.1,285.6,443.5,283.7,446.4z"/>
			<path class="st6" d="M295.2,448.3c-0.5,0.7-0.8,1-1.3,1.6c1.1,1.2,1.7,1.7,2.8,3c-0.5,0.6-0.8,0.9-1.3,1.5
				c-1.1-1.2-1.6-1.8-2.7-2.9c-0.6,0.7-0.9,1.1-1.5,1.8c1.2,1.3,1.8,1.9,3,3.2c-0.5,0.6-0.8,0.9-1.4,1.5c-1.9-2.2-2.9-3.2-5-5.2
				c2.6-3.3,3.9-5,6.4-8.3c2.2,2.2,3.3,3.3,5.5,5.7c-0.5,0.6-0.8,0.9-1.4,1.5C297.1,450.3,296.5,449.6,295.2,448.3z"/>
		</g>
	</g>
	<g>
		<g>
			<path class="st6" d="M163.1,576.9c0,0.6-0.1,1.1-0.5,1.6c-0.5,0.6-1.2,0.9-2,0.8c-0.8-0.1-1.8-0.6-2.7-1.4
				c-1.7-1.5-2.5-2.3-4.1-3.9c2.8-2.8,4.2-4.2,6.9-6.9c1.4,1.4,2.1,2.1,3.6,3.4c0.8,0.7,1.3,1.5,1.5,2.3c0.2,0.8,0,1.4-0.5,2
				c-0.4,0.4-0.8,0.7-1.3,0.8c-0.5,0.1-1,0-1.6-0.3C162.9,575.8,163.1,576.3,163.1,576.9z M159.9,571.8c0.5,0.5,0.8,0.8,1.3,1.3
				c0.3,0.3,0.7,0.5,1,0.5c0.3,0,0.6-0.1,0.8-0.3c0.2-0.3,0.3-0.5,0.2-0.8c-0.1-0.3-0.3-0.6-0.6-0.9c-0.5-0.5-0.8-0.7-1.3-1.2
				C160.7,570.9,160.4,571.2,159.9,571.8z M159.8,576.7c0.3,0,0.6-0.1,0.8-0.3c0.2-0.3,0.3-0.6,0.2-0.9c-0.1-0.3-0.3-0.6-0.6-1
				c-0.6-0.6-0.9-0.8-1.5-1.4c-0.6,0.6-0.9,0.9-1.5,1.6c0.6,0.6,0.9,0.9,1.6,1.5C159.1,576.4,159.5,576.6,159.8,576.7z"/>
			<path class="st6" d="M172.1,576.8c-2.3,3.2-3.4,4.8-5.7,8c-0.9-0.7-1.4-1-2.3-1.7c2.4-3.1,3.6-4.7,6-7.8
				C170.8,575.8,171.2,576.1,172.1,576.8z"/>
			<path class="st6" d="M172.3,588.1c-0.6-0.9-0.8-1.8-0.9-2.7c0-0.9,0.2-1.8,0.8-2.6c0.5-0.8,1.2-1.4,2.1-1.7
				c0.8-0.4,1.7-0.5,2.7-0.4c0.9,0.1,1.8,0.4,2.7,0.9c0.9,0.5,1.6,1.1,2.1,1.9c0.5,0.8,0.8,1.6,0.9,2.5c0.1,0.9-0.1,1.8-0.5,2.6
				s-1.1,1.5-1.9,2s-1.7,0.6-2.7,0.6c-1-0.1-2-0.4-2.9-0.9C173.6,589.7,172.8,588.9,172.3,588.1z M178,588.7
				c0.7-0.2,1.3-0.7,1.7-1.4c0.4-0.8,0.5-1.5,0.3-2.2c-0.2-0.7-0.7-1.3-1.4-1.7c-0.8-0.4-1.5-0.6-2.2-0.4c-0.7,0.2-1.3,0.6-1.8,1.3
				c-0.5,0.7-0.6,1.5-0.4,2.2c0.2,0.7,0.7,1.3,1.5,1.8C176.5,588.8,177.2,588.9,178,588.7z"/>
			<path class="st6" d="M193.5,589c0.6,0.7,1,1.4,1.2,2.3c0.2,0.9,0.1,1.7-0.2,2.7c-0.3,0.9-0.8,1.6-1.5,2.2
				c-0.7,0.5-1.6,0.8-2.6,0.9c-1,0.1-2.1-0.1-3.2-0.6c-1.6-0.7-2.4-1-4-1.8c1.7-3.6,2.5-5.3,4.1-8.9c1.4,0.7,2.2,1,3.6,1.6
				C192,587.8,192.8,588.3,193.5,589z M190.4,594.6c0.7-0.3,1.2-0.8,1.6-1.7c0.3-0.8,0.3-1.6,0-2.3c-0.3-0.7-1-1.2-1.9-1.6
				c-0.5-0.2-0.7-0.3-1.1-0.5c-0.9,2.1-1.4,3.1-2.3,5.2c0.5,0.2,0.7,0.3,1.2,0.5C188.8,594.8,189.7,594.9,190.4,594.6z"/>
			<path class="st6" d="M201.2,592.9c-0.2,0.8-0.3,1.1-0.5,1.9c1.4,0.4,2,0.6,3.4,0.9c-0.2,0.7-0.3,1.1-0.4,1.8
				c-1.4-0.3-2.1-0.5-3.5-0.9c-0.2,0.8-0.3,1.2-0.6,2.1c1.6,0.4,2.4,0.7,4,1c-0.2,0.7-0.3,1.1-0.4,1.9c-2.7-0.6-4.1-1-6.8-1.8
				c1.2-3.8,1.7-5.6,2.9-9.4c2.4,0.7,3.7,1.1,6.2,1.7c-0.2,0.7-0.3,1.1-0.4,1.9C203.5,593.5,202.8,593.3,201.2,592.9z"/>
			<path class="st6" d="M215.4,596.9c-0.2-0.3-0.4-0.6-0.7-0.8c-0.3-0.2-0.7-0.4-1.2-0.4c-0.8-0.1-1.5,0-2.1,0.5
				c-0.6,0.4-0.9,1-1.1,1.9c-0.2,0.9,0,1.6,0.5,2.2c0.5,0.6,1.2,1,2.2,1.1c0.7,0.1,1.2,0,1.7-0.2c0.5-0.2,0.9-0.6,1.1-1.2
				c-1.4-0.2-2-0.2-3.4-0.4c0.1-0.7,0.2-1,0.3-1.7c2.3,0.3,3.4,0.5,5.7,0.7c-0.1,0.9-0.1,1.3-0.2,2.2c-0.3,0.6-0.6,1.1-1.2,1.6
				c-0.5,0.5-1.2,0.8-2,1c-0.8,0.2-1.7,0.3-2.6,0.1c-1.1-0.2-2.1-0.5-2.9-1.1c-0.8-0.6-1.4-1.3-1.7-2.1c-0.3-0.8-0.4-1.7-0.2-2.7
				c0.2-1,0.6-1.8,1.2-2.4c0.6-0.7,1.3-1.1,2.2-1.4c0.9-0.3,1.8-0.4,2.8-0.2c1.2,0.2,2.2,0.6,3,1.2c0.8,0.7,1.3,1.5,1.5,2.5
				C217.1,597.1,216.5,597,215.4,596.9z"/>
			<path class="st6" d="M227.3,604.2c-1-1.5-1.4-2.2-2.3-3.7c-0.3,0-0.4,0-0.6,0c0,1.5-0.1,2.2-0.1,3.7c-1.1,0-1.7,0-2.8-0.1
				c0.2-3.9,0.3-5.9,0.5-9.8c1.7,0.1,2.5,0.1,4.2,0.1c0.8,0,1.5,0.1,2.1,0.4c0.6,0.3,1,0.6,1.3,1.1c0.3,0.5,0.5,1,0.5,1.6
				c0,0.7-0.2,1.2-0.6,1.8c-0.4,0.5-1,0.9-1.8,1.1c1,1.5,1.6,2.3,2.7,3.8C229.2,604.2,228.6,604.2,227.3,604.2z M224.4,598.8
				c0.7,0,1,0,1.6,0c0.5,0,0.8-0.1,1.1-0.3c0.2-0.2,0.4-0.5,0.4-0.9c0-0.4-0.1-0.7-0.4-0.9c-0.2-0.2-0.6-0.3-1.1-0.3
				c-0.6,0-1,0-1.6,0C224.5,597.4,224.4,597.8,224.4,598.8z"/>
			<path class="st6" d="M241.1,601.5c-1.7,0.2-2.5,0.3-4.2,0.5c-0.2,0.7-0.3,1.1-0.5,1.8c-1.2,0.1-1.7,0.2-2.9,0.2
				c1.4-4,2-6,3.1-10.1c1.2-0.1,1.7-0.2,2.9-0.3c2,3.7,3.1,5.5,5.4,9.1c-1.2,0.2-1.7,0.3-2.9,0.5
				C241.6,602.5,241.4,602.2,241.1,601.5z M240.1,599.8c-0.7-1.4-1.1-2-1.8-3.4c-0.3,1.5-0.5,2.2-0.9,3.7
				C238.5,600,239,599.9,240.1,599.8z"/>
			<path class="st6" d="M252.9,591.4c0.9,0.2,1.7,0.5,2.4,1.1c0.7,0.6,1.1,1.3,1.4,2.2c0.3,0.9,0.3,1.8,0.1,2.7
				c-0.2,0.9-0.7,1.6-1.5,2.3c-0.8,0.6-1.7,1.1-2.9,1.4c-1.7,0.4-2.5,0.6-4.2,1c-0.8-3.8-1.2-5.8-2-9.6c1.5-0.3,2.3-0.5,3.8-0.9
				C251,591.3,252,591.2,252.9,591.4z M253.9,597.7c0.4-0.6,0.5-1.4,0.2-2.2c-0.3-0.9-0.7-1.5-1.4-1.8c-0.7-0.3-1.5-0.4-2.4-0.1
				c-0.5,0.1-0.7,0.2-1.2,0.3c0.5,2.2,0.8,3.3,1.3,5.5c0.5-0.1,0.8-0.2,1.3-0.3C252.7,598.8,253.5,598.4,253.9,597.7z"/>
			<path class="st6" d="M267.7,593.9c-1.6,0.7-2.3,1-3.9,1.6c0,0.7,0,1.1,0,1.9c-1.1,0.4-1.7,0.6-2.8,1c0.3-4.3,0.3-6.4,0.3-10.6
				c1.1-0.4,1.6-0.7,2.7-1.1c3,3,4.5,4.4,7.7,7.2c-1.1,0.5-1.6,0.8-2.7,1.3C268.5,594.7,268.3,594.4,267.7,593.9z M266.4,592.5
				c-1.1-1.1-1.6-1.7-2.7-2.8c0.1,1.5,0.1,2.3,0.1,3.8C264.8,593.2,265.3,593,266.4,592.5z"/>
			<path class="st6" d="M280.2,584.5c0.6,0.2,1,0.5,1.3,0.9c0.4,0.7,0.5,1.4,0.2,2.2c-0.3,0.8-1,1.5-2.1,2.1
				c-1.9,1.1-2.8,1.7-4.8,2.7c-1.8-3.5-2.7-5.2-4.6-8.7c1.7-0.9,2.5-1.4,4.2-2.3c0.9-0.6,1.8-0.8,2.5-0.8c0.8,0.1,1.4,0.4,1.8,1.1
				c0.3,0.5,0.4,1,0.3,1.5c-0.1,0.5-0.3,1-0.7,1.4C279,584.4,279.6,584.3,280.2,584.5z M274.5,585.9c0.6-0.3,0.9-0.5,1.5-0.9
				c0.4-0.2,0.6-0.5,0.7-0.7c0.1-0.3,0.1-0.5-0.1-0.8c-0.2-0.3-0.4-0.4-0.7-0.5c-0.3,0-0.6,0.1-1,0.3c-0.6,0.4-0.9,0.5-1.5,0.9
				C273.9,584.9,274.1,585.2,274.5,585.9z M279,587.5c0.1-0.3,0.1-0.6-0.1-0.9s-0.4-0.5-0.8-0.5c-0.3,0-0.7,0.1-1.1,0.3
				c-0.7,0.4-1,0.6-1.7,1c0.4,0.8,0.6,1.1,1.1,1.9c0.7-0.4,1.1-0.6,1.8-1C278.6,588.1,278.9,587.8,279,587.5z"/>
			<path class="st6" d="M287.4,582.3c1.2-0.9,1.8-1.4,3-2.3c0.5,0.6,0.7,0.9,1.2,1.4c-2.1,1.7-3.2,2.5-5.4,4.1
				c-2.3-3.2-3.4-4.8-5.6-8c0.9-0.6,1.3-0.9,2.1-1.5C284.6,578.5,285.5,579.7,287.4,582.3z"/>
			<path class="st6" d="M291.3,571.3c0.5,0.6,0.8,0.9,1.3,1.5c1.1-1,1.7-1.5,2.7-2.6c0.5,0.5,0.8,0.8,1.3,1.3
				c-1.1,1.1-1.7,1.6-2.8,2.7c0.6,0.6,0.9,1,1.5,1.6c1.3-1.2,1.9-1.8,3.2-3.1c0.5,0.5,0.8,0.8,1.4,1.4c-2.1,2.1-3.2,3.2-5.5,5.1
				c-2.6-3-3.9-4.5-6.4-7.4c2-1.8,3-2.7,5-4.6c0.5,0.5,0.8,0.8,1.4,1.4C293.1,569.6,292.5,570.2,291.3,571.3z"/>
		</g>
	</g>
	<path class="st13" d="M394.4,593.6"/>
	<path class="st14" d="M451.4,619.3c-4.6,11-15.8,18.5-28.4,17.7c-11.3-0.7-20.7-7.9-24.8-17.7"/>
	<path class="st14" d="M398.4,596.7c4.7-10.8,15.8-18,28.3-17.3c11.3,0.7,20.6,7.8,24.7,17.5"/>
	<path class="st15" d="M398.2,619.3"/>
	<path class="st14" d="M455.1,619.3c-4.8,13.2-17.8,22.2-32.4,21.2c-13.2-0.8-24.1-9.5-28.3-21.2"/>
	<path class="st14" d="M394.7,596.3c5-12.6,17.7-21.2,32-20.3c13,0.8,23.7,9.2,28.1,20.6"/>
	<path class="st16" d="M394.7,596.3"/>
	<path class="st16" d="M393.6,599.9"/>
	<path class="st16" d="M392.5,606.3"/>
	<path class="st16" d="M394.4,619.4"/>
	<path class="st14" d="M454.9,596.7h1.6c6.3,0,11.5,5.1,11.5,11.5v0c0,6.3-5.1,11.5-11.5,11.5h-63.5c-6.3,0-11.5-5.1-11.5-11.5v0
		c0-6.3,5.1-11.5,11.5-11.5h1.5"/>
	<line class="st14" x1="398.4" y1="596.7" x2="454.9" y2="596.7"/>
	<line class="st14" x1="394.6" y1="596.7" x2="398.4" y2="596.7"/>
	<path class="st17" d="M392.9,616.1c-4.3,0-7.7-3.5-7.7-7.7v0c0-4.3,3.5-7.7,7.7-7.7h63.5c4.3,0,7.7,3.5,7.7,7.7v0
		c0,4.3-3.5,7.7-7.7,7.7H392.9"/>
	<polyline class="st5" points="385.2,616.7 385.2,605.1 464,605.1 464,616.7 385.2,616.7 	"/>
	<text transform="matrix(0.9692 0 0 1 389.2739 610.5723)" class="st6 st7 st18">BIODEGRADABLE</text>
	<polygon class="st19" points="424.7,591.2 425.2,592.3 426.4,592.4 425.6,593.3 425.8,594.5 424.7,593.9 423.7,594.5 423.9,593.3 
		423,592.4 424.2,592.3 	"/>
	<polygon class="st19" points="424.8,622.1 425.3,623.1 426.5,623.3 425.6,624.1 425.8,625.3 424.8,624.8 423.7,625.3 423.9,624.1 
		423.1,623.3 424.3,623.1 	"/>
	<g>
		<g>
			<path class="st6" d="M407.6,591.2c0.2,0,0.3,0.1,0.4,0.2c0.1,0.2,0.2,0.4,0.1,0.6c-0.1,0.2-0.2,0.5-0.4,0.7
				c-0.4,0.4-0.6,0.6-1,1.1c-0.8-0.8-1.1-1.3-1.9-2.1c0.4-0.5,0.6-0.7,1.1-1.2c0.3-0.3,0.5-0.4,0.7-0.4c0.2,0,0.4,0,0.5,0.2
				c0.1,0.1,0.1,0.3,0.1,0.4c0,0.2-0.1,0.3-0.2,0.5C407.3,591.2,407.5,591.2,407.6,591.2z M406.2,592c0.1-0.2,0.2-0.2,0.4-0.4
				c0.1-0.1,0.2-0.2,0.2-0.3c0-0.1,0-0.2-0.1-0.3c-0.1-0.1-0.1-0.1-0.2-0.1c-0.1,0-0.2,0.1-0.3,0.2c-0.2,0.2-0.2,0.2-0.4,0.4
				C405.9,591.7,406,591.8,406.2,592z M407.5,592.2c0-0.1,0-0.2-0.1-0.3c-0.1-0.1-0.1-0.1-0.2-0.1s-0.2,0.1-0.3,0.2
				c-0.2,0.2-0.2,0.3-0.4,0.4c0.2,0.2,0.2,0.3,0.4,0.5c0.2-0.2,0.2-0.3,0.4-0.4C407.4,592.3,407.4,592.3,407.5,592.2z"/>
			<path class="st6" d="M408.3,588.5c0.6,1,0.9,1.5,1.6,2.4c-0.2,0.2-0.3,0.3-0.6,0.5c-0.7-1-1-1.4-1.6-2.4
				C407.9,588.8,408,588.7,408.3,588.5z"/>
			<path class="st6" d="M411.2,589.7c-0.3,0-0.5,0-0.7-0.1c-0.2-0.1-0.4-0.3-0.6-0.5c-0.1-0.2-0.2-0.5-0.2-0.8
				c0-0.3,0.1-0.6,0.2-0.8c0.2-0.3,0.4-0.5,0.6-0.6c0.3-0.2,0.5-0.3,0.8-0.3c0.3,0,0.5,0,0.7,0.2c0.2,0.1,0.4,0.3,0.5,0.6
				c0.1,0.3,0.2,0.5,0.1,0.8c0,0.3-0.1,0.5-0.3,0.8c-0.1,0.2-0.3,0.4-0.6,0.6C411.7,589.6,411.4,589.7,411.2,589.7z M412,588.3
				c0.1-0.2,0-0.4-0.1-0.7c-0.1-0.2-0.3-0.4-0.5-0.4c-0.2-0.1-0.4,0-0.6,0.1c-0.2,0.1-0.4,0.3-0.4,0.6c-0.1,0.2,0,0.4,0.1,0.7
				c0.1,0.2,0.3,0.4,0.5,0.4c0.2,0,0.4,0,0.6-0.1C411.8,588.7,411.9,588.5,412,588.3z"/>
			<path class="st6" d="M414.9,584.7c0.3,0,0.5,0.1,0.7,0.3c0.2,0.2,0.3,0.4,0.4,0.7c0.1,0.3,0.1,0.5,0.1,0.8
				c-0.1,0.3-0.2,0.5-0.3,0.7c-0.2,0.2-0.4,0.4-0.7,0.5c-0.4,0.2-0.6,0.3-1,0.5c-0.5-1.1-0.7-1.6-1.1-2.7c0.4-0.2,0.7-0.3,1.1-0.5
				C414.3,584.8,414.6,584.7,414.9,584.7z M415.3,586.6c0.1-0.2,0.1-0.4,0-0.7c-0.1-0.3-0.2-0.4-0.4-0.5c-0.2-0.1-0.4-0.1-0.7,0.1
				c-0.1,0.1-0.2,0.1-0.3,0.2c0.2,0.6,0.4,1,0.6,1.6c0.1-0.1,0.2-0.1,0.3-0.1C415,587,415.2,586.8,415.3,586.6z"/>
			<path class="st6" d="M417.4,584.2c0.1,0.2,0.1,0.4,0.1,0.6c0.4-0.1,0.6-0.2,1-0.3c0,0.2,0.1,0.3,0.1,0.5
				c-0.4,0.1-0.6,0.2-0.9,0.3c0.1,0.3,0.1,0.4,0.2,0.6c0.4-0.1,0.6-0.2,1-0.3c0,0.2,0.1,0.3,0.1,0.6c-0.7,0.2-1,0.3-1.7,0.5
				c-0.3-1.1-0.5-1.7-0.8-2.9c0.7-0.3,1.1-0.4,1.9-0.6c0,0.2,0.1,0.3,0.1,0.6C418,584,417.8,584.1,417.4,584.2z"/>
			<path class="st6" d="M421.6,583.7c-0.1-0.1-0.2-0.2-0.3-0.2c-0.1,0-0.2,0-0.4,0c-0.2,0-0.4,0.1-0.5,0.3c-0.1,0.2-0.2,0.4-0.1,0.7
				c0,0.3,0.1,0.5,0.3,0.6c0.2,0.1,0.4,0.2,0.6,0.1c0.2,0,0.3-0.1,0.4-0.2c0.1-0.1,0.2-0.2,0.2-0.4c-0.4,0-0.5,0.1-0.9,0.1
				c0-0.2,0-0.3-0.1-0.5c0.6-0.1,0.9-0.1,1.6-0.2c0,0.3,0,0.4,0.1,0.7c0,0.2-0.1,0.4-0.2,0.5c-0.1,0.2-0.3,0.3-0.4,0.4
				c-0.2,0.1-0.4,0.2-0.6,0.2c-0.3,0-0.5,0-0.8-0.1c-0.2-0.1-0.4-0.2-0.6-0.4c-0.2-0.2-0.3-0.4-0.3-0.7c-0.1-0.3,0-0.6,0.1-0.8
				c0.1-0.3,0.2-0.5,0.5-0.6c0.2-0.2,0.5-0.3,0.8-0.3c0.4-0.1,0.7,0,1,0.1c0.3,0.1,0.5,0.4,0.6,0.7
				C422.1,583.6,421.9,583.6,421.6,583.7z"/>
			<path class="st6" d="M424.9,585.5c-0.2-0.5-0.4-0.7-0.6-1.1c-0.1,0-0.1,0-0.2,0c0,0.5,0,0.7,0,1.1c-0.3,0-0.4,0-0.7,0
				c-0.1-1.2-0.1-1.8-0.1-3c0.5,0,0.8,0,1.3,0c0.2,0,0.5,0,0.6,0.1c0.2,0.1,0.3,0.2,0.4,0.3c0.1,0.1,0.1,0.3,0.1,0.5
				c0,0.2-0.1,0.4-0.2,0.5c-0.1,0.2-0.3,0.3-0.5,0.3c0.3,0.5,0.4,0.7,0.6,1.2C425.4,585.5,425.3,585.5,424.9,585.5z M424.2,583.9
				c0.2,0,0.3,0,0.5,0c0.1,0,0.2,0,0.3-0.1c0.1-0.1,0.1-0.2,0.1-0.3c0-0.1,0-0.2-0.1-0.3c-0.1-0.1-0.2-0.1-0.3-0.1
				c-0.2,0-0.3,0-0.5,0C424.1,583.4,424.1,583.6,424.2,583.9z"/>
			<path class="st6" d="M428.5,585.3c-0.4-0.1-0.6-0.1-1.1-0.1c-0.1,0.2-0.1,0.3-0.2,0.5c-0.3,0-0.4,0-0.7-0.1
				c0.5-1.2,0.7-1.7,1.3-2.9c0.4,0,0.5,0.1,0.9,0.1c0.3,1.3,0.4,1.9,0.6,3.1c-0.3-0.1-0.4-0.1-0.7-0.1
				C428.5,585.6,428.5,585.5,428.5,585.3z M428.4,584.7c-0.1-0.5-0.1-0.7-0.2-1.1c-0.2,0.4-0.3,0.6-0.5,1
				C427.9,584.6,428.1,584.6,428.4,584.7z"/>
			<path class="st6" d="M432.6,583.9c0.2,0.2,0.3,0.4,0.4,0.7c0.1,0.3,0.1,0.5,0,0.8c-0.1,0.3-0.2,0.5-0.4,0.7
				c-0.2,0.2-0.4,0.3-0.6,0.3c-0.3,0.1-0.5,0-0.8,0c-0.4-0.1-0.6-0.2-1-0.3c0.2-1.2,0.3-1.8,0.6-2.9c0.5,0.1,0.7,0.2,1.1,0.3
				C432.1,583.6,432.4,583.7,432.6,583.9z M431.9,585.7c0.2-0.1,0.3-0.3,0.4-0.5c0.1-0.3,0-0.5-0.1-0.7c-0.1-0.2-0.3-0.3-0.6-0.4
				c-0.1,0-0.2-0.1-0.3-0.1c-0.1,0.7-0.2,1-0.4,1.7c0.1,0,0.2,0.1,0.3,0.1C431.5,585.8,431.7,585.8,431.9,585.7z"/>
			<path class="st6" d="M435.3,587.4c-0.4-0.2-0.6-0.3-1-0.5c-0.1,0.2-0.2,0.3-0.3,0.4c-0.3-0.1-0.4-0.2-0.7-0.3
				c0.7-1,1.1-1.5,2-2.4c0.3,0.1,0.5,0.2,0.8,0.4c0,1.3,0,2-0.1,3.2c-0.3-0.1-0.4-0.2-0.7-0.4C435.3,587.8,435.3,587.7,435.3,587.4z
				 M435.3,586.8c0-0.5,0-0.7,0-1.2c-0.3,0.3-0.4,0.5-0.7,0.9C434.9,586.6,435.1,586.7,435.3,586.8z"/>
			<path class="st6" d="M439.2,588.9c0,0.2,0,0.3-0.1,0.5c-0.1,0.2-0.3,0.3-0.5,0.3c-0.2,0-0.5-0.1-0.7-0.2
				c-0.5-0.3-0.7-0.5-1.2-0.7c0.5-1.1,0.7-1.6,1.2-2.7c0.5,0.3,0.8,0.5,1.3,0.8c0.3,0.2,0.5,0.4,0.6,0.6c0.1,0.2,0.1,0.4,0,0.6
				c-0.1,0.1-0.2,0.2-0.3,0.3c-0.1,0-0.3,0-0.4,0C439.1,588.6,439.2,588.7,439.2,588.9z M438.1,587.6c0.2,0.1,0.3,0.2,0.4,0.3
				c0.1,0.1,0.2,0.1,0.3,0.1c0.1,0,0.1-0.1,0.2-0.1c0-0.1,0.1-0.2,0-0.3c0-0.1-0.1-0.2-0.2-0.2c-0.2-0.1-0.3-0.2-0.4-0.3
				C438.3,587.3,438.2,587.4,438.1,587.6z M438.3,589c0.1,0,0.1-0.1,0.2-0.1c0-0.1,0.1-0.2,0-0.3s-0.1-0.2-0.2-0.2
				c-0.2-0.1-0.3-0.2-0.5-0.3c-0.1,0.2-0.2,0.3-0.3,0.6c0.2,0.1,0.3,0.2,0.5,0.3C438.2,589,438.3,589,438.3,589z"/>
			<path class="st6" d="M440.4,590.7c0.3,0.3,0.5,0.4,0.8,0.7c-0.1,0.2-0.2,0.3-0.3,0.4c-0.5-0.5-0.8-0.7-1.3-1.1
				c0.6-1,0.9-1.5,1.5-2.5c0.3,0.2,0.4,0.3,0.6,0.5C441.2,589.5,440.9,589.9,440.4,590.7z"/>
			<path class="st6" d="M443.5,591.2c-0.1,0.2-0.2,0.3-0.4,0.4c0.3,0.3,0.5,0.5,0.8,0.8c-0.1,0.2-0.2,0.2-0.4,0.4
				c-0.3-0.3-0.4-0.5-0.7-0.8c-0.2,0.2-0.2,0.3-0.4,0.5c0.3,0.3,0.5,0.5,0.8,0.9c-0.1,0.2-0.2,0.2-0.4,0.4c-0.5-0.6-0.8-0.9-1.4-1.4
				c0.7-0.9,1.1-1.4,1.8-2.3c0.6,0.6,0.9,0.9,1.5,1.6c-0.1,0.2-0.2,0.2-0.4,0.4C444.1,591.8,443.9,591.6,443.5,591.2z"/>
		</g>
	</g>
	<g>
		<g>
			<path class="st6" d="M407.4,626.4c0,0.2,0,0.3-0.1,0.4c-0.1,0.2-0.3,0.3-0.6,0.2c-0.2,0-0.5-0.2-0.7-0.4
				c-0.5-0.4-0.7-0.6-1.1-1.1c0.8-0.8,1.1-1.1,1.9-1.9c0.4,0.4,0.6,0.6,1,0.9c0.2,0.2,0.4,0.4,0.4,0.6s0,0.4-0.1,0.6
				c-0.1,0.1-0.2,0.2-0.4,0.2c-0.1,0-0.3,0-0.4-0.1C407.3,626.1,407.4,626.3,407.4,626.4z M406.5,625c0.1,0.1,0.2,0.2,0.4,0.3
				c0.1,0.1,0.2,0.1,0.3,0.1c0.1,0,0.2,0,0.2-0.1c0.1-0.1,0.1-0.1,0.1-0.2c0-0.1-0.1-0.2-0.2-0.2c-0.1-0.1-0.2-0.2-0.4-0.3
				C406.8,624.8,406.7,624.9,406.5,625z M406.5,626.4c0.1,0,0.2,0,0.2-0.1c0.1-0.1,0.1-0.2,0.1-0.2c0-0.1-0.1-0.2-0.2-0.3
				c-0.2-0.2-0.3-0.2-0.4-0.4c-0.2,0.2-0.2,0.3-0.4,0.4c0.2,0.2,0.3,0.2,0.4,0.4C406.3,626.3,406.4,626.3,406.5,626.4z"/>
			<path class="st6" d="M409.9,626.4c-0.6,0.9-0.9,1.3-1.6,2.2c-0.3-0.2-0.4-0.3-0.6-0.5c0.7-0.9,1-1.3,1.6-2.1
				C409.5,626.1,409.6,626.2,409.9,626.4z"/>
			<path class="st6" d="M409.9,629.5c-0.2-0.2-0.2-0.5-0.2-0.7c0-0.3,0.1-0.5,0.2-0.7c0.1-0.2,0.3-0.4,0.6-0.5
				c0.2-0.1,0.5-0.1,0.7-0.1c0.3,0,0.5,0.1,0.7,0.2c0.2,0.1,0.4,0.3,0.6,0.5c0.1,0.2,0.2,0.4,0.3,0.7c0,0.2,0,0.5-0.1,0.7
				c-0.1,0.2-0.3,0.4-0.5,0.5c-0.2,0.1-0.5,0.2-0.7,0.2c-0.3,0-0.5-0.1-0.8-0.3C410.3,629.9,410.1,629.7,409.9,629.5z M411.5,629.7
				c0.2-0.1,0.4-0.2,0.5-0.4c0.1-0.2,0.1-0.4,0.1-0.6c-0.1-0.2-0.2-0.3-0.4-0.5c-0.2-0.1-0.4-0.2-0.6-0.1c-0.2,0-0.4,0.2-0.5,0.4
				c-0.1,0.2-0.2,0.4-0.1,0.6c0.1,0.2,0.2,0.4,0.4,0.5C411.1,629.7,411.3,629.7,411.5,629.7z"/>
			<path class="st6" d="M415.7,629.7c0.2,0.2,0.3,0.4,0.3,0.6c0.1,0.2,0,0.5-0.1,0.7c-0.1,0.2-0.2,0.4-0.4,0.6
				c-0.2,0.1-0.4,0.2-0.7,0.2c-0.3,0-0.6,0-0.9-0.2c-0.4-0.2-0.7-0.3-1.1-0.5c0.5-1,0.7-1.5,1.1-2.4c0.4,0.2,0.6,0.3,1,0.4
				C415.3,629.4,415.5,629.5,415.7,629.7z M414.9,631.3c0.2-0.1,0.3-0.2,0.4-0.5c0.1-0.2,0.1-0.4,0-0.6c-0.1-0.2-0.3-0.3-0.5-0.4
				c-0.1-0.1-0.2-0.1-0.3-0.1c-0.2,0.6-0.4,0.9-0.6,1.4c0.1,0.1,0.2,0.1,0.3,0.1C414.4,631.3,414.7,631.3,414.9,631.3z"/>
			<path class="st6" d="M417.8,630.8c-0.1,0.2-0.1,0.3-0.1,0.5c0.4,0.1,0.6,0.2,0.9,0.2c0,0.2-0.1,0.3-0.1,0.5
				c-0.4-0.1-0.6-0.1-1-0.2c-0.1,0.2-0.1,0.3-0.2,0.6c0.4,0.1,0.7,0.2,1.1,0.3c0,0.2-0.1,0.3-0.1,0.5c-0.7-0.2-1.1-0.3-1.9-0.5
				c0.3-1,0.5-1.5,0.8-2.6c0.7,0.2,1,0.3,1.7,0.5c0,0.2-0.1,0.3-0.1,0.5C418.5,631,418.3,630.9,417.8,630.8z"/>
			<path class="st6" d="M421.7,631.9c0-0.1-0.1-0.2-0.2-0.2c-0.1-0.1-0.2-0.1-0.3-0.1c-0.2,0-0.4,0-0.6,0.1
				c-0.2,0.1-0.3,0.3-0.3,0.5c0,0.2,0,0.4,0.1,0.6c0.1,0.2,0.3,0.3,0.6,0.3c0.2,0,0.3,0,0.5-0.1s0.2-0.2,0.3-0.3
				c-0.4,0-0.6-0.1-0.9-0.1c0-0.2,0-0.3,0.1-0.5c0.6,0.1,0.9,0.1,1.6,0.2c0,0.2,0,0.4-0.1,0.6c-0.1,0.2-0.2,0.3-0.3,0.4
				s-0.3,0.2-0.5,0.3c-0.2,0.1-0.5,0.1-0.7,0c-0.3,0-0.6-0.1-0.8-0.3c-0.2-0.2-0.4-0.3-0.5-0.6c-0.1-0.2-0.1-0.5-0.1-0.7
				c0.1-0.3,0.2-0.5,0.3-0.7c0.2-0.2,0.4-0.3,0.6-0.4c0.2-0.1,0.5-0.1,0.8-0.1c0.3,0,0.6,0.2,0.8,0.3c0.2,0.2,0.4,0.4,0.4,0.7
				C422.2,631.9,422,631.9,421.7,631.9z"/>
			<path class="st6" d="M425,633.9c-0.3-0.4-0.4-0.6-0.6-1c-0.1,0-0.1,0-0.2,0c0,0.4,0,0.6,0,1c-0.3,0-0.5,0-0.8,0
				c0.1-1.1,0.1-1.6,0.1-2.7c0.5,0,0.7,0,1.2,0c0.2,0,0.4,0,0.6,0.1c0.2,0.1,0.3,0.2,0.4,0.3c0.1,0.1,0.1,0.3,0.1,0.4
				c0,0.2,0,0.3-0.2,0.5c-0.1,0.1-0.3,0.2-0.5,0.3c0.3,0.4,0.4,0.6,0.7,1C425.5,633.9,425.3,633.9,425,633.9z M424.2,632.4
				c0.2,0,0.3,0,0.4,0c0.1,0,0.2,0,0.3-0.1c0.1-0.1,0.1-0.1,0.1-0.3c0-0.1,0-0.2-0.1-0.2c-0.1-0.1-0.2-0.1-0.3-0.1
				c-0.2,0-0.3,0-0.4,0C424.2,632,424.2,632.2,424.2,632.4z"/>
			<path class="st6" d="M428.7,633.2c-0.5,0.1-0.7,0.1-1.1,0.1c-0.1,0.2-0.1,0.3-0.1,0.5c-0.3,0-0.5,0-0.8,0.1
				c0.4-1.1,0.6-1.7,0.8-2.8c0.3,0,0.5-0.1,0.8-0.1c0.6,1,0.8,1.5,1.5,2.5c-0.3,0.1-0.5,0.1-0.8,0.1
				C428.9,633.4,428.8,633.3,428.7,633.2z M428.5,632.7c-0.2-0.4-0.3-0.6-0.5-0.9c-0.1,0.4-0.1,0.6-0.2,1
				C428,632.7,428.2,632.7,428.5,632.7z"/>
			<path class="st6" d="M432,630.4c0.2,0,0.5,0.1,0.6,0.3c0.2,0.2,0.3,0.4,0.4,0.6c0.1,0.3,0.1,0.5,0,0.7c-0.1,0.2-0.2,0.4-0.4,0.6
				c-0.2,0.2-0.5,0.3-0.8,0.4c-0.5,0.1-0.7,0.2-1.1,0.3c-0.2-1.1-0.3-1.6-0.6-2.6c0.4-0.1,0.6-0.1,1-0.2
				C431.5,630.3,431.7,630.3,432,630.4z M432.2,632.1c0.1-0.2,0.1-0.4,0.1-0.6c-0.1-0.2-0.2-0.4-0.4-0.5c-0.2-0.1-0.4-0.1-0.7,0
				c-0.1,0-0.2,0-0.3,0.1c0.1,0.6,0.2,0.9,0.4,1.5c0.1,0,0.2-0.1,0.3-0.1C431.9,632.4,432.1,632.3,432.2,632.1z"/>
			<path class="st6" d="M436,631.1c-0.4,0.2-0.6,0.3-1.1,0.4c0,0.2,0,0.3,0,0.5c-0.3,0.1-0.5,0.2-0.8,0.3c0.1-1.2,0.1-1.7,0.1-2.9
				c0.3-0.1,0.5-0.2,0.7-0.3c0.8,0.8,1.2,1.2,2.1,2c-0.3,0.1-0.4,0.2-0.7,0.3C436.3,631.3,436.2,631.2,436,631.1z M435.7,630.7
				c-0.3-0.3-0.4-0.5-0.7-0.8c0,0.4,0,0.6,0,1C435.2,630.9,435.4,630.8,435.7,630.7z"/>
			<path class="st6" d="M439.4,628.5c0.2,0,0.3,0.1,0.4,0.3c0.1,0.2,0.1,0.4,0.1,0.6c-0.1,0.2-0.3,0.4-0.6,0.6
				c-0.5,0.3-0.8,0.5-1.3,0.7c-0.5-1-0.7-1.4-1.2-2.4c0.5-0.2,0.7-0.4,1.1-0.6c0.3-0.2,0.5-0.2,0.7-0.2c0.2,0,0.4,0.1,0.5,0.3
				c0.1,0.1,0.1,0.3,0.1,0.4c0,0.1-0.1,0.3-0.2,0.4C439.1,628.5,439.3,628.4,439.4,628.5z M437.9,628.9c0.2-0.1,0.3-0.1,0.4-0.2
				c0.1-0.1,0.2-0.1,0.2-0.2c0-0.1,0-0.2,0-0.2c0-0.1-0.1-0.1-0.2-0.1c-0.1,0-0.2,0-0.3,0.1c-0.2,0.1-0.2,0.1-0.4,0.2
				C437.7,628.6,437.8,628.7,437.9,628.9z M439.1,629.3c0-0.1,0-0.2,0-0.2c0-0.1-0.1-0.1-0.2-0.1c-0.1,0-0.2,0-0.3,0.1
				c-0.2,0.1-0.3,0.2-0.5,0.3c0.1,0.2,0.2,0.3,0.3,0.5c0.2-0.1,0.3-0.2,0.5-0.3C439,629.5,439.1,629.4,439.1,629.3z"/>
			<path class="st6" d="M441.4,627.9c0.3-0.2,0.5-0.4,0.8-0.6c0.1,0.2,0.2,0.2,0.3,0.4c-0.6,0.5-0.9,0.7-1.5,1.1
				c-0.6-0.9-0.9-1.3-1.5-2.2c0.2-0.2,0.4-0.3,0.6-0.4C440.6,626.8,440.9,627.2,441.4,627.9z"/>
			<path class="st6" d="M442.5,624.9c0.1,0.2,0.2,0.2,0.4,0.4c0.3-0.3,0.5-0.4,0.7-0.7c0.1,0.1,0.2,0.2,0.4,0.4
				c-0.3,0.3-0.5,0.4-0.8,0.7c0.2,0.2,0.2,0.3,0.4,0.4c0.4-0.3,0.5-0.5,0.9-0.8c0.1,0.1,0.2,0.2,0.4,0.4c-0.6,0.6-0.9,0.9-1.5,1.4
				c-0.7-0.8-1.1-1.2-1.8-2c0.6-0.5,0.8-0.7,1.4-1.3c0.1,0.1,0.2,0.2,0.4,0.4C443,624.4,442.8,624.6,442.5,624.9z"/>
		</g>
	</g>
	<path class="st20" d="M665.2,283.1"/>
	<path class="st21" d="M807.1,303.3c-5.2,12.6-18,21-32.4,20.1c-12.9-0.8-23.6-9-28.3-20.2"/>
	<path class="st21" d="M746.7,277.6c5.4-12.3,18-20.6,32.2-19.7c12.8,0.8,23.5,8.9,28.2,20"/>
	<path class="st21" d="M669.5,312.3"/>
	<path class="st22" d="M811.3,303.3c-5.4,15-20.2,25.2-36.9,24.2c-15-0.9-27.4-10.8-32.3-24.1"/>
	<path class="st22" d="M742.6,277.1c5.7-14.4,20.2-24.1,36.5-23.1c14.8,0.9,27,10.5,32,23.5"/>
	<path class="st22" d="M665.6,286.1"/>
	<path class="st22" d="M664.2,290.2"/>
	<path class="st22" d="M663,297.5"/>
	<path class="st22" d="M665.2,312.4"/>
	<path class="st22" d="M811.1,277.6h1.8c7.2,0,13.1,5.9,13.1,13.1v0c0,7.2-5.9,13.1-13.1,13.1h-72.3c-7.2,0-13.1-5.9-13.1-13.1v0
		c0-7.2,5.9-13.1,13.1-13.1h1.7"/>
	<line class="st22" x1="746.7" y1="277.6" x2="811.1" y2="277.6"/>
	<line class="st22" x1="665.4" y1="286.6" x2="669.7" y2="286.6"/>
	<path class="st23" d="M740.5,299.7c-4.9,0-8.8-3.9-8.8-8.8v0c0-4.9,3.9-8.8,8.8-8.8h72.3c4.9,0,8.8,3.9,8.8,8.8v0
		c0,4.9-3.9,8.8-8.8,8.8H740.5"/>
	<polyline class="st5" points="731.7,300.4 731.7,287.1 821.4,287.1 821.4,300.4 731.7,300.4 	"/>
	<text transform="matrix(0.9692 0 0 1 736.3447 293.3726)" class="st6 st7 st24 st25">BIODEGRADABLE</text>
	<polygon class="st20" points="776.7,271.3 777.3,272.5 778.7,272.7 777.7,273.7 777.9,275 776.7,274.4 775.5,275 775.7,273.7 
		774.7,272.7 776.1,272.5 	"/>
	<polygon class="st20" points="776.8,306.5 777.4,307.7 778.7,307.9 777.8,308.8 778,310.2 776.8,309.5 775.6,310.2 775.8,308.8 
		774.8,307.9 776.2,307.7 	"/>
	<g>
		<g>
			<path d="M757.3,270.3c0.2,0,0.3,0.1,0.4,0.2c0.2,0.2,0.2,0.4,0.2,0.7c-0.1,0.2-0.2,0.5-0.5,0.7c-0.5,0.4-0.7,0.6-1.2,1.1
				c-0.9-0.9-1.3-1.3-2.2-2.2c0.5-0.5,0.7-0.7,1.2-1.2c0.3-0.3,0.6-0.4,0.8-0.4c0.3,0,0.5,0,0.6,0.2c0.1,0.1,0.2,0.3,0.2,0.5
				c0,0.2-0.1,0.3-0.2,0.5C756.9,270.3,757.1,270.2,757.3,270.3z M755.6,271.1c0.2-0.2,0.3-0.2,0.4-0.4c0.1-0.1,0.2-0.2,0.2-0.3
				c0-0.1,0-0.2-0.1-0.3c-0.1-0.1-0.2-0.1-0.2-0.1c-0.1,0-0.2,0.1-0.3,0.2c-0.2,0.2-0.3,0.2-0.4,0.4
				C755.3,270.8,755.4,270.9,755.6,271.1z M757.1,271.3c0-0.1,0-0.2-0.1-0.3c-0.1-0.1-0.2-0.1-0.3-0.1c-0.1,0-0.2,0.1-0.3,0.2
				c-0.2,0.2-0.3,0.3-0.5,0.4c0.2,0.2,0.3,0.3,0.5,0.5c0.2-0.2,0.3-0.3,0.5-0.4C757,271.4,757,271.4,757.1,271.3z"/>
			<path d="M758,267.5c0.7,1,1.1,1.5,1.8,2.5c-0.3,0.2-0.4,0.3-0.7,0.5c-0.7-1-1.1-1.5-1.9-2.4C757.5,267.8,757.7,267.7,758,267.5z"
				/>
			<path d="M761.3,268.7c-0.3,0-0.6,0-0.8-0.1c-0.3-0.1-0.5-0.3-0.6-0.5c-0.2-0.2-0.2-0.5-0.2-0.8c0-0.3,0.1-0.6,0.3-0.8
				c0.2-0.3,0.4-0.5,0.7-0.7c0.3-0.2,0.6-0.3,0.9-0.3c0.3,0,0.6,0,0.9,0.2c0.3,0.1,0.4,0.3,0.6,0.6c0.1,0.3,0.2,0.5,0.2,0.8
				c0,0.3-0.1,0.5-0.3,0.8c-0.2,0.2-0.4,0.4-0.6,0.6S761.6,268.7,761.3,268.7z M762.2,267.3c0.1-0.2,0-0.4-0.1-0.7
				c-0.1-0.2-0.3-0.4-0.5-0.4c-0.2-0.1-0.5,0-0.7,0.1c-0.3,0.1-0.4,0.3-0.5,0.6c-0.1,0.2,0,0.5,0.1,0.7c0.1,0.2,0.3,0.4,0.6,0.4
				c0.2,0.1,0.5,0,0.7-0.1C762,267.7,762.2,267.6,762.2,267.3z"/>
			<path d="M765.5,263.7c0.3,0,0.6,0.1,0.8,0.3c0.2,0.2,0.4,0.4,0.5,0.7c0.1,0.3,0.1,0.6,0.1,0.8c-0.1,0.3-0.2,0.5-0.4,0.7
				c-0.2,0.2-0.5,0.4-0.8,0.5c-0.5,0.2-0.7,0.3-1.1,0.5c-0.5-1.1-0.8-1.7-1.3-2.8c0.5-0.2,0.7-0.3,1.2-0.5
				C764.8,263.7,765.2,263.6,765.5,263.7z M765.9,265.6c0.1-0.2,0.1-0.4,0-0.7s-0.3-0.4-0.5-0.5s-0.5-0.1-0.8,0.1
				c-0.2,0.1-0.2,0.1-0.4,0.2c0.3,0.7,0.4,1,0.7,1.6c0.1-0.1,0.2-0.1,0.4-0.2C765.6,266,765.8,265.8,765.9,265.6z"/>
			<path d="M768.4,263.2c0.1,0.2,0.1,0.4,0.2,0.6c0.4-0.1,0.7-0.2,1.1-0.3c0.1,0.2,0.1,0.3,0.1,0.6c-0.4,0.1-0.6,0.2-1.1,0.3
				c0.1,0.3,0.1,0.4,0.2,0.6c0.5-0.1,0.7-0.2,1.2-0.3c0.1,0.2,0.1,0.3,0.1,0.6c-0.8,0.2-1.2,0.3-1.9,0.5c-0.4-1.2-0.5-1.8-0.9-2.9
				c0.8-0.3,1.3-0.4,2.1-0.6c0.1,0.2,0.1,0.3,0.1,0.6C769.1,262.9,768.9,263,768.4,263.2z"/>
			<path d="M773.1,262.6c-0.1-0.1-0.2-0.2-0.3-0.2c-0.1,0-0.3,0-0.4,0c-0.3,0-0.5,0.2-0.6,0.3c-0.1,0.2-0.2,0.4-0.1,0.7
				c0,0.3,0.2,0.5,0.4,0.6c0.2,0.1,0.4,0.2,0.7,0.1c0.2,0,0.4-0.1,0.5-0.2c0.1-0.1,0.2-0.3,0.3-0.4c-0.4,0-0.6,0.1-1,0.1
				c0-0.2,0-0.3-0.1-0.5c0.7-0.1,1.1-0.1,1.8-0.2c0,0.3,0,0.4,0.1,0.7c0,0.2-0.1,0.4-0.3,0.5c-0.1,0.2-0.3,0.3-0.5,0.4
				c-0.2,0.1-0.4,0.2-0.7,0.2c-0.3,0-0.6,0-0.9-0.1c-0.3-0.1-0.5-0.2-0.7-0.4c-0.2-0.2-0.3-0.5-0.4-0.7c-0.1-0.3,0-0.6,0.1-0.8
				c0.1-0.3,0.3-0.5,0.5-0.7c0.2-0.2,0.5-0.3,0.9-0.3c0.4-0.1,0.8,0,1.1,0.1c0.3,0.1,0.5,0.4,0.6,0.7
				C773.7,262.5,773.5,262.5,773.1,262.6z"/>
			<path d="M777,264.5c-0.3-0.5-0.4-0.7-0.7-1.2c-0.1,0-0.1,0-0.2,0c0,0.5,0,0.7,0,1.2c-0.3,0-0.5,0-0.8,0c-0.1-1.2-0.1-1.8-0.2-3.1
				c0.6,0,0.9,0,1.5,0c0.3,0,0.5,0,0.7,0.1c0.2,0.1,0.3,0.2,0.4,0.4c0.1,0.1,0.1,0.3,0.1,0.5c0,0.2-0.1,0.4-0.2,0.5
				c-0.1,0.2-0.3,0.3-0.6,0.3c0.3,0.5,0.5,0.7,0.7,1.2C777.5,264.5,777.3,264.5,777,264.5z M776.1,262.8c0.2,0,0.3,0,0.5,0
				c0.2,0,0.3,0,0.3-0.1c0.1-0.1,0.1-0.2,0.1-0.3c0-0.1,0-0.2-0.1-0.3c-0.1-0.1-0.2-0.1-0.3-0.1c-0.2,0-0.3,0-0.5,0
				C776.1,262.3,776.1,262.5,776.1,262.8z"/>
			<path d="M781,264.2c-0.5-0.1-0.7-0.1-1.2-0.1c-0.1,0.2-0.1,0.3-0.2,0.5c-0.3,0-0.5,0-0.8-0.1c0.5-1.2,0.8-1.8,1.5-2.9
				c0.4,0,0.6,0.1,1,0.1c0.3,1.3,0.5,1.9,0.7,3.2c-0.3-0.1-0.5-0.1-0.8-0.1C781.1,264.6,781,264.4,781,264.2z M780.9,263.6
				c-0.1-0.5-0.2-0.7-0.3-1.2c-0.2,0.4-0.3,0.6-0.5,1.1C780.4,263.6,780.5,263.6,780.9,263.6z"/>
			<path d="M785.7,262.9c0.2,0.2,0.4,0.4,0.5,0.7c0.1,0.3,0.1,0.5,0,0.8c-0.1,0.3-0.2,0.5-0.4,0.7c-0.2,0.2-0.5,0.3-0.7,0.3
				c-0.3,0.1-0.6,0-0.9-0.1c-0.5-0.1-0.7-0.2-1.2-0.3c0.3-1.2,0.4-1.8,0.6-3c0.5,0.1,0.8,0.2,1.3,0.3
				C785.2,262.5,785.5,262.6,785.7,262.9z M784.9,264.7c0.2-0.1,0.4-0.3,0.4-0.6c0.1-0.3,0.1-0.5-0.1-0.7c-0.1-0.2-0.4-0.3-0.7-0.4
				c-0.2,0-0.2-0.1-0.4-0.1c-0.2,0.7-0.2,1-0.4,1.7c0.1,0,0.2,0.1,0.4,0.1C784.4,264.8,784.7,264.8,784.9,264.7z"/>
			<path d="M788.8,266.4c-0.5-0.2-0.7-0.3-1.1-0.5c-0.2,0.2-0.2,0.3-0.4,0.4c-0.3-0.1-0.5-0.2-0.8-0.3c0.9-1,1.3-1.5,2.2-2.4
				c0.4,0.2,0.6,0.2,0.9,0.4c0,1.3,0,2-0.1,3.3c-0.3-0.1-0.5-0.2-0.8-0.4C788.7,266.8,788.8,266.7,788.8,266.4z M788.8,265.8
				c0-0.5,0-0.7,0-1.2c-0.3,0.3-0.5,0.5-0.8,0.9C788.3,265.6,788.5,265.7,788.8,265.8z"/>
			<path d="M793.2,267.9c0,0.2,0,0.3-0.1,0.5c-0.1,0.2-0.3,0.3-0.6,0.4c-0.2,0-0.5-0.1-0.8-0.2c-0.5-0.3-0.8-0.5-1.3-0.8
				c0.6-1.1,0.9-1.6,1.4-2.7c0.6,0.3,0.9,0.5,1.4,0.8c0.3,0.2,0.5,0.4,0.6,0.6c0.1,0.2,0.1,0.5,0,0.7c-0.1,0.2-0.2,0.2-0.4,0.3
				c-0.2,0-0.3,0-0.5,0C793.1,267.6,793.2,267.8,793.2,267.9z M792,266.6c0.2,0.1,0.3,0.2,0.5,0.3c0.1,0.1,0.2,0.1,0.3,0.1
				c0.1,0,0.2-0.1,0.2-0.1s0.1-0.2,0-0.3s-0.1-0.2-0.2-0.2c-0.2-0.1-0.3-0.2-0.5-0.3C792.2,266.3,792.1,266.4,792,266.6z
				 M792.2,268.1c0.1,0,0.2-0.1,0.2-0.2s0.1-0.2,0-0.3c0-0.1-0.1-0.2-0.2-0.2c-0.2-0.1-0.3-0.2-0.5-0.3c-0.1,0.2-0.2,0.4-0.3,0.6
				c0.2,0.1,0.3,0.2,0.5,0.3C792,268,792.1,268.1,792.2,268.1z"/>
			<path d="M794.6,269.8c0.4,0.3,0.5,0.4,0.9,0.7c-0.1,0.2-0.2,0.3-0.4,0.4c-0.6-0.5-0.9-0.7-1.5-1.1c0.7-1,1.1-1.5,1.8-2.5
				c0.3,0.2,0.4,0.3,0.7,0.5C795.5,268.6,795.2,269,794.6,269.8z"/>
			<path d="M798.1,270.3c-0.2,0.2-0.3,0.3-0.4,0.5c0.4,0.3,0.5,0.5,0.9,0.8c-0.2,0.2-0.2,0.2-0.4,0.4c-0.3-0.3-0.5-0.5-0.9-0.8
				c-0.2,0.2-0.3,0.3-0.5,0.5c0.4,0.4,0.6,0.5,0.9,0.9c-0.2,0.2-0.3,0.3-0.4,0.4c-0.6-0.6-0.9-0.9-1.5-1.4c0.8-0.9,1.2-1.4,2-2.3
				c0.7,0.6,1,0.9,1.7,1.6c-0.2,0.2-0.3,0.3-0.4,0.4C798.8,270.9,798.6,270.7,798.1,270.3z"/>
		</g>
	</g>
	<g>
		<g>
			<path d="M757,311.4c0,0.2,0,0.3-0.2,0.5c-0.2,0.2-0.4,0.3-0.6,0.3c-0.3,0-0.5-0.2-0.8-0.4c-0.5-0.5-0.8-0.7-1.3-1.2
				c0.9-0.9,1.3-1.3,2.2-2.2c0.4,0.4,0.7,0.7,1.1,1.1c0.3,0.2,0.4,0.5,0.5,0.7c0.1,0.2,0,0.4-0.1,0.6c-0.1,0.1-0.3,0.2-0.4,0.2
				c-0.2,0-0.3,0-0.5-0.1C756.9,311.1,757,311.2,757,311.4z M756,309.8c0.2,0.2,0.3,0.2,0.4,0.4c0.1,0.1,0.2,0.1,0.3,0.2
				s0.2,0,0.2-0.1c0.1-0.1,0.1-0.2,0.1-0.3s-0.1-0.2-0.2-0.3c-0.2-0.2-0.2-0.2-0.4-0.4C756.3,309.6,756.2,309.7,756,309.8z
				 M756,311.4c0.1,0,0.2,0,0.3-0.1c0.1-0.1,0.1-0.2,0.1-0.3c0-0.1-0.1-0.2-0.2-0.3c-0.2-0.2-0.3-0.3-0.5-0.4
				c-0.2,0.2-0.3,0.3-0.5,0.5c0.2,0.2,0.3,0.3,0.5,0.5C755.8,311.3,755.9,311.3,756,311.4z"/>
			<path d="M759.8,311.4c-0.7,1-1.1,1.5-1.8,2.5c-0.3-0.2-0.4-0.3-0.7-0.5c0.7-1,1.1-1.5,1.9-2.4
				C759.4,311.1,759.5,311.2,759.8,311.4z"/>
			<path d="M759.9,314.9c-0.2-0.3-0.3-0.5-0.3-0.8c0-0.3,0.1-0.6,0.2-0.8c0.2-0.2,0.4-0.4,0.6-0.5c0.3-0.1,0.5-0.2,0.8-0.1
				c0.3,0,0.6,0.1,0.8,0.3c0.3,0.2,0.5,0.4,0.6,0.6c0.2,0.2,0.3,0.5,0.3,0.8c0,0.3,0,0.6-0.2,0.8c-0.1,0.3-0.3,0.5-0.6,0.6
				c-0.3,0.1-0.5,0.2-0.9,0.2c-0.3,0-0.6-0.1-0.9-0.3C760.3,315.4,760,315.2,759.9,314.9z M761.6,315.1c0.2-0.1,0.4-0.2,0.5-0.4
				c0.1-0.2,0.2-0.5,0.1-0.7s-0.2-0.4-0.4-0.5c-0.2-0.1-0.5-0.2-0.7-0.1c-0.2,0-0.4,0.2-0.6,0.4c-0.1,0.2-0.2,0.5-0.1,0.7
				c0.1,0.2,0.2,0.4,0.5,0.6C761.2,315.1,761.4,315.2,761.6,315.1z"/>
			<path d="M766.5,315.2c0.2,0.2,0.3,0.4,0.4,0.7c0.1,0.3,0,0.5-0.1,0.8c-0.1,0.3-0.3,0.5-0.5,0.7c-0.2,0.2-0.5,0.3-0.8,0.3
				c-0.3,0-0.6,0-1-0.2c-0.5-0.2-0.7-0.3-1.2-0.5c0.5-1.1,0.8-1.7,1.3-2.8c0.4,0.2,0.7,0.3,1.1,0.5C766,314.8,766.3,315,766.5,315.2
				z M765.5,316.9c0.2-0.1,0.4-0.3,0.5-0.5c0.1-0.3,0.1-0.5,0-0.7c-0.1-0.2-0.3-0.4-0.6-0.5c-0.1-0.1-0.2-0.1-0.4-0.2
				c-0.3,0.7-0.4,1-0.7,1.6c0.2,0.1,0.2,0.1,0.4,0.2C765,317,765.3,317,765.5,316.9z"/>
			<path d="M768.9,316.4c-0.1,0.2-0.1,0.4-0.2,0.6c0.4,0.1,0.6,0.2,1.1,0.3c-0.1,0.2-0.1,0.3-0.1,0.6c-0.4-0.1-0.7-0.2-1.1-0.3
				c-0.1,0.3-0.1,0.4-0.2,0.6c0.5,0.1,0.8,0.2,1.3,0.3c-0.1,0.2-0.1,0.3-0.1,0.6c-0.9-0.2-1.3-0.3-2.1-0.6c0.4-1.2,0.5-1.8,0.9-2.9
				c0.8,0.2,1.1,0.3,1.9,0.5c-0.1,0.2-0.1,0.3-0.1,0.6C769.6,316.6,769.4,316.5,768.9,316.4z"/>
			<path d="M773.3,317.6c0-0.1-0.1-0.2-0.2-0.3c-0.1-0.1-0.2-0.1-0.4-0.1c-0.3,0-0.5,0-0.7,0.1c-0.2,0.1-0.3,0.3-0.3,0.6
				c0,0.3,0,0.5,0.1,0.7c0.1,0.2,0.4,0.3,0.7,0.3c0.2,0,0.4,0,0.5-0.1c0.2-0.1,0.3-0.2,0.4-0.4c-0.4,0-0.6-0.1-1.1-0.1
				c0-0.2,0-0.3,0.1-0.5c0.7,0.1,1.1,0.1,1.8,0.2c0,0.3,0,0.4-0.1,0.7c-0.1,0.2-0.2,0.3-0.4,0.5c-0.2,0.1-0.4,0.3-0.6,0.3
				c-0.2,0.1-0.5,0.1-0.8,0c-0.3,0-0.7-0.2-0.9-0.3c-0.2-0.2-0.4-0.4-0.5-0.7c-0.1-0.3-0.1-0.5-0.1-0.8c0.1-0.3,0.2-0.5,0.4-0.8
				c0.2-0.2,0.4-0.4,0.7-0.4c0.3-0.1,0.6-0.1,0.9-0.1c0.4,0.1,0.7,0.2,0.9,0.4c0.2,0.2,0.4,0.5,0.5,0.8
				C773.8,317.7,773.6,317.7,773.3,317.6z"/>
			<path d="M777,319.9c-0.3-0.5-0.4-0.7-0.7-1.2c-0.1,0-0.1,0-0.2,0c0,0.5,0,0.7,0,1.2c-0.3,0-0.5,0-0.9,0c0.1-1.2,0.1-1.8,0.2-3.1
				c0.5,0,0.8,0,1.3,0c0.3,0,0.5,0,0.7,0.1c0.2,0.1,0.3,0.2,0.4,0.3c0.1,0.1,0.1,0.3,0.2,0.5c0,0.2,0,0.4-0.2,0.6s-0.3,0.3-0.6,0.4
				c0.3,0.5,0.5,0.7,0.8,1.2C777.6,319.9,777.4,319.9,777,319.9z M776.1,318.3c0.2,0,0.3,0,0.5,0c0.2,0,0.3,0,0.3-0.1
				s0.1-0.2,0.1-0.3c0-0.1,0-0.2-0.1-0.3c-0.1-0.1-0.2-0.1-0.3-0.1c-0.2,0-0.3,0-0.5,0C776.1,317.8,776.1,317.9,776.1,318.3z"/>
			<path d="M781.3,319.1c-0.5,0.1-0.8,0.1-1.3,0.2c-0.1,0.2-0.1,0.3-0.2,0.6c-0.4,0-0.5,0-0.9,0.1c0.4-1.3,0.6-1.9,1-3.1
				c0.4,0,0.5-0.1,0.9-0.1c0.6,1.1,1,1.7,1.7,2.8c-0.4,0.1-0.5,0.1-0.9,0.1C781.5,319.4,781.4,319.3,781.3,319.1z M781,318.5
				c-0.2-0.4-0.3-0.6-0.6-1.1c-0.1,0.5-0.2,0.7-0.3,1.2C780.5,318.6,780.7,318.6,781,318.5z"/>
			<path d="M785,315.9c0.3,0.1,0.5,0.2,0.7,0.3c0.2,0.2,0.4,0.4,0.4,0.7c0.1,0.3,0.1,0.6,0,0.8c-0.1,0.3-0.2,0.5-0.5,0.7
				c-0.2,0.2-0.5,0.4-0.9,0.4c-0.5,0.1-0.8,0.2-1.3,0.3c-0.3-1.2-0.4-1.8-0.6-3c0.5-0.1,0.7-0.2,1.2-0.3
				C784.4,315.9,784.7,315.9,785,315.9z M785.3,317.9c0.1-0.2,0.2-0.4,0.1-0.7c-0.1-0.3-0.2-0.5-0.4-0.6c-0.2-0.1-0.5-0.1-0.8,0
				c-0.1,0-0.2,0.1-0.4,0.1c0.2,0.7,0.2,1,0.4,1.7c0.2,0,0.2-0.1,0.4-0.1C784.9,318.3,785.2,318.1,785.3,317.9z"/>
			<path d="M789.6,316.7c-0.5,0.2-0.7,0.3-1.2,0.5c0,0.2,0,0.3,0,0.6c-0.3,0.1-0.5,0.2-0.9,0.3c0.1-1.3,0.1-2,0.1-3.3
				c0.3-0.1,0.5-0.2,0.9-0.4c0.9,0.9,1.4,1.4,2.4,2.3c-0.3,0.2-0.5,0.2-0.8,0.4C789.9,317,789.8,316.9,789.6,316.7z M789.2,316.3
				c-0.3-0.3-0.5-0.5-0.8-0.9c0,0.5,0,0.7,0,1.2C788.7,316.5,788.9,316.4,789.2,316.3z"/>
			<path d="M793.5,313.8c0.2,0,0.3,0.1,0.4,0.3c0.1,0.2,0.2,0.4,0.1,0.7c-0.1,0.2-0.3,0.5-0.6,0.7c-0.6,0.4-0.9,0.5-1.5,0.8
				c-0.6-1.1-0.9-1.6-1.4-2.7c0.5-0.3,0.8-0.4,1.3-0.7c0.3-0.2,0.6-0.3,0.8-0.2c0.2,0,0.4,0.1,0.6,0.3c0.1,0.2,0.1,0.3,0.1,0.5
				c0,0.2-0.1,0.3-0.2,0.4C793.1,313.7,793.3,313.7,793.5,313.8z M791.7,314.2c0.2-0.1,0.3-0.2,0.5-0.3c0.1-0.1,0.2-0.1,0.2-0.2
				s0-0.2,0-0.3s-0.1-0.1-0.2-0.1c-0.1,0-0.2,0-0.3,0.1c-0.2,0.1-0.3,0.2-0.5,0.3C791.5,313.9,791.6,314,791.7,314.2z M793.1,314.7
				c0-0.1,0-0.2,0-0.3s-0.1-0.1-0.2-0.2c-0.1,0-0.2,0-0.3,0.1c-0.2,0.1-0.3,0.2-0.5,0.3c0.1,0.2,0.2,0.4,0.3,0.6
				c0.2-0.1,0.3-0.2,0.6-0.3C793,314.9,793.1,314.8,793.1,314.7z"/>
			<path d="M795.7,313.1c0.4-0.3,0.6-0.4,0.9-0.7c0.1,0.2,0.2,0.3,0.4,0.4c-0.7,0.5-1,0.8-1.7,1.3c-0.7-1-1.1-1.5-1.8-2.5
				c0.3-0.2,0.4-0.3,0.7-0.5C794.9,311.9,795.1,312.3,795.7,313.1z"/>
			<path d="M796.9,309.7c0.2,0.2,0.3,0.3,0.4,0.5c0.3-0.3,0.5-0.5,0.9-0.8c0.2,0.2,0.2,0.2,0.4,0.4c-0.3,0.3-0.5,0.5-0.9,0.8
				c0.2,0.2,0.3,0.3,0.5,0.5c0.4-0.4,0.6-0.6,1-1c0.2,0.2,0.3,0.3,0.4,0.4c-0.7,0.7-1,1-1.7,1.6c-0.8-0.9-1.2-1.4-2-2.3
				c0.6-0.5,0.9-0.8,1.5-1.4c0.2,0.2,0.3,0.3,0.4,0.4C797.5,309.1,797.3,309.3,796.9,309.7z"/>
		</g>
	</g>
</g>
</svg>
