<?xml version="1.0" encoding="utf-8"?>
<!-- Generator: Adobe Illustrator 25.2.0, SVG Export Plug-In . SVG Version: 6.00 Build 0)  -->
<svg version="1.1" xmlns="http://www.w3.org/2000/svg" xmlns:xlink="http://www.w3.org/1999/xlink" x="0px" y="0px"
	 viewBox="0 0 1366 768" style="enable-background:new 0 0 1366 768;" xml:space="preserve">
<style type="text/css">
	.st0{stroke:#000000;stroke-width:2.2706;stroke-miterlimit:10;}
	.st1{fill:#3789AA;}
	.st2{stroke:#000000;stroke-width:2;stroke-miterlimit:10;}
	.st3{fill:#FFFFFF;stroke:#000000;stroke-width:4;stroke-miterlimit:10;}
	.st4{fill:none;stroke:#000000;stroke-width:4;stroke-miterlimit:10;}
	.st5{fill:#39B54A;stroke:#000000;stroke-width:4;stroke-miterlimit:10;}
	.st6{fill:none;}
	.st7{fill:#FFFFFF;}
	.st8{font-family:'Poppins-Bold';}
	.st9{font-size:35.4169px;}
	.st10{letter-spacing:5.2;}
	.st11{fill:none;stroke:#FFFFFF;stroke-width:4;stroke-miterlimit:10;}
	.st12{fill:#39B54A;stroke:#FFFFFF;stroke-width:4;stroke-miterlimit:10;}
	.st13{fill:#FFFFFF;stroke:#FFFFFF;stroke-width:2;stroke-miterlimit:10;}
	.st14{stroke:#000000;stroke-width:0.7979;stroke-miterlimit:10;}
	.st15{fill:#FFFFFF;stroke:#000000;stroke-width:1.5958;stroke-miterlimit:10;}
	.st16{fill:none;stroke:#000000;stroke-width:1.5958;stroke-miterlimit:10;}
	.st17{fill:#39B54A;stroke:#000000;stroke-width:1.5958;stroke-miterlimit:10;}
	.st18{font-size:14.1292px;}
	.st19{letter-spacing:2.1;}
	.st20{stroke:#000000;stroke-width:0.8366;stroke-miterlimit:10;}
	.st21{fill:none;stroke:#FFFFFF;stroke-width:1.6733;stroke-miterlimit:10;}
	.st22{fill:#FFFFFF;stroke:#000000;stroke-width:1.6733;stroke-miterlimit:10;}
	.st23{fill:none;stroke:#000000;stroke-width:1.6733;stroke-miterlimit:10;}
	.st24{fill:#39B54A;stroke:#FFFFFF;stroke-width:1.6733;stroke-miterlimit:10;}
	.st25{font-size:14.8156px;}
	.st26{fill:#FFFFFF;stroke:#FFFFFF;stroke-width:0.8366;stroke-miterlimit:10;}
</style>
<g id="Layer_1">
</g>
<g id="Layer_4">
	<rect x="53" y="353" class="st0" width="411.5" height="341"/>
	<rect x="53" y="22" class="st1" width="412" height="331"/>
</g>
<g id="Layer_2">
	<path class="st2" d="M131,131"/>
	<path class="st3" d="M339.5,224.8c-16.8,40.4-57.8,67.5-103.9,64.6c-41.4-2.6-75.7-28.8-90.7-64.7"/>
	<path class="st3" d="M145.6,142.2c17.2-39.5,57.8-66,103.3-63.1c41.2,2.6,75.3,28.5,90.4,64.1"/>
	<path class="st3" d="M144.9,224.8"/>
	<path class="st4" d="M353,224.8c-17.4,48.1-64.9,81-118.5,77.6c-48.3-3-87.9-34.7-103.5-77.4"/>
	<path class="st4" d="M132.3,140.8c18.4-46.1,64.9-77.4,117.1-74.1c47.5,3,86.7,33.7,102.8,75.5"/>
	<path class="st4" d="M132.3,140.8"/>
	<path class="st4" d="M128,153.7"/>
	<path class="st4" d="M124.1,177.2"/>
	<path class="st4" d="M131,225"/>
	<path class="st4" d="M352.2,142.2h5.9c23.2,0,42,18.8,42,42v0c0,23.2-18.8,42-42,42h-232c-23.2,0-42-18.8-42-42v0
		c0-23.2,18.8-42,42-42h5.6"/>
	<line class="st4" x1="145.6" y1="142.2" x2="352.2" y2="142.2"/>
	<line class="st4" x1="131.7" y1="142.2" x2="145.6" y2="142.2"/>
	<path class="st5" d="M125.7,213.1c-15.6,0-28.2-12.6-28.2-28.2v0c0-15.6,12.6-28.2,28.2-28.2h232.2c15.6,0,28.2,12.6,28.2,28.2v0
		c0,15.6-12.6,28.2-28.2,28.2H125.7"/>
	<polyline class="st6" points="129.3,213.4 129.3,170.9 354.3,170.9 354.3,213.4 129.3,213.4 	"/>
	<text transform="matrix(0.9692 0 0 1 143.9518 197.1049)" class="st7 st8 st9 st10">BPA FREE</text>
	<g>
		<g>
			<path d="M191.5,117c0.9,0.2,1.6,0.6,2.1,1.3c0.7,1,0.9,2.1,0.5,3.2c-0.3,1.1-1.2,2.2-2.5,3.3c-2.3,1.9-3.5,3-5.7,5.1
				c-4.1-4.1-6.2-6.2-10.3-10.3c2.5-2.5,3.8-3.7,6.5-5.9c1.5-1.3,2.9-1.9,4.2-2c1.3-0.1,2.2,0.3,2.9,1.3c0.5,0.7,0.7,1.4,0.6,2.2
				c-0.1,0.8-0.4,1.5-1,2.3C189.7,117,190.6,116.8,191.5,117z M183,120.7c0.9-0.8,1.3-1.2,2.2-1.9c0.5-0.5,0.9-0.9,1-1.4
				c0.1-0.4,0.1-0.9-0.3-1.2c-0.3-0.4-0.7-0.6-1.2-0.5c-0.5,0-1,0.3-1.6,0.8c-0.9,0.8-1.4,1.2-2.2,2
				C181.8,119.4,182.2,119.8,183,120.7z M190.2,121.7c0.1-0.4,0-0.9-0.3-1.3c-0.3-0.4-0.7-0.6-1.2-0.6c-0.5,0-1,0.3-1.6,0.7
				c-0.9,0.8-1.4,1.2-2.3,2c0.9,1,1.3,1.4,2.2,2.4c0.9-0.8,1.4-1.2,2.3-2C189.8,122.6,190.1,122.2,190.2,121.7z"/>
			<path d="M208.1,106c-0.1,0.8-0.6,1.6-1.2,2.4c-0.7,0.8-1.6,1.5-2.8,2.1c-0.9,0.5-1.4,0.7-2.2,1.2c1,1.8,1.5,2.8,2.5,4.6
				c-1.4,0.7-2,1.1-3.3,1.9c-3-5-4.5-7.5-7.6-12.5c2.5-1.5,3.8-2.3,6.4-3.6c1.3-0.7,2.5-1,3.6-1.1c1.1-0.1,2,0.2,2.7,0.6
				c0.7,0.5,1.3,1.1,1.6,2C208.1,104.4,208.2,105.2,208.1,106z M203.9,106.8c0.2-0.5,0.2-1,0-1.5s-0.6-0.8-1.1-1
				c-0.5-0.1-1.1,0-1.9,0.4c-0.9,0.4-1.3,0.7-2.1,1.1c0.7,1.3,1,1.9,1.7,3.2c0.8-0.4,1.2-0.7,2-1.1
				C203.2,107.7,203.7,107.3,203.9,106.8z"/>
			<path d="M225.8,105.7c-2.3,0.5-3.5,0.8-5.8,1.4c-0.1,1.1-0.1,1.6-0.2,2.7c-1.5,0.4-2.3,0.7-3.8,1.2c0.2-6.3,0.5-9.4,1.5-15.7
				c2-0.5,3-0.8,5-1.2c3.8,5.2,5.5,7.8,8.5,13.3c-1.6,0.2-2.4,0.4-3.9,0.7C226.6,107.1,226.4,106.6,225.8,105.7z M224.2,103.2
				c-1.3-1.9-1.9-2.9-3.3-4.7c-0.3,2.3-0.5,3.4-0.7,5.7C221.8,103.7,222.6,103.6,224.2,103.2z"/>
			<path d="M257.1,93.2c-0.2,1.1-0.3,1.7-0.4,2.8c-2.8-0.4-4.3-0.6-7.1-0.8c-0.1,1.2-0.1,1.8-0.2,3.1c2.1,0.2,3.1,0.3,5.2,0.6
				c-0.2,1.1-0.2,1.6-0.4,2.7c-2-0.3-3-0.4-5-0.5c-0.2,2.4-0.3,3.5-0.5,5.9c-1.5-0.1-2.2-0.2-3.7-0.2c0.2-5.8,0.3-8.8,0.5-14.6
				C250,92.2,252.4,92.4,257.1,93.2z"/>
			<path d="M268,110.8c-0.5-2.5-0.8-3.8-1.5-6.3c-0.4-0.1-0.6-0.2-0.9-0.3c-0.6,2.1-0.9,3.2-1.5,5.3c-1.5-0.4-2.2-0.6-3.6-0.9
				c1.3-5.7,2-8.5,3.3-14.2c2.9,0.7,4.4,1.1,7.2,2c1.4,0.4,2.5,1,3.3,1.8c0.8,0.7,1.3,1.5,1.5,2.3c0.2,0.8,0.1,1.6-0.2,2.4
				c-0.4,0.9-1,1.6-1.9,2.1c-0.9,0.5-1.9,0.7-3.2,0.6c0.7,2.7,1,4,1.5,6.7C270.4,111.7,269.6,111.4,268,110.8z M266.3,101.9
				c1,0.3,1.5,0.4,2.5,0.7c0.7,0.2,1.3,0.3,1.8,0.1c0.5-0.2,0.8-0.5,1-1.1c0.2-0.5,0.1-1-0.1-1.4c-0.3-0.4-0.8-0.8-1.5-1
				c-1-0.3-1.5-0.5-2.6-0.8C266.8,99.8,266.7,100.5,266.3,101.9z"/>
			<path d="M286.6,106.3c-0.6,1-0.9,1.6-1.4,2.6c2,1.1,3,1.7,4.9,2.9c-0.6,0.9-0.9,1.4-1.5,2.3c-1.9-1.2-2.8-1.8-4.8-2.9
				c-0.6,1.1-0.9,1.7-1.6,2.8c2.1,1.2,3.2,1.8,5.2,3.1c-0.6,1-0.9,1.4-1.6,2.4c-3.3-2.1-5-3.1-8.4-4.8c2.6-5.2,3.9-7.9,6.5-13.1
				c4.1,2,6.1,3.1,9.9,5.7c-0.6,1-0.9,1.4-1.6,2.4C290.1,108.3,289,107.6,286.6,106.3z"/>
			<path d="M301.9,116.9c-0.8,0.9-1.2,1.3-1.9,2.2c1.8,1.5,2.7,2.3,4.4,4c-0.8,0.8-1.2,1.2-1.9,2c-1.7-1.6-2.5-2.4-4.2-3.9
				c-0.8,1-1.3,1.5-2.1,2.4c1.9,1.6,2.8,2.5,4.6,4.3c-0.8,0.8-1.2,1.2-2,2c-2.9-2.9-4.4-4.2-7.5-6.6c3.6-4.6,5.4-6.9,8.9-11.5
				c3.7,2.9,5.5,4.4,8.9,7.8c-0.8,0.8-1.2,1.2-2,2C305,119.7,304,118.7,301.9,116.9z"/>
		</g>
	</g>
	<g>
		<g>
			<path d="M188.7,254.4c0.1,0.9-0.1,1.7-0.6,2.5c-0.7,1-1.8,1.5-3.1,1.4s-2.8-0.8-4.4-2.1c-2.8-2.3-4.2-3.6-6.9-6.3
				c4.3-4.3,6.4-6.4,10.6-10.6c2.2,2.2,3.3,3.2,5.6,5.1c1.3,1.1,2.1,2.2,2.5,3.3c0.4,1.1,0.2,2.2-0.5,3.2c-0.5,0.7-1.2,1.2-2,1.3
				c-0.8,0.1-1.6,0-2.5-0.4C188.2,252.6,188.6,253.5,188.7,254.4z M183.2,246.6c0.9,0.8,1.3,1.2,2.2,1.9c0.5,0.5,1.1,0.7,1.5,0.7
				c0.5,0,0.9-0.1,1.2-0.5c0.3-0.4,0.4-0.8,0.3-1.3c-0.1-0.4-0.4-0.9-1-1.3c-0.8-0.7-1.3-1.1-2.1-1.8
				C184.5,245.2,184.1,245.7,183.2,246.6z M183.5,254.2c0.5,0.1,0.9-0.1,1.3-0.5c0.3-0.4,0.4-0.9,0.3-1.4c-0.1-0.5-0.5-1-1.1-1.5
				c-1-0.8-1.5-1.3-2.5-2.2c-0.9,1-1.3,1.5-2.2,2.5c1,0.9,1.6,1.4,2.6,2.3C182.4,253.9,183,254.1,183.5,254.2z"/>
			<path d="M207.3,263.4c-0.7,0.5-1.6,0.7-2.7,0.7s-2.3-0.3-3.6-1c-1-0.5-1.5-0.7-2.4-1.3c-1,1.9-1.5,2.8-2.6,4.7
				c-1.6-0.9-2.5-1.4-4.1-2.3c3.1-5.1,4.7-7.7,7.8-12.9c2.2,1.3,3.3,2,5.6,3.1c1.2,0.6,2,1.2,2.7,2c0.6,0.7,1,1.5,1.2,2.4
				c0.1,0.8,0,1.7-0.3,2.6C208.6,262.3,208,262.9,207.3,263.4z M203.9,260.8c0.5-0.1,0.9-0.5,1.1-1c0.3-0.5,0.3-1,0.1-1.5
				c-0.2-0.5-0.7-0.9-1.3-1.2c-0.8-0.4-1.2-0.6-2-1c-0.7,1.3-1.1,2-1.8,3.3c0.8,0.4,1.2,0.7,2.1,1.1
				C202.8,260.8,203.4,260.9,203.9,260.8z"/>
			<path d="M223.4,273.8c-2.7-0.5-4-0.9-6.6-1.6c-0.7,0.9-1.1,1.4-1.8,2.2c-1.8-0.5-2.8-0.8-4.6-1.5c4.6-4.8,6.7-7.3,10.5-12.5
				c1.7,0.5,2.6,0.7,4.4,1.1c1,6.4,1.7,9.6,3.5,15.9c-1.9-0.3-2.9-0.4-4.8-0.8C223.7,275.5,223.6,274.9,223.4,273.8z M222.8,270.8
				c-0.4-2.3-0.6-3.5-0.8-5.8c-1.3,1.9-2,2.9-3.4,4.8C220.3,270.2,221.1,270.4,222.8,270.8z"/>
			<path d="M255.2,262.3c0.2,1.2,0.3,1.7,0.5,2.9c-2.6,0.4-4,0.6-6.6,0.8c0.1,1.3,0.1,1.9,0.2,3.2c2.1-0.2,3.1-0.3,5.2-0.6
				c0.2,1.1,0.2,1.7,0.4,2.8c-2.1,0.3-3.2,0.4-5.3,0.6c0.2,2.4,0.3,3.6,0.5,6.1c-1.8,0.1-2.7,0.2-4.6,0.3c-0.2-6-0.3-9-0.5-15
				C249.1,263.1,251.1,262.9,255.2,262.3z"/>
			<path d="M273.6,273.2c-2.2-1.6-3.3-2.5-5.4-4.3c-0.4,0.1-0.6,0.2-1,0.3c0.6,2.2,0.9,3.3,1.5,5.5c-1.8,0.5-2.7,0.7-4.4,1.1
				c-1.4-5.9-2-8.8-3.4-14.6c2.5-0.6,3.8-0.9,6.3-1.7c1.2-0.4,2.3-0.5,3.3-0.5c1,0.1,1.8,0.4,2.5,0.9c0.7,0.5,1.2,1.2,1.5,2
				c0.4,0.9,0.4,1.9,0.1,2.8c-0.3,1-1,1.8-2.2,2.6c2.3,1.7,3.5,2.5,6.1,4.1C276.6,272.2,275.6,272.5,273.6,273.2z M266.6,266.7
				c1-0.3,1.5-0.4,2.5-0.7c0.7-0.2,1.2-0.6,1.5-1c0.3-0.4,0.3-0.9,0.1-1.5c-0.2-0.5-0.5-0.9-1-1.1c-0.5-0.2-1-0.2-1.7,0
				c-1,0.3-1.4,0.4-2.4,0.7C266,264.6,266.2,265.3,266.6,266.7z"/>
			<path d="M283.5,255.6c0.6,1.1,0.9,1.6,1.5,2.7c2-1.1,3-1.7,4.9-2.9c0.6,1,0.9,1.4,1.5,2.4c-2,1.3-3,1.9-5.1,3
				c0.6,1.2,1,1.7,1.6,2.9c2.4-1.3,3.6-2,5.9-3.6c0.6,1,1,1.5,1.6,2.5c-4,2.6-6,3.8-10.2,5.9c-2.7-5.4-4-8.1-6.6-13.5
				c3.6-1.8,5.3-2.7,8.7-4.9c0.6,1,1,1.5,1.6,2.5C286.8,253.8,285.7,254.4,283.5,255.6z"/>
			<path d="M297.7,245.8c0.8,0.9,1.2,1.4,2,2.3c1.8-1.5,2.7-2.3,4.4-4c0.8,0.8,1.2,1.2,2,2c-1.8,1.7-2.7,2.6-4.5,4.1
				c0.9,1,1.3,1.5,2.1,2.5c2.2-1.9,3.2-2.8,5.3-4.9c0.8,0.8,1.2,1.2,2.1,2.1c-3.5,3.5-5.3,5.1-9.1,8.1c-3.7-4.8-5.5-7.1-9.2-11.9
				c3.2-2.5,4.8-3.9,7.7-6.8c0.8,0.8,1.2,1.2,2.1,2.1C300.6,243.2,299.7,244.1,297.7,245.8z"/>
		</g>
	</g>
	<polygon class="st2" points="241.9,122 243.8,126 248.1,126.6 245,129.6 245.7,134 241.9,131.9 238,134 238.7,129.6 235.6,126.6 
		239.9,126 	"/>
	<polygon class="st2" points="242.1,234.9 244.1,238.8 248.4,239.4 245.3,242.5 246,246.8 242.1,244.8 238.2,246.8 239,242.5 
		235.8,239.4 240.2,238.8 	"/>
	<path class="st2" d="M130.4,449.2"/>
	<path class="st11" d="M338.8,543c-16.8,40.4-57.8,67.5-103.9,64.6c-41.4-2.6-75.7-28.8-90.7-64.7"/>
	<path class="st11" d="M144.9,460.4c17.2-39.5,57.8-66,103.3-63.1c41.2,2.6,75.3,28.5,90.4,64.1"/>
	<path class="st3" d="M144.2,543"/>
	<path class="st11" d="M352.4,543c-17.4,48.1-64.9,81-118.5,77.6c-48.3-3-87.9-34.7-103.5-77.4"/>
	<path class="st11" d="M131.6,459c18.4-46.1,64.9-77.4,117.1-74.1c47.5,3,86.7,33.7,102.8,75.5"/>
	<path class="st4" d="M131.6,459"/>
	<path class="st4" d="M127.3,471.9"/>
	<path class="st4" d="M123.5,495.4"/>
	<path class="st4" d="M130.4,543.3"/>
	<path class="st11" d="M351.5,460.4h5.9c23.2,0,42,18.8,42,42v0c0,23.2-18.8,42-42,42h-232c-23.2,0-42-18.8-42-42v0
		c0-23.2,18.8-42,42-42h5.6"/>
	<line class="st11" x1="144.9" y1="460.4" x2="351.5" y2="460.4"/>
	<line class="st11" x1="131.1" y1="460.4" x2="144.9" y2="460.4"/>
	<path class="st12" d="M125.1,531.3c-15.6,0-28.2-12.6-28.2-28.2v0c0-15.6,12.6-28.2,28.2-28.2h232.2c15.6,0,28.2,12.6,28.2,28.2v0
		c0,15.6-12.6,28.2-28.2,28.2H125.1"/>
	<polyline class="st6" points="128.7,531.6 128.7,489.1 353.7,489.1 353.7,531.6 128.7,531.6 	"/>
	<text transform="matrix(0.9692 0 0 1 143.3066 515.3267)" class="st7 st8 st9 st10">BPA FREE</text>
	<g>
		<g>
			<path class="st7" d="M190.8,435.2c0.9,0.2,1.6,0.6,2.1,1.3c0.7,1,0.9,2.1,0.5,3.2c-0.3,1.1-1.2,2.2-2.5,3.3
				c-2.3,1.9-3.5,3-5.7,5.1c-4.1-4.1-6.2-6.2-10.3-10.3c2.5-2.5,3.8-3.7,6.5-5.9c1.5-1.3,2.9-1.9,4.2-2s2.2,0.3,2.9,1.3
				c0.5,0.7,0.7,1.4,0.6,2.2c-0.1,0.8-0.4,1.5-1,2.3C189,435.2,190,435.1,190.8,435.2z M182.4,439c0.9-0.8,1.3-1.2,2.2-1.9
				c0.5-0.5,0.9-0.9,1-1.4s0.1-0.9-0.3-1.2c-0.3-0.4-0.7-0.6-1.2-0.5c-0.5,0-1,0.3-1.6,0.8c-0.9,0.8-1.4,1.2-2.2,2
				C181.2,437.6,181.6,438,182.4,439z M189.6,439.9c0.1-0.4,0-0.9-0.3-1.3c-0.3-0.4-0.7-0.6-1.2-0.6c-0.5,0-1,0.3-1.6,0.7
				c-0.9,0.8-1.4,1.2-2.3,2c0.9,1,1.3,1.4,2.2,2.4c0.9-0.8,1.4-1.2,2.3-2C189.1,440.8,189.4,440.4,189.6,439.9z"/>
			<path class="st7" d="M207.4,424.2c-0.1,0.8-0.6,1.6-1.2,2.4c-0.7,0.8-1.6,1.5-2.8,2.1c-0.9,0.5-1.4,0.7-2.2,1.2
				c1,1.8,1.5,2.8,2.5,4.6c-1.4,0.7-2,1.1-3.3,1.9c-3-5-4.5-7.5-7.6-12.5c2.5-1.5,3.8-2.3,6.4-3.6c1.3-0.7,2.5-1,3.6-1.1
				c1.1-0.1,2,0.2,2.7,0.6c0.7,0.5,1.3,1.1,1.6,2C207.5,422.6,207.6,423.4,207.4,424.2z M203.2,425.1c0.2-0.5,0.2-1,0-1.5
				c-0.3-0.5-0.6-0.8-1.1-1c-0.5-0.1-1.1,0-1.9,0.4c-0.9,0.4-1.3,0.7-2.1,1.1c0.7,1.3,1,1.9,1.7,3.2c0.8-0.4,1.2-0.7,2-1.1
				C202.5,425.9,203,425.5,203.2,425.1z"/>
			<path class="st7" d="M225.1,423.9c-2.3,0.5-3.5,0.8-5.8,1.4c-0.1,1.1-0.1,1.6-0.2,2.7c-1.5,0.4-2.3,0.7-3.8,1.2
				c0.2-6.3,0.5-9.4,1.5-15.7c2-0.5,3-0.8,5-1.2c3.8,5.2,5.5,7.8,8.5,13.3c-1.6,0.2-2.4,0.4-3.9,0.7
				C226,425.3,225.7,424.8,225.1,423.9z M223.6,421.4c-1.3-1.9-1.9-2.9-3.3-4.7c-0.3,2.3-0.5,3.4-0.7,5.7
				C221.2,422,222,421.8,223.6,421.4z"/>
			<path class="st7" d="M256.5,411.4c-0.2,1.1-0.3,1.7-0.4,2.8c-2.8-0.4-4.3-0.6-7.1-0.8c-0.1,1.2-0.1,1.8-0.2,3.1
				c2.1,0.2,3.1,0.3,5.2,0.6c-0.2,1.1-0.2,1.6-0.4,2.7c-2-0.3-3-0.4-5-0.5c-0.2,2.4-0.3,3.5-0.5,5.9c-1.5-0.1-2.2-0.2-3.7-0.2
				c0.2-5.8,0.3-8.8,0.5-14.6C249.4,410.4,251.8,410.6,256.5,411.4z"/>
			<path class="st7" d="M267.4,429.1c-0.5-2.5-0.8-3.8-1.5-6.3c-0.4-0.1-0.6-0.2-0.9-0.3c-0.6,2.1-0.9,3.2-1.5,5.3
				c-1.5-0.4-2.2-0.6-3.6-0.9c1.3-5.7,2-8.5,3.3-14.2c2.9,0.7,4.4,1.1,7.2,2c1.4,0.4,2.5,1,3.3,1.8c0.8,0.7,1.3,1.5,1.5,2.3
				c0.2,0.8,0.1,1.6-0.2,2.4c-0.4,0.9-1,1.6-1.9,2.1c-0.9,0.5-1.9,0.7-3.2,0.6c0.7,2.7,1,4,1.5,6.7
				C269.8,429.9,269,429.6,267.4,429.1z M265.6,420.1c1,0.3,1.5,0.4,2.5,0.7c0.7,0.2,1.3,0.3,1.8,0.1c0.5-0.2,0.8-0.5,1-1.1
				c0.2-0.5,0.1-1-0.1-1.4c-0.3-0.4-0.8-0.8-1.5-1c-1-0.3-1.5-0.5-2.6-0.8C266.2,418,266,418.7,265.6,420.1z"/>
			<path class="st7" d="M286,424.5c-0.6,1-0.9,1.6-1.4,2.6c2,1.1,3,1.7,4.9,2.9c-0.6,0.9-0.9,1.4-1.5,2.3c-1.9-1.2-2.8-1.8-4.8-2.9
				c-0.6,1.1-0.9,1.7-1.6,2.8c2.1,1.2,3.2,1.8,5.2,3.1c-0.6,1-0.9,1.4-1.6,2.4c-3.3-2.1-5-3.1-8.4-4.8c2.6-5.2,3.9-7.9,6.5-13.1
				c4.1,2,6.1,3.1,9.9,5.7c-0.6,1-0.9,1.4-1.6,2.4C289.5,426.5,288.3,425.8,286,424.5z"/>
			<path class="st7" d="M301.2,435.1c-0.8,0.9-1.2,1.3-1.9,2.2c1.8,1.5,2.7,2.3,4.4,4c-0.8,0.8-1.2,1.2-1.9,2
				c-1.7-1.6-2.5-2.4-4.2-3.9c-0.8,1-1.3,1.5-2.1,2.4c1.9,1.6,2.8,2.5,4.6,4.3c-0.8,0.8-1.2,1.2-2,2c-2.9-2.9-4.4-4.2-7.5-6.6
				c3.6-4.6,5.4-6.9,8.9-11.5c3.7,2.9,5.5,4.4,8.9,7.8c-0.8,0.8-1.2,1.2-2,2C304.4,437.9,303.3,436.9,301.2,435.1z"/>
		</g>
	</g>
	<polygon class="st13" points="241.2,440.2 243.1,444.2 247.5,444.8 244.3,447.9 245.1,452.2 241.2,450.1 237.3,452.2 238.1,447.9 
		234.9,444.8 239.3,444.2 	"/>
	<polygon class="st13" points="241.5,553.1 243.4,557 247.8,557.7 244.6,560.7 245.4,565 241.5,563 237.6,565 238.3,560.7 
		235.2,557.7 239.5,557 	"/>
	<g>
		<g>
			<path class="st7" d="M188.1,572.6c0.1,0.9-0.1,1.7-0.6,2.5c-0.7,1-1.8,1.5-3.1,1.4c-1.3-0.1-2.8-0.8-4.4-2.1
				c-2.8-2.3-4.2-3.6-6.9-6.3c4.3-4.3,6.4-6.4,10.6-10.6c2.2,2.2,3.3,3.2,5.6,5.1c1.3,1.1,2.1,2.2,2.5,3.3c0.4,1.1,0.2,2.2-0.5,3.2
				c-0.5,0.7-1.2,1.2-2,1.3c-0.8,0.1-1.6,0-2.5-0.4C187.5,570.8,187.9,571.7,188.1,572.6z M182.6,564.9c0.9,0.8,1.3,1.2,2.2,1.9
				c0.5,0.5,1.1,0.7,1.5,0.8c0.5,0,0.9-0.1,1.2-0.5s0.4-0.8,0.3-1.3c-0.1-0.4-0.4-0.9-1-1.3c-0.8-0.7-1.3-1.1-2.1-1.8
				C183.9,563.5,183.4,563.9,182.6,564.9z M182.8,572.4c0.5,0.1,0.9-0.1,1.3-0.5c0.3-0.4,0.4-0.9,0.3-1.4c-0.1-0.5-0.5-1-1.1-1.5
				c-1-0.8-1.5-1.3-2.5-2.2c-0.9,1-1.3,1.5-2.2,2.5c1,0.9,1.6,1.4,2.6,2.3C181.8,572.1,182.3,572.4,182.8,572.4z"/>
			<path class="st7" d="M206.7,581.6c-0.7,0.5-1.6,0.7-2.7,0.7c-1.1,0-2.3-0.3-3.6-1c-1-0.5-1.5-0.7-2.4-1.3c-1,1.9-1.5,2.8-2.6,4.7
				c-1.6-0.9-2.5-1.4-4.1-2.3c3.1-5.1,4.7-7.7,7.8-12.9c2.2,1.3,3.3,2,5.6,3.1c1.2,0.6,2,1.2,2.7,2c0.6,0.7,1,1.5,1.2,2.4
				c0.1,0.8,0,1.7-0.3,2.6C207.9,580.5,207.4,581.2,206.7,581.6z M203.2,579c0.5-0.1,0.9-0.5,1.1-1s0.3-1,0.1-1.5
				c-0.2-0.5-0.7-0.9-1.3-1.2c-0.8-0.4-1.2-0.6-2-1c-0.7,1.3-1.1,2-1.8,3.3c0.8,0.4,1.2,0.7,2.1,1.1
				C202.1,579,202.7,579.1,203.2,579z"/>
			<path class="st7" d="M222.7,592c-2.7-0.5-4-0.9-6.6-1.6c-0.7,0.9-1.1,1.4-1.8,2.2c-1.8-0.5-2.8-0.8-4.6-1.5
				c4.6-4.8,6.7-7.3,10.5-12.5c1.7,0.5,2.6,0.7,4.4,1.1c1,6.4,1.7,9.6,3.5,15.9c-1.9-0.3-2.9-0.4-4.8-0.8
				C223,593.7,222.9,593.1,222.7,592z M222.2,589c-0.4-2.3-0.6-3.5-0.8-5.8c-1.3,1.9-2,2.9-3.4,4.8
				C219.6,588.4,220.5,588.6,222.2,589z"/>
			<path class="st7" d="M254.6,580.5c0.2,1.2,0.3,1.7,0.5,2.9c-2.6,0.4-4,0.6-6.6,0.8c0.1,1.3,0.1,1.9,0.2,3.2
				c2.1-0.2,3.1-0.3,5.2-0.6c0.2,1.1,0.2,1.7,0.4,2.8c-2.1,0.3-3.2,0.4-5.3,0.6c0.2,2.4,0.3,3.6,0.5,6.1c-1.8,0.1-2.7,0.2-4.6,0.3
				c-0.2-6-0.3-9-0.5-15C248.4,581.4,250.5,581.2,254.6,580.5z"/>
			<path class="st7" d="M273,591.4c-2.2-1.6-3.3-2.5-5.4-4.3c-0.4,0.1-0.6,0.2-1,0.3c0.6,2.2,0.9,3.3,1.5,5.5
				c-1.8,0.5-2.7,0.7-4.4,1.1c-1.4-5.9-2-8.8-3.4-14.6c2.5-0.6,3.8-0.9,6.3-1.7c1.2-0.4,2.3-0.5,3.3-0.5c1,0.1,1.8,0.4,2.5,0.9
				c0.7,0.5,1.2,1.2,1.5,2c0.4,0.9,0.4,1.9,0.1,2.8c-0.3,1-1,1.8-2.2,2.6c2.3,1.7,3.5,2.5,6.1,4.1C275.9,590.4,275,590.7,273,591.4z
				 M265.9,584.9c1-0.3,1.5-0.4,2.5-0.7c0.7-0.2,1.2-0.6,1.5-1c0.3-0.4,0.3-0.9,0.1-1.5c-0.2-0.5-0.5-0.9-1-1.1
				c-0.5-0.2-1-0.2-1.7,0c-1,0.3-1.4,0.4-2.4,0.7C265.3,582.8,265.5,583.5,265.9,584.9z"/>
			<path class="st7" d="M282.9,573.9c0.6,1.1,0.9,1.6,1.5,2.7c2-1.1,3-1.7,4.9-2.9c0.6,1,0.9,1.4,1.5,2.4c-2,1.3-3,1.9-5.1,3
				c0.6,1.2,1,1.7,1.6,2.9c2.4-1.3,3.6-2,5.9-3.6c0.6,1,1,1.5,1.6,2.5c-4,2.6-6,3.8-10.2,5.9c-2.7-5.4-4-8.1-6.6-13.5
				c3.6-1.8,5.3-2.7,8.7-4.9c0.6,1,1,1.5,1.6,2.5C286.1,572,285.1,572.6,282.9,573.9z"/>
			<path class="st7" d="M297.1,564c0.8,0.9,1.2,1.4,2,2.3c1.8-1.5,2.7-2.3,4.4-4c0.8,0.8,1.2,1.2,2,2c-1.8,1.7-2.7,2.6-4.5,4.1
				c0.9,1,1.3,1.5,2.1,2.5c2.2-1.9,3.2-2.8,5.3-4.9c0.8,0.8,1.2,1.2,2.1,2.1c-3.5,3.5-5.3,5.1-9.1,8.1c-3.7-4.8-5.5-7.1-9.2-11.9
				c3.2-2.5,4.8-3.9,7.7-6.8c0.8,0.8,1.2,1.2,2.1,2.1C300,561.4,299,562.3,297.1,564z"/>
		</g>
	</g>
	<path class="st2" d="M498.4,135"/>
	<path class="st3" d="M750.9,224.8c-16.8,40.4-57.8,67.5-103.9,64.6c-41.4-2.6-75.7-28.8-90.7-64.7"/>
	<path class="st3" d="M557,142.3c17.2-39.5,57.8-66,103.3-63.1c41.2,2.6,75.3,28.5,90.4,64.1"/>
	<path class="st3" d="M556.3,224.8"/>
	<path class="st4" d="M764.4,224.8c-17.4,48.1-64.9,81-118.5,77.6c-48.3-3-87.9-34.7-103.5-77.4"/>
	<path class="st4" d="M543.7,140.8c18.4-46.1,64.9-77.4,117.1-74.1c47.5,3,86.7,33.7,102.8,75.5"/>
	<path class="st4" d="M499.7,144.8"/>
	<path class="st4" d="M495.4,157.8"/>
	<path class="st4" d="M491.6,181.2"/>
	<path class="st4" d="M498.4,229.1"/>
	<path class="st4" d="M763.6,142.3h5.9c23.2,0,42,18.8,42,42v0c0,23.2-18.8,42-42,42h-232c-23.2,0-42-18.8-42-42v0
		c0-23.2,18.8-42,42-42h5.6"/>
	<line class="st4" x1="557" y1="142.3" x2="763.6" y2="142.3"/>
	<line class="st4" x1="543.1" y1="142.3" x2="557" y2="142.3"/>
	<path class="st5" d="M537.1,213.1c-15.6,0-28.2-12.6-28.2-28.2v0c0-15.6,12.6-28.2,28.2-28.2h232.2c15.6,0,28.2,12.6,28.2,28.2v0
		c0,15.6-12.6,28.2-28.2,28.2H537.1"/>
	<polyline class="st6" points="540.8,213.4 540.8,170.9 765.8,170.9 765.8,213.4 540.8,213.4 	"/>
	<text transform="matrix(0.9692 0 0 1 555.3834 197.1409)" class="st7 st8 st9 st10">BPA FREE</text>
	<g>
		<g>
			<path d="M602.9,117c0.9,0.2,1.6,0.6,2.1,1.3c0.7,1,0.9,2.1,0.5,3.2c-0.3,1.1-1.2,2.2-2.5,3.3c-2.3,1.9-3.5,3-5.7,5.1
				c-4.1-4.1-6.2-6.2-10.3-10.3c2.5-2.5,3.8-3.7,6.5-5.9c1.5-1.3,2.9-1.9,4.2-2c1.3-0.1,2.2,0.3,2.9,1.3c0.5,0.7,0.7,1.4,0.6,2.2
				c-0.1,0.8-0.4,1.5-1,2.3C601.1,117,602,116.9,602.9,117z M594.5,120.8c0.9-0.8,1.3-1.2,2.2-1.9c0.5-0.5,0.9-0.9,1-1.4
				c0.1-0.4,0.1-0.9-0.3-1.2c-0.3-0.4-0.7-0.6-1.2-0.5c-0.5,0-1,0.3-1.6,0.8c-0.9,0.8-1.4,1.2-2.2,2
				C593.2,119.4,593.6,119.9,594.5,120.8z M601.6,121.8c0.1-0.4,0-0.9-0.3-1.3c-0.3-0.4-0.7-0.6-1.2-0.6c-0.5,0-1,0.3-1.6,0.7
				c-0.9,0.8-1.4,1.2-2.3,2c0.9,1,1.3,1.4,2.2,2.4c0.9-0.8,1.4-1.2,2.3-2C601.2,122.6,601.5,122.2,601.6,121.8z"/>
			<path d="M619.5,106c-0.1,0.8-0.6,1.6-1.2,2.4c-0.7,0.8-1.6,1.5-2.8,2.1c-0.9,0.5-1.4,0.7-2.2,1.2c1,1.8,1.5,2.8,2.5,4.6
				c-1.4,0.7-2,1.1-3.3,1.9c-3-5-4.5-7.5-7.6-12.5c2.5-1.5,3.8-2.3,6.4-3.6c1.3-0.7,2.5-1,3.6-1.1c1.1-0.1,2,0.2,2.7,0.6
				c0.7,0.5,1.3,1.1,1.6,2C619.6,104.4,619.6,105.2,619.5,106z M615.3,106.9c0.2-0.5,0.2-1,0-1.5c-0.3-0.5-0.6-0.8-1.1-1
				c-0.5-0.1-1.1,0-1.9,0.4c-0.9,0.4-1.3,0.7-2.1,1.1c0.7,1.3,1,1.9,1.7,3.2c0.8-0.4,1.2-0.7,2-1.1
				C614.6,107.7,615.1,107.3,615.3,106.9z"/>
			<path d="M637.2,105.7c-2.3,0.5-3.5,0.8-5.8,1.4c-0.1,1.1-0.1,1.6-0.2,2.7c-1.5,0.4-2.3,0.7-3.8,1.2c0.2-6.3,0.5-9.4,1.5-15.7
				c2-0.5,3-0.8,5-1.2c3.8,5.2,5.5,7.8,8.5,13.3c-1.6,0.2-2.4,0.4-3.9,0.7C638.1,107.1,637.8,106.7,637.2,105.7z M635.6,103.3
				c-1.3-1.9-1.9-2.9-3.3-4.7c-0.3,2.3-0.5,3.4-0.7,5.7C633.3,103.8,634.1,103.6,635.6,103.3z"/>
			<path d="M668.5,93.2c-0.2,1.1-0.3,1.7-0.4,2.8c-2.8-0.4-4.3-0.6-7.1-0.8c-0.1,1.2-0.1,1.8-0.2,3.1c2.1,0.2,3.1,0.3,5.2,0.6
				c-0.2,1.1-0.2,1.6-0.4,2.7c-2-0.3-3-0.4-5-0.5c-0.2,2.4-0.3,3.5-0.5,5.9c-1.5-0.1-2.2-0.2-3.7-0.2c0.2-5.8,0.3-8.8,0.5-14.6
				C661.5,92.2,663.8,92.5,668.5,93.2z"/>
			<path d="M679.4,110.9c-0.5-2.5-0.8-3.8-1.5-6.3c-0.4-0.1-0.6-0.2-0.9-0.3c-0.6,2.1-0.9,3.2-1.5,5.3c-1.5-0.4-2.2-0.6-3.6-0.9
				c1.3-5.7,2-8.5,3.3-14.2c2.9,0.7,4.4,1.1,7.2,2c1.4,0.4,2.5,1,3.3,1.8c0.8,0.7,1.3,1.5,1.5,2.3c0.2,0.8,0.1,1.6-0.2,2.4
				c-0.4,0.9-1,1.6-1.9,2.1c-0.9,0.5-1.9,0.7-3.2,0.6c0.7,2.7,1,4,1.5,6.7C681.9,111.7,681.1,111.4,679.4,110.9z M677.7,101.9
				c1,0.3,1.5,0.4,2.5,0.7c0.7,0.2,1.3,0.3,1.8,0.1c0.5-0.2,0.8-0.5,1-1.1c0.2-0.5,0.1-1-0.1-1.4c-0.3-0.4-0.8-0.8-1.5-1
				c-1-0.3-1.5-0.5-2.6-0.8C678.3,99.8,678.1,100.5,677.7,101.9z"/>
			<path d="M698.1,106.3c-0.6,1-0.9,1.6-1.4,2.6c2,1.1,3,1.7,4.9,2.9c-0.6,0.9-0.9,1.4-1.5,2.3c-1.9-1.2-2.8-1.8-4.8-2.9
				c-0.6,1.1-0.9,1.7-1.6,2.8c2.1,1.2,3.2,1.8,5.2,3.1c-0.6,1-0.9,1.4-1.6,2.4c-3.3-2.1-5-3.1-8.4-4.8c2.6-5.2,3.9-7.9,6.5-13.1
				c4.1,2,6.1,3.1,9.9,5.7c-0.6,1-0.9,1.4-1.6,2.4C701.5,108.3,700.4,107.6,698.1,106.3z"/>
			<path d="M713.3,116.9c-0.8,0.9-1.2,1.3-1.9,2.2c1.8,1.5,2.7,2.3,4.4,4c-0.8,0.8-1.2,1.2-1.9,2c-1.7-1.6-2.5-2.4-4.2-3.9
				c-0.8,1-1.3,1.5-2.1,2.4c1.9,1.6,2.8,2.5,4.6,4.3c-0.8,0.8-1.2,1.2-2,2c-2.9-2.9-4.4-4.2-7.5-6.6c3.6-4.6,5.4-6.9,8.9-11.5
				c3.7,2.9,5.5,4.4,8.9,7.8c-0.8,0.8-1.2,1.2-2,2C716.4,119.7,715.4,118.7,713.3,116.9z"/>
		</g>
	</g>
	<g>
		<g>
			<path d="M600.1,254.4c0.1,0.9-0.1,1.7-0.6,2.5c-0.7,1-1.8,1.5-3.1,1.4c-1.3-0.1-2.8-0.8-4.4-2.1c-2.8-2.3-4.2-3.6-6.9-6.3
				c4.3-4.3,6.4-6.4,10.6-10.6c2.2,2.2,3.3,3.2,5.6,5.1c1.3,1.1,2.1,2.2,2.5,3.3c0.4,1.1,0.2,2.2-0.5,3.2c-0.5,0.7-1.2,1.2-2,1.3
				c-0.8,0.1-1.6,0-2.5-0.4C599.6,252.6,600,253.5,600.1,254.4z M594.7,246.7c0.9,0.8,1.3,1.2,2.2,1.9c0.5,0.5,1.1,0.7,1.5,0.7
				c0.5,0,0.9-0.1,1.2-0.5c0.3-0.4,0.4-0.8,0.3-1.3c-0.1-0.4-0.4-0.9-1-1.3c-0.8-0.7-1.3-1.1-2.1-1.8
				C595.9,245.3,595.5,245.7,594.7,246.7z M594.9,254.2c0.5,0.1,0.9-0.1,1.3-0.5c0.3-0.4,0.4-0.9,0.3-1.4c-0.1-0.5-0.5-1-1.1-1.5
				c-1-0.8-1.5-1.3-2.5-2.2c-0.9,1-1.3,1.5-2.2,2.5c1,0.9,1.6,1.4,2.6,2.3C593.9,253.9,594.4,254.2,594.9,254.2z"/>
			<path d="M618.8,263.4c-0.7,0.5-1.6,0.7-2.7,0.7s-2.3-0.3-3.6-1c-1-0.5-1.5-0.7-2.4-1.3c-1,1.9-1.5,2.8-2.6,4.7
				c-1.6-0.9-2.5-1.4-4.1-2.3c3.1-5.1,4.7-7.7,7.8-12.9c2.2,1.3,3.3,2,5.6,3.1c1.2,0.6,2,1.2,2.7,2c0.6,0.7,1,1.5,1.2,2.4
				c0.1,0.8,0,1.7-0.3,2.6C620,262.3,619.5,263,618.8,263.4z M615.3,260.8c0.5-0.1,0.9-0.5,1.1-1c0.3-0.5,0.3-1,0.1-1.5
				c-0.2-0.5-0.7-0.9-1.3-1.2c-0.8-0.4-1.2-0.6-2-1c-0.7,1.3-1.1,2-1.8,3.3c0.8,0.4,1.2,0.7,2.1,1.1
				C614.2,260.8,614.8,260.9,615.3,260.8z"/>
			<path d="M634.8,273.8c-2.7-0.5-4-0.9-6.6-1.6c-0.7,0.9-1.1,1.4-1.8,2.2c-1.8-0.5-2.8-0.8-4.6-1.5c4.6-4.8,6.7-7.3,10.5-12.5
				c1.7,0.5,2.6,0.7,4.4,1.1c1,6.4,1.7,9.6,3.5,15.9c-1.9-0.3-2.9-0.4-4.8-0.8C635.1,275.5,635,274.9,634.8,273.8z M634.3,270.8
				c-0.4-2.3-0.6-3.5-0.8-5.8c-1.3,1.9-2,2.9-3.4,4.8C631.7,270.2,632.6,270.4,634.3,270.8z"/>
			<path d="M666.6,262.3c0.2,1.2,0.3,1.7,0.5,2.9c-2.6,0.4-4,0.6-6.6,0.8c0.1,1.3,0.1,1.9,0.2,3.2c2.1-0.2,3.1-0.3,5.2-0.6
				c0.2,1.1,0.2,1.7,0.4,2.8c-2.1,0.3-3.2,0.4-5.3,0.6c0.2,2.4,0.3,3.6,0.5,6.1c-1.8,0.1-2.7,0.2-4.6,0.3c-0.2-6-0.3-9-0.5-15
				C660.5,263.2,662.6,263,666.6,262.3z"/>
			<path d="M685.1,273.2c-2.2-1.6-3.3-2.5-5.4-4.3c-0.4,0.1-0.6,0.2-1,0.3c0.6,2.2,0.9,3.3,1.5,5.5c-1.8,0.5-2.7,0.7-4.4,1.1
				c-1.4-5.9-2-8.8-3.4-14.6c2.5-0.6,3.8-0.9,6.3-1.7c1.2-0.4,2.3-0.5,3.3-0.5c1,0.1,1.8,0.4,2.5,0.9c0.7,0.5,1.2,1.2,1.5,2
				c0.4,0.9,0.4,1.9,0.1,2.8c-0.3,1-1,1.8-2.2,2.6c2.3,1.7,3.5,2.5,6.1,4.1C688,272.2,687,272.6,685.1,273.2z M678,266.8
				c1-0.3,1.5-0.4,2.5-0.7c0.7-0.2,1.2-0.6,1.5-1c0.3-0.4,0.3-0.9,0.1-1.5c-0.2-0.5-0.5-0.9-1-1.1c-0.5-0.2-1-0.2-1.7,0
				c-1,0.3-1.4,0.4-2.4,0.7C677.4,264.6,677.6,265.3,678,266.8z"/>
			<path d="M695,255.7c0.6,1.1,0.9,1.6,1.5,2.7c2-1.1,3-1.7,4.9-2.9c0.6,1,0.9,1.4,1.5,2.4c-2,1.3-3,1.9-5.1,3
				c0.6,1.2,1,1.7,1.6,2.9c2.4-1.3,3.6-2,5.9-3.6c0.6,1,1,1.5,1.6,2.5c-4,2.6-6,3.8-10.2,5.9c-2.7-5.4-4-8.1-6.6-13.5
				c3.6-1.8,5.3-2.7,8.7-4.9c0.6,1,1,1.5,1.6,2.5C698.2,253.8,697.1,254.5,695,255.7z"/>
			<path d="M709.1,245.8c0.8,0.9,1.2,1.4,2,2.3c1.8-1.5,2.7-2.3,4.4-4c0.8,0.8,1.2,1.2,2,2c-1.8,1.7-2.7,2.6-4.5,4.1
				c0.9,1,1.3,1.5,2.1,2.5c2.2-1.9,3.2-2.8,5.3-4.9c0.8,0.8,1.2,1.2,2.1,2.1c-3.5,3.5-5.3,5.1-9.1,8.1c-3.7-4.8-5.5-7.1-9.2-11.9
				c3.2-2.5,4.8-3.9,7.7-6.8c0.8,0.8,1.2,1.2,2.1,2.1C712,243.2,711.1,244.1,709.1,245.8z"/>
		</g>
	</g>
	<polygon class="st2" points="653.3,122.1 655.2,126 659.6,126.6 656.4,129.7 657.2,134 653.3,132 649.4,134 650.1,129.7 647,126.6 
		651.3,126 	"/>
	<polygon class="st2" points="653.6,234.9 655.5,238.8 659.8,239.5 656.7,242.5 657.4,246.9 653.6,244.8 649.7,246.9 650.4,242.5 
		647.3,239.5 651.6,238.8 	"/>
	<path class="st14" d="M338.1,278.8"/>
	<path class="st15" d="M438.8,314.7c-6.7,16.1-23.1,26.9-41.5,25.8c-16.5-1-30.2-11.5-36.2-25.8"/>
	<path class="st15" d="M361.5,281.7c6.9-15.8,23-26.3,41.2-25.2c16.4,1,30.1,11.4,36.1,25.6"/>
	<path class="st15" d="M361.2,314.6"/>
	<path class="st16" d="M444.2,314.7c-6.9,19.2-25.9,32.3-47.3,31c-19.3-1.2-35.1-13.8-41.3-30.9"/>
	<path class="st16" d="M356.2,281.1c7.3-18.4,25.9-30.9,46.7-29.5c19,1.2,34.6,13.5,41,30.1"/>
	<path class="st16" d="M338.6,282.7"/>
	<path class="st16" d="M336.9,287.9"/>
	<path class="st16" d="M335.4,297.2"/>
	<path class="st16" d="M338.1,316.3"/>
	<path class="st16" d="M443.9,281.7h2.4c9.2,0,16.7,7.5,16.7,16.7v0c0,9.2-7.5,16.7-16.7,16.7h-92.5c-9.2,0-16.7-7.5-16.7-16.7v0
		c0-9.2,7.5-16.7,16.7-16.7h2.2"/>
	<line class="st16" x1="361.5" y1="281.7" x2="443.9" y2="281.7"/>
	<line class="st16" x1="355.9" y1="281.7" x2="361.5" y2="281.7"/>
	<path class="st17" d="M353.5,310c-6.2,0-11.3-5-11.3-11.3v0c0-6.2,5-11.3,11.3-11.3h92.6c6.2,0,11.3,5,11.3,11.3v0
		c0,6.2-5,11.3-11.3,11.3H353.5"/>
	<polyline class="st6" points="355,310.1 355,293.1 444.8,293.1 444.8,310.1 355,310.1 	"/>
	<text transform="matrix(0.9692 0 0 1 360.8242 303.6035)" class="st7 st8 st18 st19">BPA FREE</text>
	<g>
		<g>
			<path d="M379.8,271.6c0.4,0.1,0.6,0.2,0.8,0.5c0.3,0.4,0.3,0.8,0.2,1.3c-0.1,0.5-0.5,0.9-1,1.3c-0.9,0.8-1.4,1.2-2.3,2.1
				c-1.6-1.6-2.5-2.5-4.1-4.1c1-1,1.5-1.5,2.6-2.4c0.6-0.5,1.2-0.8,1.7-0.8c0.5,0,0.9,0.1,1.2,0.5c0.2,0.3,0.3,0.6,0.2,0.9
				c0,0.3-0.2,0.6-0.4,0.9C379.1,271.6,379.4,271.6,379.8,271.6z M376.4,273.1c0.3-0.3,0.5-0.5,0.9-0.8c0.2-0.2,0.4-0.4,0.4-0.5
				c0.1-0.2,0-0.3-0.1-0.5c-0.1-0.2-0.3-0.2-0.5-0.2c-0.2,0-0.4,0.1-0.6,0.3c-0.4,0.3-0.5,0.5-0.9,0.8
				C375.9,272.6,376.1,272.8,376.4,273.1z M379.3,273.5c0-0.2,0-0.3-0.1-0.5c-0.1-0.2-0.3-0.2-0.5-0.2c-0.2,0-0.4,0.1-0.6,0.3
				c-0.4,0.3-0.6,0.5-0.9,0.8c0.3,0.4,0.5,0.6,0.9,1c0.4-0.3,0.5-0.5,0.9-0.8C379.1,273.9,379.2,273.7,379.3,273.5z"/>
			<path d="M386.4,267.3c-0.1,0.3-0.2,0.6-0.5,1c-0.3,0.3-0.6,0.6-1.1,0.8c-0.4,0.2-0.5,0.3-0.9,0.5c0.4,0.7,0.6,1.1,1,1.8
				c-0.5,0.3-0.8,0.4-1.3,0.8c-1.2-2-1.8-3-3-5c1-0.6,1.5-0.9,2.6-1.4c0.5-0.3,1-0.4,1.5-0.4c0.4,0,0.8,0.1,1.1,0.2
				c0.3,0.2,0.5,0.4,0.6,0.8C386.4,266.6,386.5,266.9,386.4,267.3z M384.7,267.6c0.1-0.2,0.1-0.4,0-0.6c-0.1-0.2-0.2-0.3-0.5-0.4
				c-0.2,0-0.5,0-0.8,0.2c-0.3,0.2-0.5,0.3-0.8,0.4c0.3,0.5,0.4,0.8,0.7,1.3c0.3-0.2,0.5-0.3,0.8-0.4
				C384.5,267.9,384.6,267.8,384.7,267.6z"/>
			<path d="M393.5,267.1c-0.9,0.2-1.4,0.3-2.3,0.6c0,0.4-0.1,0.7-0.1,1.1c-0.6,0.2-0.9,0.3-1.5,0.5c0.1-2.5,0.2-3.8,0.6-6.3
				c0.8-0.2,1.2-0.3,2-0.5c1.5,2.1,2.2,3.1,3.4,5.3c-0.6,0.1-0.9,0.1-1.6,0.3C393.8,267.7,393.7,267.5,393.5,267.1z M392.8,266.1
				c-0.5-0.8-0.8-1.1-1.3-1.9c-0.1,0.9-0.2,1.4-0.3,2.3C391.9,266.4,392.2,266.3,392.8,266.1z"/>
			<path d="M406,262.1c-0.1,0.4-0.1,0.7-0.2,1.1c-1.1-0.2-1.7-0.2-2.8-0.3c0,0.5-0.1,0.7-0.1,1.2c0.8,0.1,1.2,0.1,2.1,0.2
				c-0.1,0.4-0.1,0.7-0.2,1.1c-0.8-0.1-1.2-0.2-2-0.2c-0.1,0.9-0.1,1.4-0.2,2.3c-0.6,0-0.9-0.1-1.5-0.1c0.1-2.3,0.1-3.5,0.2-5.8
				C403.2,261.8,404.1,261.8,406,262.1z"/>
			<path d="M410.3,269.2c-0.2-1-0.3-1.5-0.6-2.5c-0.1,0-0.2-0.1-0.4-0.1c-0.2,0.8-0.4,1.3-0.6,2.1c-0.6-0.2-0.9-0.2-1.5-0.4
				c0.5-2.3,0.8-3.4,1.3-5.7c1.2,0.3,1.7,0.4,2.9,0.8c0.5,0.2,1,0.4,1.3,0.7c0.3,0.3,0.5,0.6,0.6,0.9c0.1,0.3,0.1,0.7-0.1,1
				c-0.1,0.4-0.4,0.6-0.7,0.8c-0.3,0.2-0.8,0.3-1.3,0.2c0.3,1.1,0.4,1.6,0.6,2.7C411.3,269.5,411,269.4,410.3,269.2z M409.6,265.6
				c0.4,0.1,0.6,0.2,1,0.3c0.3,0.1,0.5,0.1,0.7,0c0.2-0.1,0.3-0.2,0.4-0.4c0.1-0.2,0.1-0.4-0.1-0.6c-0.1-0.2-0.3-0.3-0.6-0.4
				c-0.4-0.1-0.6-0.2-1-0.3C409.9,264.8,409.8,265.1,409.6,265.6z"/>
			<path d="M417.7,267.4c-0.2,0.4-0.3,0.6-0.6,1c0.8,0.4,1.2,0.7,2,1.2c-0.2,0.4-0.4,0.6-0.6,0.9c-0.8-0.5-1.1-0.7-1.9-1.1
				c-0.2,0.4-0.4,0.7-0.6,1.1c0.8,0.5,1.3,0.7,2.1,1.2c-0.2,0.4-0.4,0.6-0.6,1c-1.3-0.9-2-1.2-3.4-1.9c1-2.1,1.5-3.1,2.6-5.2
				c1.6,0.8,2.4,1.3,4,2.3c-0.2,0.4-0.4,0.6-0.6,1C419.1,268.2,418.7,267.9,417.7,267.4z"/>
			<path d="M423.8,271.6c-0.3,0.4-0.5,0.5-0.8,0.9c0.7,0.6,1.1,0.9,1.7,1.6c-0.3,0.3-0.5,0.5-0.8,0.8c-0.7-0.6-1-1-1.7-1.6
				c-0.3,0.4-0.5,0.6-0.8,1c0.8,0.6,1.1,1,1.8,1.7c-0.3,0.3-0.5,0.5-0.8,0.8c-1.1-1.1-1.7-1.7-3-2.6c1.4-1.8,2.1-2.8,3.6-4.6
				c1.5,1.1,2.2,1.8,3.5,3.1c-0.3,0.3-0.5,0.5-0.8,0.8C425.1,272.7,424.7,272.3,423.8,271.6z"/>
		</g>
	</g>
	<g>
		<g>
			<path d="M378.7,326.5c0,0.4,0,0.7-0.2,1c-0.3,0.4-0.7,0.6-1.2,0.6c-0.5,0-1.1-0.3-1.8-0.8c-1.1-0.9-1.7-1.4-2.7-2.5
				c1.7-1.7,2.5-2.5,4.2-4.2c0.9,0.9,1.3,1.3,2.2,2c0.5,0.4,0.9,0.9,1,1.3c0.1,0.5,0.1,0.9-0.2,1.3c-0.2,0.3-0.5,0.5-0.8,0.5
				c-0.3,0.1-0.6,0-1-0.1C378.5,325.7,378.6,326.1,378.7,326.5z M376.5,323.4c0.3,0.3,0.5,0.5,0.9,0.8c0.2,0.2,0.4,0.3,0.6,0.3
				c0.2,0,0.3-0.1,0.5-0.2c0.1-0.2,0.2-0.3,0.1-0.5c0-0.2-0.2-0.4-0.4-0.5c-0.3-0.3-0.5-0.4-0.8-0.7
				C377,322.8,376.8,323,376.5,323.4z M376.6,326.4c0.2,0,0.4-0.1,0.5-0.2c0.1-0.2,0.2-0.3,0.1-0.5c-0.1-0.2-0.2-0.4-0.4-0.6
				c-0.4-0.3-0.6-0.5-1-0.9c-0.4,0.4-0.5,0.6-0.9,1c0.4,0.4,0.6,0.6,1,0.9C376.2,326.3,376.4,326.4,376.6,326.4z"/>
			<path d="M386.1,330.1c-0.3,0.2-0.6,0.3-1.1,0.3c-0.4,0-0.9-0.1-1.4-0.4c-0.4-0.2-0.6-0.3-1-0.5c-0.4,0.8-0.6,1.1-1,1.9
				c-0.7-0.4-1-0.5-1.6-0.9c1.2-2.1,1.9-3.1,3.1-5.1c0.9,0.5,1.3,0.8,2.2,1.2c0.5,0.2,0.8,0.5,1.1,0.8c0.3,0.3,0.4,0.6,0.5,1
				c0.1,0.3,0,0.7-0.1,1C386.6,329.6,386.4,329.9,386.1,330.1z M384.7,329c0.2,0,0.3-0.2,0.5-0.4c0.1-0.2,0.1-0.4,0-0.6
				c-0.1-0.2-0.3-0.3-0.5-0.5c-0.3-0.2-0.5-0.2-0.8-0.4c-0.3,0.5-0.4,0.8-0.7,1.3c0.3,0.2,0.5,0.3,0.8,0.4
				C384.3,329,384.5,329,384.7,329z"/>
			<path d="M392.5,334.2c-1.1-0.2-1.6-0.3-2.6-0.6c-0.3,0.4-0.4,0.5-0.7,0.9c-0.7-0.2-1.1-0.3-1.8-0.6c1.8-1.9,2.7-2.9,4.2-5
				c0.7,0.2,1,0.3,1.7,0.4c0.4,2.5,0.7,3.8,1.4,6.3c-0.8-0.1-1.1-0.2-1.9-0.3C392.6,334.9,392.6,334.6,392.5,334.2z M392.3,333
				c-0.2-0.9-0.2-1.4-0.3-2.3c-0.5,0.8-0.8,1.2-1.4,1.9C391.3,332.8,391.6,332.8,392.3,333z"/>
			<path d="M405.2,329.6c0.1,0.5,0.1,0.7,0.2,1.2c-1.1,0.2-1.6,0.2-2.6,0.3c0,0.5,0.1,0.8,0.1,1.3c0.8-0.1,1.2-0.1,2.1-0.2
				c0.1,0.5,0.1,0.7,0.2,1.1c-0.8,0.1-1.3,0.2-2.1,0.2c0.1,1,0.1,1.5,0.2,2.4c-0.7,0.1-1.1,0.1-1.8,0.1c-0.1-2.4-0.1-3.6-0.2-6
				C402.8,329.9,403.6,329.9,405.2,329.6z"/>
			<path d="M412.6,334c-0.9-0.7-1.3-1-2.1-1.7c-0.2,0-0.2,0.1-0.4,0.1c0.2,0.9,0.4,1.3,0.6,2.2c-0.7,0.2-1.1,0.3-1.8,0.5
				c-0.5-2.3-0.8-3.5-1.4-5.8c1-0.2,1.5-0.4,2.5-0.7c0.5-0.2,0.9-0.2,1.3-0.2c0.4,0,0.7,0.1,1,0.4s0.5,0.5,0.6,0.8
				c0.1,0.4,0.2,0.7,0,1.1c-0.1,0.4-0.4,0.7-0.9,1c0.9,0.7,1.4,1,2.4,1.6C413.7,333.5,413.3,333.7,412.6,334z M409.7,331.4
				c0.4-0.1,0.6-0.2,1-0.3c0.3-0.1,0.5-0.2,0.6-0.4c0.1-0.2,0.1-0.4,0-0.6c-0.1-0.2-0.2-0.4-0.4-0.4c-0.2-0.1-0.4-0.1-0.7,0
				c-0.4,0.1-0.6,0.2-1,0.3C409.5,330.5,409.6,330.8,409.7,331.4z"/>
			<path d="M416.5,327c0.2,0.4,0.4,0.6,0.6,1.1c0.8-0.4,1.2-0.7,2-1.2c0.2,0.4,0.4,0.6,0.6,0.9c-0.8,0.5-1.2,0.8-2,1.2
				c0.3,0.5,0.4,0.7,0.6,1.2c1-0.5,1.4-0.8,2.4-1.4c0.3,0.4,0.4,0.6,0.6,1c-1.6,1-2.4,1.5-4.1,2.3c-1.1-2.2-1.6-3.2-2.6-5.4
				c1.4-0.7,2.1-1.1,3.5-2c0.3,0.4,0.4,0.6,0.6,1C417.8,326.2,417.4,326.5,416.5,327z"/>
			<path d="M422.2,323c0.3,0.4,0.5,0.6,0.8,0.9c0.7-0.6,1.1-0.9,1.7-1.6c0.3,0.3,0.5,0.5,0.8,0.8c-0.7,0.7-1.1,1-1.8,1.6
				c0.3,0.4,0.5,0.6,0.9,1c0.9-0.7,1.3-1.1,2.1-1.9c0.3,0.3,0.5,0.5,0.8,0.8c-1.4,1.4-2.1,2-3.6,3.2c-1.5-1.9-2.2-2.8-3.7-4.7
				c1.3-1,1.9-1.5,3.1-2.7c0.3,0.3,0.5,0.5,0.8,0.8C423.3,322,422.9,322.3,422.2,323z"/>
		</g>
	</g>
	<polygon class="st14" points="399.9,273.7 400.7,275.2 402.4,275.5 401.1,276.7 401.4,278.4 399.9,277.6 398.3,278.4 398.6,276.7 
		397.4,275.5 399.1,275.2 	"/>
	<polygon class="st14" points="400,318.7 400.8,320.2 402.5,320.5 401.2,321.7 401.5,323.4 400,322.6 398.4,323.4 398.7,321.7 
		397.5,320.5 399.2,320.2 	"/>
	<path class="st20" d="M339.4,606.5"/>
	<path class="st21" d="M426.7,645.7c-7,16.9-24.2,28.3-43.5,27c-17.3-1.1-31.7-12.1-37.9-27.1"/>
	<path class="st21" d="M345.5,611.2c7.2-16.5,24.2-27.6,43.2-26.4c17.2,1.1,31.5,11.9,37.8,26.8"/>
	<path class="st22" d="M345.3,645.7"/>
	<path class="st21" d="M432.3,645.7c-7.3,20.1-27.1,33.9-49.6,32.5c-20.2-1.3-36.8-14.5-43.3-32.4"/>
	<path class="st21" d="M340,610.6c7.7-19.3,27.1-32.4,49-31c19.9,1.3,36.3,14.1,43,31.6"/>
	<path class="st23" d="M340,610.6"/>
	<path class="st23" d="M338.2,616"/>
	<path class="st23" d="M336.6,625.8"/>
	<path class="st23" d="M339.4,645.8"/>
	<path class="st21" d="M432,611.2h2.5c9.7,0,17.6,7.9,17.6,17.6v0c0,9.7-7.9,17.6-17.6,17.6h-97c-9.7,0-17.6-7.9-17.6-17.6v0
		c0-9.7,7.9-17.6,17.6-17.6h2.3"/>
	<line class="st21" x1="345.5" y1="611.2" x2="432" y2="611.2"/>
	<line class="st21" x1="339.7" y1="611.2" x2="345.5" y2="611.2"/>
	<path class="st24" d="M337.2,640.8c-6.5,0-11.8-5.3-11.8-11.8l0,0c0-6.5,5.3-11.8,11.8-11.8h97.1c6.5,0,11.8,5.3,11.8,11.8l0,0
		c0,6.5-5.3,11.8-11.8,11.8H337.2"/>
	<polyline class="st6" points="338.7,640.9 338.7,623.2 432.9,623.2 432.9,640.9 338.7,640.9 	"/>
	<text transform="matrix(0.9692 0 0 1 344.8604 634.1348)" class="st7 st8 st25 st19">BPA FREE</text>
	<g>
		<g>
			<path class="st7" d="M364.7,600.6c0.4,0.1,0.7,0.3,0.9,0.5c0.3,0.4,0.4,0.9,0.2,1.3c-0.1,0.5-0.5,0.9-1,1.4
				c-1,0.8-1.5,1.2-2.4,2.2c-1.7-1.7-2.6-2.6-4.3-4.3c1-1,1.6-1.5,2.7-2.5c0.6-0.5,1.2-0.8,1.8-0.8c0.5,0,0.9,0.1,1.2,0.5
				c0.2,0.3,0.3,0.6,0.2,0.9c0,0.3-0.2,0.6-0.4,0.9C364,600.6,364.4,600.6,364.7,600.6z M361.2,602.2c0.4-0.3,0.5-0.5,0.9-0.8
				c0.2-0.2,0.4-0.4,0.4-0.6c0.1-0.2,0-0.4-0.1-0.5c-0.1-0.2-0.3-0.2-0.5-0.2c-0.2,0-0.4,0.1-0.7,0.3c-0.4,0.3-0.6,0.5-0.9,0.8
				C360.7,601.6,360.9,601.8,361.2,602.2z M364.2,602.6c0.1-0.2,0-0.4-0.1-0.5c-0.1-0.2-0.3-0.2-0.5-0.2c-0.2,0-0.4,0.1-0.7,0.3
				c-0.4,0.3-0.6,0.5-1,0.9c0.4,0.4,0.5,0.6,0.9,1c0.4-0.3,0.6-0.5,1-0.8C364,603,364.2,602.8,364.2,602.6z"/>
			<path class="st7" d="M371.7,596c-0.1,0.3-0.2,0.7-0.5,1c-0.3,0.3-0.7,0.6-1.2,0.9c-0.4,0.2-0.6,0.3-0.9,0.5
				c0.4,0.8,0.6,1.2,1,1.9c-0.6,0.3-0.8,0.5-1.4,0.8c-1.3-2.1-1.9-3.1-3.2-5.2c1.1-0.6,1.6-0.9,2.7-1.5c0.6-0.3,1.1-0.4,1.5-0.4
				c0.5,0,0.8,0.1,1.1,0.3c0.3,0.2,0.5,0.5,0.7,0.8C371.7,595.3,371.7,595.7,371.7,596z M369.9,596.4c0.1-0.2,0.1-0.4,0-0.6
				c-0.1-0.2-0.3-0.4-0.5-0.4c-0.2,0-0.5,0-0.8,0.2c-0.4,0.2-0.5,0.3-0.9,0.5c0.3,0.5,0.4,0.8,0.7,1.3c0.3-0.2,0.5-0.3,0.9-0.4
				C369.6,596.7,369.8,596.6,369.9,596.4z"/>
			<path class="st7" d="M379.1,595.9c-1,0.2-1.5,0.3-2.4,0.6c0,0.5-0.1,0.7-0.1,1.1c-0.6,0.2-0.9,0.3-1.6,0.5
				c0.1-2.6,0.2-3.9,0.6-6.6c0.8-0.2,1.3-0.3,2.1-0.5c1.6,2.2,2.3,3.3,3.6,5.6c-0.7,0.1-1,0.1-1.6,0.3
				C379.5,596.5,379.3,596.3,379.1,595.9z M378.4,594.9c-0.5-0.8-0.8-1.2-1.4-2c-0.1,1-0.2,1.4-0.3,2.4
				C377.4,595.1,377.8,595,378.4,594.9z"/>
			<path class="st7" d="M392.2,590.7c-0.1,0.5-0.1,0.7-0.2,1.2c-1.2-0.2-1.8-0.3-3-0.4c0,0.5-0.1,0.8-0.1,1.3
				c0.9,0.1,1.3,0.1,2.2,0.2c-0.1,0.5-0.1,0.7-0.2,1.1c-0.8-0.1-1.3-0.2-2.1-0.2c-0.1,1-0.1,1.5-0.2,2.5c-0.6,0-0.9-0.1-1.6-0.1
				c0.1-2.4,0.1-3.7,0.2-6.1C389.2,590.3,390.2,590.3,392.2,590.7z"/>
			<path class="st7" d="M396.8,598c-0.2-1-0.3-1.6-0.6-2.6c-0.2,0-0.2-0.1-0.4-0.1c-0.3,0.9-0.4,1.3-0.6,2.2
				c-0.6-0.2-0.9-0.3-1.5-0.4c0.6-2.4,0.8-3.6,1.4-5.9c1.2,0.3,1.8,0.4,3,0.8c0.6,0.2,1,0.4,1.4,0.7c0.3,0.3,0.6,0.6,0.6,1
				s0.1,0.7-0.1,1c-0.2,0.4-0.4,0.7-0.8,0.9s-0.8,0.3-1.3,0.2c0.3,1.1,0.4,1.7,0.6,2.8C397.8,598.4,397.4,598.3,396.8,598z
				 M396,594.3c0.4,0.1,0.6,0.2,1,0.3c0.3,0.1,0.6,0.1,0.7,0s0.3-0.2,0.4-0.5c0.1-0.2,0.1-0.4-0.1-0.6c-0.1-0.2-0.3-0.3-0.6-0.4
				c-0.4-0.1-0.6-0.2-1.1-0.3C396.3,593.4,396.2,593.7,396,594.3z"/>
			<path class="st7" d="M404.5,596.1c-0.2,0.4-0.4,0.6-0.6,1.1c0.8,0.5,1.2,0.7,2.1,1.2c-0.2,0.4-0.4,0.6-0.6,1
				c-0.8-0.5-1.2-0.7-2-1.2c-0.3,0.5-0.4,0.7-0.6,1.2c0.9,0.5,1.3,0.8,2.2,1.3c-0.3,0.4-0.4,0.6-0.7,1c-1.4-0.9-2.1-1.3-3.5-2
				c1.1-2.2,1.6-3.3,2.7-5.5c1.7,0.8,2.5,1.3,4.2,2.4c-0.3,0.4-0.4,0.6-0.7,1C406,597,405.5,596.7,404.5,596.1z"/>
			<path class="st7" d="M410.9,600.6c-0.3,0.4-0.5,0.6-0.8,0.9c0.7,0.6,1.1,1,1.8,1.7c-0.3,0.3-0.5,0.5-0.8,0.8
				c-0.7-0.7-1-1-1.8-1.6c-0.3,0.4-0.5,0.6-0.9,1c0.8,0.7,1.2,1,1.9,1.8c-0.3,0.3-0.5,0.5-0.8,0.8c-1.2-1.2-1.8-1.8-3.1-2.8
				c1.5-1.9,2.2-2.9,3.7-4.8c1.5,1.2,2.3,1.9,3.7,3.3c-0.3,0.3-0.5,0.5-0.8,0.8C412.2,601.7,411.8,601.3,410.9,600.6z"/>
		</g>
	</g>
	<polygon class="st26" points="385.8,602.7 386.6,604.4 388.4,604.6 387.1,605.9 387.4,607.7 385.8,606.9 384.2,607.7 384.5,605.9 
		383.2,604.6 385,604.4 	"/>
	<polygon class="st26" points="385.9,649.9 386.7,651.6 388.6,651.8 387.2,653.1 387.6,654.9 385.9,654.1 384.3,654.9 384.6,653.1 
		383.3,651.8 385.1,651.6 	"/>
	<g>
		<g>
			<path class="st7" d="M363.6,658.1c0,0.4,0,0.7-0.2,1c-0.3,0.4-0.7,0.6-1.3,0.6c-0.6,0-1.2-0.3-1.9-0.9c-1.2-1-1.8-1.5-2.9-2.6
				c1.8-1.8,2.7-2.7,4.4-4.4c0.9,0.9,1.4,1.3,2.3,2.1c0.5,0.5,0.9,0.9,1,1.4c0.1,0.5,0.1,0.9-0.2,1.3c-0.2,0.3-0.5,0.5-0.8,0.5
				c-0.3,0.1-0.7,0-1-0.2C363.4,657.4,363.5,657.7,363.6,658.1z M361.3,654.9c0.4,0.3,0.5,0.5,0.9,0.8c0.2,0.2,0.4,0.3,0.6,0.3
				c0.2,0,0.4-0.1,0.5-0.2c0.1-0.2,0.2-0.3,0.1-0.5c0-0.2-0.2-0.4-0.4-0.6c-0.4-0.3-0.5-0.5-0.9-0.8
				C361.8,654.3,361.6,654.5,361.3,654.9z M361.4,658c0.2,0,0.4-0.1,0.5-0.2s0.2-0.4,0.1-0.6c-0.1-0.2-0.2-0.4-0.5-0.6
				c-0.4-0.4-0.6-0.5-1-0.9c-0.4,0.4-0.6,0.6-0.9,1c0.4,0.4,0.6,0.6,1.1,1C361,657.9,361.2,658,361.4,658z"/>
			<path class="st7" d="M371.4,661.9c-0.3,0.2-0.7,0.3-1.1,0.3c-0.5,0-1-0.1-1.5-0.4c-0.4-0.2-0.6-0.3-1-0.5c-0.4,0.8-0.6,1.2-1.1,2
				c-0.7-0.4-1-0.6-1.7-1c1.3-2.2,2-3.2,3.3-5.4c0.9,0.6,1.4,0.8,2.3,1.3c0.5,0.2,0.9,0.5,1.1,0.8s0.4,0.6,0.5,1
				c0.1,0.4,0,0.7-0.1,1.1C371.9,661.4,371.7,661.7,371.4,661.9z M369.9,660.8c0.2-0.1,0.4-0.2,0.5-0.4c0.1-0.2,0.1-0.4,0-0.6
				c-0.1-0.2-0.3-0.4-0.6-0.5c-0.3-0.2-0.5-0.3-0.8-0.4c-0.3,0.6-0.5,0.8-0.8,1.4c0.3,0.2,0.5,0.3,0.9,0.5
				C369.5,660.8,369.7,660.8,369.9,660.8z"/>
			<path class="st7" d="M378.1,666.2c-1.1-0.2-1.7-0.4-2.8-0.7c-0.3,0.4-0.4,0.6-0.8,0.9c-0.8-0.2-1.2-0.3-1.9-0.6
				c1.9-2,2.8-3,4.4-5.2c0.7,0.2,1.1,0.3,1.8,0.4c0.4,2.7,0.7,4,1.5,6.6c-0.8-0.1-1.2-0.2-2-0.3
				C378.2,666.9,378.2,666.7,378.1,666.2z M377.9,665c-0.2-1-0.2-1.5-0.4-2.4c-0.5,0.8-0.8,1.2-1.4,2
				C376.8,664.7,377.1,664.8,377.9,665z"/>
			<path class="st7" d="M391.4,661.4c0.1,0.5,0.1,0.7,0.2,1.2c-1.1,0.2-1.7,0.2-2.8,0.3c0,0.5,0.1,0.8,0.1,1.3
				c0.9-0.1,1.3-0.1,2.2-0.2c0.1,0.5,0.1,0.7,0.2,1.2c-0.9,0.1-1.3,0.2-2.2,0.2c0.1,1,0.1,1.5,0.2,2.5c-0.8,0.1-1.1,0.1-1.9,0.1
				c-0.1-2.5-0.1-3.8-0.2-6.3C388.8,661.8,389.7,661.7,391.4,661.4z"/>
			<path class="st7" d="M399.1,666c-0.9-0.7-1.4-1-2.2-1.8c-0.2,0-0.3,0.1-0.4,0.1c0.3,0.9,0.4,1.4,0.6,2.3
				c-0.7,0.2-1.1,0.3-1.9,0.5c-0.6-2.4-0.9-3.7-1.4-6.1c1.1-0.2,1.6-0.4,2.6-0.7c0.5-0.2,1-0.2,1.4-0.2c0.4,0,0.8,0.2,1,0.4
				c0.3,0.2,0.5,0.5,0.6,0.8c0.2,0.4,0.2,0.8,0,1.2c-0.1,0.4-0.4,0.8-0.9,1.1c1,0.7,1.5,1.1,2.5,1.7
				C400.3,665.5,399.9,665.7,399.1,666z M396.2,663.3c0.4-0.1,0.6-0.2,1-0.3c0.3-0.1,0.5-0.2,0.6-0.4c0.1-0.2,0.1-0.4,0-0.6
				c-0.1-0.2-0.2-0.4-0.4-0.5c-0.2-0.1-0.4-0.1-0.7,0c-0.4,0.1-0.6,0.2-1,0.3C395.9,662.4,396,662.7,396.2,663.3z"/>
			<path class="st7" d="M403.2,658.6c0.2,0.4,0.4,0.7,0.6,1.1c0.8-0.5,1.2-0.7,2.1-1.2c0.3,0.4,0.4,0.6,0.6,1
				c-0.8,0.5-1.3,0.8-2.1,1.3c0.3,0.5,0.4,0.7,0.7,1.2c1-0.6,1.5-0.9,2.5-1.5c0.3,0.4,0.4,0.6,0.7,1c-1.7,1.1-2.5,1.6-4.3,2.4
				c-1.1-2.3-1.7-3.4-2.8-5.6c1.5-0.7,2.2-1.1,3.6-2.1c0.3,0.4,0.4,0.6,0.7,1C404.6,657.8,404.2,658.1,403.2,658.6z"/>
			<path class="st7" d="M409.2,654.5c0.3,0.4,0.5,0.6,0.8,1c0.7-0.6,1.1-1,1.8-1.7c0.3,0.3,0.5,0.5,0.8,0.8
				c-0.7,0.7-1.1,1.1-1.9,1.7c0.4,0.4,0.5,0.6,0.9,1c0.9-0.8,1.3-1.2,2.2-2c0.3,0.3,0.5,0.5,0.9,0.9c-1.5,1.5-2.2,2.1-3.8,3.4
				c-1.5-2-2.3-3-3.9-5c1.3-1,2-1.6,3.2-2.9c0.3,0.3,0.5,0.5,0.9,0.9C410.4,653.4,410,653.8,409.2,654.5z"/>
		</g>
	</g>
</g>
<g id="Layer_3">
</g>
</svg>
