<?xml version="1.0" encoding="utf-8"?>
<!-- Generator: Adobe Illustrator 25.2.3, SVG Export Plug-In . SVG Version: 6.00 Build 0)  -->
<svg version="1.1" xmlns="http://www.w3.org/2000/svg" xmlns:xlink="http://www.w3.org/1999/xlink" x="0px" y="0px"
	 viewBox="0 0 81 81" style="enable-background:new 0 0 81 81;" xml:space="preserve">
<style type="text/css">
	.st0{fill:none;stroke:#000000;stroke-width:2;stroke-miterlimit:10;}
	.st1{fill:#FFFFFF;stroke:#000000;stroke-width:2;stroke-miterlimit:10;}
	.st2{fill:none;stroke:#000000;stroke-width:3;stroke-miterlimit:10;}
</style>
<g id="Layer_1">
</g>
<g id="Layer_2">
	<g>
		<path class="st0" d="M12.7,41.5c0.9,1.2,2.8,3.6,6.2,5.3c0.9,0.4,3.6,1.7,7,1.7c7.3,0,12-6.2,12.6-7c-0.4-0.7-5-7-12.6-7.2
			c-4.4-0.1-7.8,2-8.6,2.4C14.8,38.4,13.4,40.3,12.7,41.5z"/>
		<path class="st0" d="M25.7,48.7c-0.1,1.4-0.1,2.8-0.2,4.1"/>
		<ellipse class="st1" cx="25.6" cy="40.9" rx="3.3" ry="3.2"/>
		<path class="st0" d="M19.1,47.4c-0.6,1.1-1.1,2.2-1.7,3.2"/>
		<path class="st0" d="M31.7,47.3c0.7,1.1,1.4,2.3,2.2,3.4"/>
	</g>
	<path class="st2" d="M38.6,10.8c10.8,7.4,17,19.8,16,32.6c-1.3,16.7-14.3,25.8-16,26.9C56.3,71.4,71.2,57,70.9,40
		C70.6,23.4,55.9,9.7,38.6,10.8z"/>
</g>
</svg>
