<?xml version="1.0" encoding="utf-8"?>
<!-- Generator: Adobe Illustrator 25.2.3, SVG Export Plug-In . SVG Version: 6.00 Build 0)  -->
<svg version="1.1" id="Layer_1" xmlns="http://www.w3.org/2000/svg" xmlns:xlink="http://www.w3.org/1999/xlink" x="0px" y="0px"
	 viewBox="0 0 81 81" style="enable-background:new 0 0 81 81;" xml:space="preserve">
<style type="text/css">
	.st0{fill:#FFFFFF;}
</style>
<path class="st0" d="M40.5,7C59,7,74,22,74,40.5S59,74,40.5,74S7,59,7,40.5l0,0C7,22,22,7,40.5,7 M40.5,0C18.1,0,0,18.1,0,40.5
	S18.1,81,40.5,81S81,62.9,81,40.5S62.9,0,40.5,0z"/>
<path d="M40,12c16,0,29,13,29,29S56,70,40,70S11,57,11,41l0,0C11,25,24,12,40,12 M40,5C20.1,5,4,21.1,4,41s16.1,36,36,36
	s36-16.1,36-36S59.9,5,40,5z"/>
<ellipse cx="40" cy="41.1" rx="32.8" ry="32.9"/>
</svg>
