<?xml version="1.0" encoding="utf-8"?>
<!-- Generator: Adobe Illustrator 25.2.3, SVG Export Plug-In . SVG Version: 6.00 Build 0)  -->
<svg version="1.1" xmlns="http://www.w3.org/2000/svg" xmlns:xlink="http://www.w3.org/1999/xlink" x="0px" y="0px"
	 viewBox="0 0 81 81" style="enable-background:new 0 0 81 81;" xml:space="preserve">
<style type="text/css">
	.st0{fill:#FFFFFF;}
	.st1{fill:none;stroke:#000000;stroke-miterlimit:10;}
	.st2{fill:#FFFFFF;stroke:#000000;stroke-miterlimit:10;}
</style>
<g id="Layer_1">
	<path class="st0" d="M40.5,7C59,7,74,22,74,40.5S59,74,40.5,74S7,59,7,40.5l0,0C7,22,22,7,40.5,7 M40.5,0C18.1,0,0,18.1,0,40.5
		S18.1,81,40.5,81S81,62.9,81,40.5S62.9,0,40.5,0z"/>
	<path d="M40,12c16,0,29,13,29,29S56,70,40,70S11,57,11,41l0,0C11,25,24,12,40,12 M40,5C20.1,5,4,21.1,4,41s16.1,36,36,36
		s36-16.1,36-36S59.9,5,40,5z"/>
</g>
<g id="Layer_2">
	<path class="st1" d="M46.2,40.8c0.7,1,2.1,2.8,4.6,4.1c0.6,0.3,2.7,1.3,5.2,1.3c5.5,0,9-4.8,9.4-5.4c-0.6-0.9-1.6-2.2-3.2-3.4
		c-0.8-0.6-3-2.1-6.2-2.2c-0.6,0-3.5,0-6.4,1.9C47.8,38.4,46.7,40,46.2,40.8z"/>
	<path class="st1" d="M56.1,32c0,1.1-0.1,2.1-0.1,3.2"/>
	<path class="st1" d="M62.6,34.5c-0.4,0.8-0.9,1.7-1.3,2.5"/>
	<path class="st1" d="M48.4,34.4c0.5,0.9,1.1,1.7,1.6,2.6"/>
	<path class="st1" d="M13.8,40.1c0.7,1,2.1,2.8,4.6,4.1c0.6,0.3,2.7,1.3,5.2,1.3c5.5,0,9-4.8,9.4-5.4c-0.6-0.9-1.6-2.2-3.2-3.4
		c-0.8-0.6-3-2.1-6.2-2.2c-0.6,0-3.5,0-6.4,1.9C15.4,37.7,14.3,39.3,13.8,40.1z"/>
	<path class="st1" d="M23.5,31.3c0,1.1,0,2.1,0,3.2"/>
	<circle class="st2" cx="23.4" cy="39.3" r="4"/>
	<path class="st1" d="M30.3,33.8c-0.4,0.8-0.9,1.7-1.3,2.5"/>
	<path class="st1" d="M16,33.8c0.5,0.9,1.1,1.7,1.6,2.6"/>
	<circle class="st2" cx="55.7" cy="40.1" r="4"/>
</g>
</svg>
